<?xml version="1.0" encoding="UTF-8"?>
<svg width="26px" height="26px" viewBox="0 0 26 26" version="1.1" xmlns="http://www.w3.org/2000/svg" xmlns:xlink="http://www.w3.org/1999/xlink">
    <title>7ecd3354-d81b-4a2a-800c-8b5dc3985d05@1.00x</title>
    <g id="Symbols" stroke="none" stroke-width="1" fill="none" fill-rule="evenodd">
        <g id="icon/linkedin">
            <path d="M26.0000144,20.6597431 C26.0000144,23.6098681 23.6098418,26 20.6596664,26 L5.34124923,26 C2.39151726,26 1.44444457e-05,23.6098681 1.44444457e-05,20.6597431 L1.44444457e-05,5.3411437 C1.44444457e-05,2.39190541 2.39151726,0 5.34124923,0 L20.6596664,0 C23.6098418,0 26.0000144,2.39190541 26.0000144,5.3411437 L26.0000144,20.6597431 Z" id="Fill-1" fill="#007BB5"></path>
            <path d="M6.21014444,4 C7.42882222,4 8.41956667,4.95605714 8.41956667,6.13357857 C8.41956667,7.31040357 7.42882222,8.26395357 6.21014444,8.26395357 C4.98785556,8.26395357 4,7.31040357 4,6.13357857 C4,4.95605714 4.98785556,4 6.21014444,4 L6.21014444,4 Z M4.30261111,21.7122679 L8.11652222,21.7122679 L8.11652222,9.8812 L4.30261111,9.8812 L4.30261111,21.7122679 Z" id="Fill-4" fill="#FFFFFF"></path>
            <path d="M10.5080744,9.88114429 L14.1664189,9.88114429 L14.1664189,11.4996443 L14.2187078,11.4996443 C14.7274411,10.5686586 15.9715411,9.58892286 17.8263522,9.58892286 C21.6880744,9.58892286 22.4011967,12.0384014 22.4011967,15.2233086 L22.4011967,21.7122121 L18.5891633,21.7122121 L18.5891633,15.9588764 C18.5891633,14.5869121 18.5646078,12.8210479 16.6069522,12.8210479 C14.6230078,12.8210479 14.3201078,14.3175336 14.3201078,15.8605407 L14.3201078,21.7122121 L10.5080744,21.7122121 L10.5080744,9.88114429 Z" id="Fill-6" fill="#FFFFFF"></path>
        </g>
    </g>
</svg>