<?xml version="1.0" encoding="UTF-8"?>
<svg width="26px" height="26px" viewBox="0 0 26 26" version="1.1" xmlns="http://www.w3.org/2000/svg" xmlns:xlink="http://www.w3.org/1999/xlink">
    <title>2c6db81f-8406-4abb-8cd7-f8a1349b44a3@1.00x</title>
    <g id="Symbols" stroke="none" stroke-width="1" fill="none" fill-rule="evenodd">
        <g id="icon/facebook">
            <path d="M5.34093519,-4.4408921e-14 C2.39113925,-4.4408921e-14 0,2.39064321 0,5.34026092 L0,5.34026092 L0,20.6592957 C0,23.6096524 2.39113925,26 5.34093519,26 L5.34093519,26 L20.6599516,26 C23.6091563,26 26,23.6096524 26,20.6592957 L26,20.6592957 L26,5.34026092 C26,2.39064321 23.6091563,-4.4408921e-14 20.6599516,-4.4408921e-14 L20.6599516,-4.4408921e-14 L5.34093519,-4.4408921e-14 Z" id="Fill-1" fill="#007ABC"></path>
            <path d="M19.8815477,7.71821756 L22.311554,7.71821756 L22.311554,4.05183741 L19.2938482,4.05183741 L18.6699135,4.05183741 C18.6699135,4.05183741 16.3805058,3.99753821 14.9207651,5.81842463 C14.9207651,5.81842463 13.926692,6.71816012 13.911569,9.35254541 L13.9108204,9.35254541 L13.9108204,12.1022003 L10.311554,12.1022003 L10.311554,15.9950655 L13.9108204,15.9950655 L13.9108204,26.0518374 L18.0621499,26.0518374 L18.0621499,15.9950655 L21.6332665,15.9950655 L22.1309768,12.1022003 L18.0621499,12.1022003 L18.0621499,9.35254541 L18.0611017,9.35254541 C18.0711338,9.04539928 18.2135293,7.69062184 19.8815477,7.71821756" id="Fill-4" fill="#FFFFFF"></path>
        </g>
    </g>
</svg>