<?xml version="1.0" encoding="UTF-8"?>
<svg width="26px" height="26px" viewBox="0 0 26 26" version="1.1" xmlns="http://www.w3.org/2000/svg" xmlns:xlink="http://www.w3.org/1999/xlink">
    <title>c31fdf3f-a329-464f-aa6a-4126f0b1e684@1.00x</title>
    <g id="Symbols" stroke="none" stroke-width="1" fill="none" fill-rule="evenodd">
        <g id="icon/tiktok">
            <path d="M26,20.6586518 C26,23.6082832 23.6079604,26 20.6597734,26 L5.34096555,26 C2.39100505,26 0,23.6082832 0,20.6586518 L0,5.34016587 C0,2.3905345 2.39100505,0 5.34096555,0 L20.6597734,0 C23.6079604,0 26,2.3905345 26,5.34016587 L26,20.6586518 Z" id="Fill-1" fill="#5A3E85"></path>
            <g id="twitch-seeklogo.com" transform="translate(3.000000, 3.000000)" fill="#FFFFFF" fill-rule="nonzero">
                <path d="M1.36389937,0 L0,3.65225 L0,18.2595001 L4.99864063,18.2595001 L4.99864063,21 L7.72769416,21 L10.454029,18.2595001 L14.5446814,18.2595001 L20,12.78354 L20,0 L1.36389937,0 Z M3.18099116,1.82497 L18.1821414,1.82497 L18.1821414,11.86864 L14.9994074,15.06477 L10,15.06477 L7.27443203,17.80149 L7.27443203,15.06477 L3.18099116,15.06477 L3.18099116,1.82497 Z M8.18163945,10.956799 L9.99998609,10.956799 L9.99998609,5.479159 L8.18163945,5.479159 L8.18163945,10.956799 Z M13.1813955,10.956799 L14.9993935,10.956799 L14.9993935,5.479159 L13.1813955,5.479159 L13.1813955,10.956799 Z" id="Shape"></path>
            </g>
        </g>
    </g>
</svg>