<?xml version="1.0" encoding="UTF-8"?>
<svg width="26px" height="26px" viewBox="0 0 26 26" version="1.1" xmlns="http://www.w3.org/2000/svg" xmlns:xlink="http://www.w3.org/1999/xlink">
    <title>c78c5555-6e4e-4e1f-bd43-0641d1802fd8@1.00x</title>
    <g id="Symbols" stroke="none" stroke-width="1" fill="none" fill-rule="evenodd">
        <g id="icon/twitter" fill-rule="nonzero">
            <g id="iconmonstr-twitter-3" fill="#1EA1F2">
                <path d="M20.5833333,0 L5.41666667,0 C2.42558333,0 0,2.42558333 0,5.41666667 L0,20.5833333 C0,23.5744167 2.42558333,26 5.41666667,26 L20.5833333,26 C23.5755,26 26,23.5744167 26,20.5833333 L26,5.41666667 C26,2.42558333 23.5755,0 20.5833333,0 Z" id="Shape"></path>
            </g>
            <path d="M22,8.15740361 C21.3745417,8.43878179 20.7023333,8.62828138 19.9968333,8.71369975 C20.7172083,8.27655865 21.2704167,7.58388023 21.530375,6.75840853 C20.85675,7.16324856 20.1101667,7.45754717 19.3154167,7.6161813 C18.6800417,6.92924528 17.7726667,6.5 16.7696667,6.5 C14.517875,6.5 12.8632083,8.62899918 13.3717917,10.8391099 C10.474,10.6919606 7.90416667,9.28506973 6.183625,7.14673913 C5.269875,8.7352338 5.70975,10.8132691 7.26241667,11.865566 C6.6915,11.8469032 6.15316667,11.6882691 5.68354167,11.4234003 C5.64529167,13.0607055 6.80341667,14.5924938 8.48075,14.9334495 C7.989875,15.0683962 7.45225,15.0999795 6.90541667,14.9937449 C7.34883333,16.3977646 8.63658333,17.4191961 10.16375,17.4479081 C8.6975,18.6128999 6.85016667,19.133306 5,18.9122231 C6.54345833,19.9149918 8.37733333,20.5 10.3465,20.5 C16.8220833,20.5 20.480625,14.9578548 20.259625,9.98707957 C20.9410417,9.48820755 21.5325,8.86587367 22,8.15740361 Z" id="Path" fill="#FFFFFF"></path>
        </g>
    </g>
</svg>