<?xml version="1.0" encoding="UTF-8"?>
<svg width="26px" height="26px" viewBox="0 0 26 26" version="1.1" xmlns="http://www.w3.org/2000/svg" xmlns:xlink="http://www.w3.org/1999/xlink">
    <title>c6c57fa5-4dad-4945-9e2c-75b0f92ff801@1.00x</title>
    <g id="Symbols" stroke="none" stroke-width="1" fill="none" fill-rule="evenodd">
        <g id="icon/reddit" fill-rule="nonzero">
            <g id="reddit-icon">
                <circle id="Oval" fill="#FF4500" cx="12.8832" cy="12.8832" r="12.8736"></circle>
                <path d="M21.4688,12.8832 C21.4304,11.8464 20.56,11.0368 19.52,11.072 C19.0592,11.088 18.6208,11.2768 18.288,11.5936 C16.8224,10.5952 15.1008,10.048 13.3312,10.0096 L14.1664,5.9936 L16.9216,6.5728 C16.9984,7.28 17.632,7.792 18.3392,7.7152 C19.0464,7.6384 19.5584,7.0048 19.4816,6.2976 C19.4048,5.5904 18.7712,5.0784 18.064,5.1552 C17.6576,5.1968 17.2928,5.4336 17.0912,5.7856 L13.936,5.1552 C13.7216,5.1072 13.5072,5.2416 13.4592,5.4592 C13.4592,5.4624 13.4592,5.4624 13.4592,5.4656 L12.5088,9.9328 C10.7168,9.9616 8.9728,10.512 7.488,11.5168 C6.7328,10.8064 5.5424,10.8416 4.832,11.6 C4.1216,12.3552 4.1568,13.5456 4.9152,14.256 C5.0624,14.3936 5.232,14.512 5.4208,14.5952 C5.408,14.784 5.408,14.9728 5.4208,15.1616 C5.4208,18.0448 8.7808,20.3904 12.9248,20.3904 C17.0688,20.3904 20.4288,18.048 20.4288,15.1616 C20.4416,14.9728 20.4416,14.784 20.4288,14.5952 C21.0752,14.272 21.4816,13.6064 21.4688,12.8832 Z M8.5952,14.1728 C8.5952,13.4624 9.1744,12.8832 9.8848,12.8832 C10.5952,12.8832 11.1744,13.4624 11.1744,14.1728 C11.1744,14.8832 10.5952,15.4624 9.8848,15.4624 C9.1712,15.456 8.5952,14.8832 8.5952,14.1728 Z M16.0736,17.712 C15.1584,18.4 14.0384,18.752 12.8928,18.704 C11.7472,18.752 10.6272,18.4 9.712,17.712 C9.5904,17.5648 9.6128,17.344 9.76,17.2224 C9.888,17.1168 10.0704,17.1168 10.2016,17.2224 C10.976,17.7888 11.92,18.0768 12.88,18.032 C13.84,18.0832 14.7872,17.808 15.5712,17.248 C15.712,17.1104 15.9424,17.1136 16.08,17.2544 C16.2176,17.3952 16.2144,17.6256 16.0736,17.7632 L16.0736,17.7632 L16.0736,17.712 L16.0736,17.712 Z M15.8432,15.5072 C15.1328,15.5072 14.5536,14.928 14.5536,14.2176 C14.5536,13.5072 15.1328,12.928 15.8432,12.928 C16.5536,12.928 17.1328,13.5072 17.1328,14.2176 C17.1616,14.928 16.608,15.5264 15.8976,15.5552 C15.8752,15.5552 15.856,15.5552 15.8336,15.5552 L15.8432,15.5072 Z" id="Shape" fill="#FFFFFF"></path>
            </g>
        </g>
    </g>
</svg>