<?xml version="1.0" encoding="UTF-8"?>
<svg width="26px" height="26px" viewBox="0 0 26 26" version="1.1" xmlns="http://www.w3.org/2000/svg" xmlns:xlink="http://www.w3.org/1999/xlink">
    <title>9b4fe239-f6a8-49fd-9bc6-7a6a97fffed2@1.00x</title>
    <g id="Symbols" stroke="none" stroke-width="1" fill="none" fill-rule="evenodd">
        <g id="icon/youtube">
            <path d="M26.0000148,20.6586518 C26.0000148,23.6082832 23.6079752,26 20.6597883,26 L5.34098039,26 C2.3910199,26 1.48465909e-05,23.6082832 1.48465909e-05,20.6586518 L1.48465909e-05,5.34016587 C1.48465909e-05,2.3905345 2.3910199,5.68434189e-14 5.34098039,5.68434189e-14 L20.6597883,5.68434189e-14 C23.6079752,5.68434189e-14 26.0000148,2.3905345 26.0000148,5.34016587 L26.0000148,20.6586518 Z" id="Fill-1" fill="#FFFFFF"></path>
            <path d="M6.54362213,6 C4.02348448,6 3,8.04952084 3,10.5784875 L3,10.5784875 L3,15.4210572 C3,17.9500238 4.1308853,20 6.65132549,20 L6.65132549,20 L19.618538,20 C22.1379193,20 23,17.9500238 23,15.4210572 L23,15.4210572 L23,10.5784875 C23,8.04952084 22.2456227,6 19.7247287,6 L19.7247287,6 L6.54362213,6 Z" id="Fill-4" fill="#FF0200"></path>
            <polygon id="Fill-7" fill="#FFFFFF" points="10.4727382 10.4 15.6899014 12.9503719 10.4727382 15.4997942"></polygon>
        </g>
    </g>
</svg>