<?xml version="1.0" encoding="UTF-8"?>
<svg width="26px" height="26px" viewBox="0 0 26 26" version="1.1" xmlns="http://www.w3.org/2000/svg" xmlns:xlink="http://www.w3.org/1999/xlink">
    <title>481c30fb-ab08-4920-b325-ed8a0c10e6b3@1.00x</title>
    <g id="Symbols" stroke="none" stroke-width="1" fill="none" fill-rule="evenodd">
        <g id="icon/twitch" fill-rule="nonzero">
            <g id="tiktok-app-icon-seeklogo.com">
                <path d="M19.7519497,26.1937614 L6.44091186,26.1937614 C2.88392323,26.1937614 0,23.3098382 0,19.7519497 L0,6.44091186 C0,2.88392323 2.88392323,0 6.44091186,0 L19.7519497,0 C23.3089384,0 26.1928618,2.88392323 26.1928618,6.44091186 L26.1928618,19.7519497 C26.1937614,23.3098382 23.3098382,26.1937614 19.7519497,26.1937614 Z" id="Path" fill="#000000"></path>
                <g id="Group" transform="translate(3.879726, 3.149370)" fill="#25F4EE">
                    <path d="M7.00449704,7.99850035 L7.00449704,7.20665871 C6.72970172,7.1631889 6.45214869,7.139433 6.17396315,7.13556043 C3.48080176,7.13017401 1.09717847,8.87492507 0.288240254,11.4430115 C-0.520697964,14.0110979 0.4340111,16.8077386 2.64396912,18.345531 C0.325132875,15.8638273 0.457406422,11.9721057 2.9391101,9.65326941 C4.04493615,8.62098044 5.4920969,8.03193028 7.00449704,7.99850035 L7.00449704,7.99850035 Z" id="Path"></path>
                    <path d="M7.15386717,16.9643072 C8.6592661,16.9625076 9.89651866,15.7765448 9.96310534,14.2720457 L9.96310534,0.849430119 L12.415115,0.849430119 C12.3649618,0.569125765 12.3411627,0.284741378 12.3440292,5.96855898e-16 L8.99039988,5.96855898e-16 L8.99039988,13.4091183 C8.93461103,14.9208159 7.6937592,16.1184764 6.18116171,16.1211759 C5.72945204,16.1175766 5.28404112,16.0059989 4.88362121,15.7972406 C5.41027972,16.526828 6.25405994,16.9605905 7.15386717,16.9643072 Z M16.9942991,5.40341935 L16.9942991,4.65746853 C16.0917796,4.65746853 15.2090562,4.3911218 14.4577064,3.89172168 C15.1163339,4.65807499 16.0068665,5.18879328 16.9942991,5.40341935 L16.9942991,5.40341935 Z" id="Shape"></path>
                </g>
                <path d="M18.3383324,7.04199164 C17.5976411,6.19886085 17.1894687,5.11477276 17.1901621,3.99250152 L16.2948411,3.99250152 C16.5278382,5.2466909 17.2669264,6.34962783 18.3383324,7.04199164 L18.3383324,7.04199164 Z M10.0536893,13.6394722 C8.49880029,13.6475706 7.24445115,14.9145172 7.25251054,16.4694062 C7.2577854,17.5094621 7.83591274,18.4619364 8.75614882,18.9466108 C7.84643076,17.690462 8.12717461,15.9340133 9.38332339,15.0233954 C9.86328232,14.6757616 10.4409643,14.4889756 11.0335933,14.4898021 C11.315237,14.4934014 11.5950811,14.5374926 11.8641272,14.620276 L11.8641272,11.2072586 C11.5896821,11.1658669 11.3116377,11.1442712 11.0335933,11.1424716 L10.8842232,11.1424716 L10.8842232,13.7375526 C10.6133774,13.6637673 10.3335334,13.6313738 10.0536893,13.6394722 L10.0536893,13.6394722 Z" id="Shape" fill="#FE2C55"></path>
                <path d="M20.8740253,8.55278949 L20.8740253,11.1478705 C19.2033952,11.1446638 17.5761405,10.6157824 16.2228555,9.63617282 L16.2228555,16.4541093 C16.215657,19.8563289 13.4559089,22.610678 10.0536893,22.610678 C8.79017864,22.6130852 7.55707535,22.2232209 6.52459512,21.4949012 C8.83983209,23.9847032 12.735153,24.1268748 15.2258549,21.8116378 C16.4783606,20.6473773 17.1899984,19.0144898 17.1901621,17.3044392 L17.1901621,10.505399 C18.5481412,11.4781038 20.177225,11.9999394 21.8476306,11.9973006 L21.8476306,8.65716862 C21.5200961,8.65536898 21.1943613,8.62117582 20.8740253,8.55278949 L20.8740253,8.55278949 Z" id="Path" fill="#FE2C55"></path>
                <path d="M16.2228555,16.4550091 L16.2228555,9.63707264 C17.5804448,10.6105526 19.2097853,11.1324704 20.8803241,11.1289743 L20.8803241,8.53389327 C19.893434,8.32525527 19.0010229,7.8016822 18.3374326,7.04199164 C17.2665598,6.34908578 16.5276425,5.2464038 16.2939413,3.99250152 L13.8419317,3.99250152 L13.8419317,17.4214158 C13.7780445,18.975405 12.4679065,20.1829635 10.9139173,20.1199761 C10.0525766,20.0850293 9.25475555,19.6572699 8.74895026,18.9592083 C7.37312542,18.2348531 6.84493106,16.5323936 7.56928619,15.1565688 C8.05367393,14.236063 9.00632792,13.6578266 10.0464908,13.6529695 C10.3281344,13.6556689 10.6079785,13.6988603 10.8770247,13.7825436 L10.8770247,11.1487703 C7.48110382,11.2063588 4.77444514,14.045291 4.83203362,17.4412119 C4.85808424,18.9790827 5.45939603,20.4513816 6.51739656,21.5677866 C7.56002087,22.2720761 8.79481887,22.6369528 10.0527895,22.6124776 C13.4559089,22.6115778 16.215657,19.8572287 16.2228555,16.4550091 L16.2228555,16.4550091 Z" id="Path" fill="#FFFFFF"></path>
            </g>
        </g>
    </g>
</svg>