<?xml version="1.0" encoding="UTF-8"?>
<svg width="26px" height="26px" viewBox="0 0 26 26" version="1.1" xmlns="http://www.w3.org/2000/svg" xmlns:xlink="http://www.w3.org/1999/xlink">
    <title>b1ddb27a-7c07-4c4c-b642-07e1b957ec7e@1.00x</title>
    <g id="Symbols" stroke="none" stroke-width="1" fill="none" fill-rule="evenodd">
        <g id="icon/vk" fill-rule="nonzero">
            <g id="vkcom">
                <path d="M4.00638333,0 L21.9936167,0 C24.2061896,0 26,1.79372917 26,4.00641042 L26,21.9936167 C26,24.2062167 24.2061896,26 21.9936167,26 L4.00638333,26 C1.79372917,26 0,24.2062167 0,21.9935896 L0,4.00641042 C0,1.79372917 1.79372917,0 4.00638333,0" id="Path" fill="#4C75A3"></path>
                <path d="M12.7818708,18.2007854 L13.8454063,18.2007854 C13.8454063,18.2007854 14.1665875,18.1653875 14.3308208,17.9886958 C14.4817563,17.8263042 14.4769625,17.5215354 14.4769625,17.5215354 C14.4769625,17.5215354 14.4561354,16.0944604 15.1183771,15.8842938 C15.7714375,15.6771875 16.6098563,17.2635125 17.4984604,17.8735375 C18.1704521,18.3350104 18.6811083,18.2340167 18.6811083,18.2340167 L21.0573729,18.2007854 C21.0573729,18.2007854 22.3003625,18.1240854 21.7109479,17.1467833 C21.6626854,17.0669688 21.3675583,16.4238479 19.9440854,15.1025333 C18.4539604,13.7196042 18.6537271,13.9433396 20.4485396,11.55115 C21.5415687,10.0943375 21.9784771,9.204975 21.84195,8.82410208 C21.7118688,8.4612125 20.9078729,8.55706042 20.9078729,8.55706042 L18.2324188,8.57360833 C18.2324188,8.57360833 18.0339521,8.54657917 17.8869438,8.63454583 C17.7431313,8.72058958 17.6508583,8.92160208 17.6508583,8.92160208 C17.6508583,8.92160208 17.2272208,10.0488646 16.6626958,11.0076687 C15.4713542,13.0306042 14.9949042,13.1376917 14.8001479,13.0118896 C14.3470708,12.7190917 14.4602792,11.8358771 14.4602792,11.2082479 C14.4602792,9.2477125 14.7576542,8.43031042 13.8812104,8.21868125 C13.5904167,8.14850833 13.3762146,8.1020875 12.6323979,8.09450417 C11.6777104,8.08480833 10.8698688,8.09742917 10.41235,8.32157083 C10.1079604,8.4706375 9.87312083,8.80273333 10.0162292,8.82185417 C10.1930833,8.84538958 10.5934563,8.92991667 10.8057625,9.21876042 C11.0800083,9.59186042 11.0704208,10.4294667 11.0704208,10.4294667 C11.0704208,10.4294667 11.2279917,12.7373187 10.7024938,13.0239146 C10.3419063,13.2205396 9.84714792,12.8191375 8.78499375,10.9838083 C8.2408625,10.0436917 7.8299,9.00442292 7.8299,9.00442292 C7.8299,9.00442292 7.7507625,8.81023542 7.60941458,8.70628958 C7.43797708,8.58035208 7.198425,8.54043125 7.198425,8.54043125 L4.65595,8.55703333 C4.65595,8.55703333 4.27434583,8.56770417 4.13413542,8.73364375 C4.00938958,8.88138333 4.12416875,9.1866125 4.12416875,9.1866125 C4.12416875,9.1866125 6.11452292,13.843375 8.368425,16.1901458 C10.4352896,18.342025 12.7818708,18.2007854 12.7818708,18.2007854" id="Path" fill="#FFFFFF"></path>
            </g>
        </g>
    </g>
</svg>