<?xml version="1.0" encoding="UTF-8"?>
<svg width="26px" height="26px" viewBox="0 0 26 26" version="1.1" xmlns="http://www.w3.org/2000/svg" xmlns:xlink="http://www.w3.org/1999/xlink">
    <title>c4020afa-477e-490a-ba23-9343b45977e4@1.00x</title>
    <defs>
        <linearGradient x1="100%" y1="0%" x2="0%" y2="100%" id="linearGradient-1">
            <stop stop-color="#32C5FF" offset="0%"></stop>
            <stop stop-color="#B620E0" offset="51.2583893%"></stop>
            <stop stop-color="#F7B500" offset="100%"></stop>
        </linearGradient>
    </defs>
    <g id="Symbols" stroke="none" stroke-width="1" fill="none" fill-rule="evenodd">
        <g id="icon/instagram">
            <path d="M5.34037437,0 C2.39070947,0 0,2.3922672 0,5.34170049 L0,5.34170049 L0,20.6599252 C0,23.6081762 2.39070947,26 5.34037437,26 L5.34037437,26 L20.6596256,26 C23.608256,26 26,23.6081762 26,20.6599252 L26,20.6599252 L26,5.34170049 C26,2.3922672 23.608256,0 20.6596256,0 L20.6596256,0 L5.34037437,0 Z" id="Fill-1" fill="url(#linearGradient-1)"></path>
            <path d="M21,15.7801044 C21,18.4675741 18.7923161,20.6447368 16.0709535,20.6447368 L9.92994189,20.6447368 C7.20708696,20.6447368 5,18.4675741 5,15.7801044 L5,9.72004284 C5,7.03434042 7.20708696,4.85526316 9.92994189,4.85526316 L16.0709535,4.85526316 C18.7923161,4.85526316 21,7.03434042 21,9.72004284 L21,15.7801044 Z M16.8380717,2.75 L9.16222979,2.75 C5.7585999,2.75 3,5.50894297 3,8.91292567 L3,16.588431 C3,19.9912078 5.7585999,22.75 9.16222979,22.75 L16.8380717,22.75 C20.2417016,22.75 23,19.9912078 23,16.588431 L23,8.91292567 C23,5.50894297 20.2417016,2.75 16.8380717,2.75 L16.8380717,2.75 Z" id="Fill-4" fill="#FFFFFF"></path>
            <path d="M13.0004292,15.7580411 C11.3378162,15.7580411 9.99167334,14.4105142 9.99167334,12.7499285 C9.99167334,11.0873396 11.3378162,9.74138659 13.0004292,9.74138659 C14.6611823,9.74138659 16.0081836,11.0873396 16.0081836,12.7499285 C16.0081836,14.4105142 14.6611823,15.7580411 13.0004292,15.7580411 M13.0004292,7.75 C10.2383255,7.75 8,9.98791332 8,12.7499285 C8,15.5105128 10.2383255,17.75 13.0004292,17.75 C15.7615314,17.75 18,15.5105128 18,12.7499285 C18,9.98791332 15.7615314,7.75 13.0004292,7.75" id="Fill-6" fill="#FFFFFF"></path>
            <path d="M19,7.80677788 C19,8.35892098 18.5514292,8.80644038 17.9995499,8.80644038 C17.4473329,8.80644038 17,8.35892098 17,7.80677788 C17,7.25485978 17.4473329,6.80644038 17.9995499,6.80644038 C18.5514292,6.80644038 19,7.25485978 19,7.80677788" id="Fill-8" fill="#FFFFFF"></path>
        </g>
    </g>
</svg>