<?xml version="1.0" encoding="UTF-8"?>
<svg width="32px" height="20px" viewBox="0 0 32 20" version="1.1" xmlns="http://www.w3.org/2000/svg" xmlns:xlink="http://www.w3.org/1999/xlink">
    <!-- Generator: Sketch 63.1 (92452) - https://sketch.com -->
    <title>card-logo-mastercard</title>
    <desc>Created with Sketch.</desc>
    <g id="Symbols" stroke="none" stroke-width="1" fill="none" fill-rule="evenodd">
        <g id="US-Credit-Cards" transform="translate(-37.000000, 0.000000)">
            <g id="card-logo-mastercard" transform="translate(37.000000, 0.000000)">
                <path d="M30.005094,0.178553571 L1.99487024,0.178553571 C0.893093545,0.178553571 -1.78571427e-05,0.978017857 -1.78571427e-05,1.96426786 L-1.78571427e-05,18.0839107 C-1.78571427e-05,19.0699821 0.893093545,19.869625 1.99487024,19.869625 L30.005094,19.869625 C31.1068707,19.869625 31.9999821,19.0699821 31.9999821,18.0839107 L31.9999821,1.969625 C31.9999821,0.983375 31.1068707,0.183910714 30.005094,0.183910714" id="Fill-1" fill="#E6E6E6"></path>
                <path d="M15.7510051,5.64817857 C13.331898,3.17228571 9.3635051,3.12621429 6.88761224,5.5455 C4.41154082,7.96460714 4.36546939,11.933 6.7847551,14.4088929 C9.20386224,16.8847857 13.1722551,16.9308571 15.648148,14.51175 C15.6829694,14.4778214 15.7172551,14.4435357 15.7510051,14.4088929 C13.361898,11.9774643 13.361898,8.07978571 15.7510051,5.64817857" id="Fill-4" fill="#E74C3C"></path>
                <path d="M20.2331658,3.76071257 C18.5462015,3.75946429 16.9303087,4.44017857 15.7528087,5.64821429 C18.1362015,8.08214286 18.1362015,11.975 15.7528087,14.4089286 C18.1720944,16.8848214 22.1403087,16.9308929 24.6162015,14.5117857 C27.092273,12.0925 27.1381658,8.12428571 24.7190587,5.64821429 C23.5390587,4.44053571 21.9217372,3.76 20.2331658,3.76071257" id="Fill-6" fill="#F79F1A"></path>
                <path d="M15.7510051,5.64817857 C13.361898,8.07978571 13.361898,11.9774643 15.7510051,14.4088929 C18.134398,11.9749643 18.134398,8.08210714 15.7510051,5.64817857" id="Fill-8" fill="#FF5F01"></path>
            </g>
        </g>
    </g>
</svg>