<svg viewBox="0 0 42 28" xmlns="http://www.w3.org/2000/svg" xmlnsXlink="http://www.w3.org/1999/xlink"><title>Brand Toggle: HyperX</title><defs><path id="a" d="M0 .076h33.813v19.03H0z"></path></defs><g fill="none" fill-rule="evenodd" opacity=".752"><path fill="#FEFEFE" d="M13.188 6.064H10.96l-1.85 6.165h2.231zM19.276 12.229l.595-1.987A30.986 30.986 0 0012.92 8.91l-.317 1.05h5.11c-.128.42-.681 2.269-.681 2.269h2.244z"></path><g transform="translate(4 4.078)"><mask id="b" fill="#fff"><use href="#a"></use></mask><path d="M33.797 18.953c-1.497-4.293-3.753-7.37-6.302-9.574 4.01-3.876 4.12-8.775 4.147-9.138.013-.157-.014-.16-.043-.164-.053-.008-.08.067-.08.067-1.317 3.233-3.444 5.762-5.986 7.741-3.038-2.032-6.306-3.04-9.124-3.517l.714-2.382H14.88l-.63 2.101c-2.986-.272-5.084.007-5.161.013-.119.01-.15.04-.147.081.004.058.117.059.117.059 5.96.456 10.823 2.517 14.604 4.96-9.68 6.155-23.45 5.772-23.45 5.772-.173-.003-.21.025-.213.09-.005.098.158.1.158.1 17.465 2.147 25.046-3.934 25.695-4.42 5.193 3.965 7.768 8.25 7.768 8.25.048.07.097.128.148.11.079-.029.028-.149.028-.149" fill="#FEFEFE" mask="url(#b)"></path></g></g></svg>