<svg viewBox="0 0 42 28" xmlns="http://www.w3.org/2000/svg"><title>Brand Toggle: Kingston Technology</title><g fill="none" fill-rule="evenodd" opacity=".751"><path d="M14.873 5.896l.17 1.326-.523.566.082 2.437.552 1.434 1.262 1.31-2.101 10.652h12.718l-2.431-6.061c1.187-.132 1.886-.276 2.097-.431.21-.155.652-1.24 1.323-3.255l.432-3.649-.049-2.437.466-.488v-.906l-.417-1.34-1.561-.51-2.933-.335h-3.32l-2.98.493-2.506.701-.281.493z" fill="#FFF"></path><path d="M22.103 4.015c1.424-.035 3.897-.077 6.368.735.165.066.205.193.271.43.083.297.12.56.158.823.09.613.113.966.094 1.306-.013.245-.294.675-.305.797-.04.418.12 2.05.06 2.847-.062.798-.38 3.474-1.041 5.228-.697 1.85-1.9 1.549-2.51 1.549L28.084 24 14 23.989l2.083-10.923s.032-.276-.221-.43c-.56-.338-1.01-.875-1.01-.875s-.284-.31-.604-2.103c0 0-.272-1.686.03-2.054.139-.17.474-.336.574-.394l-.025-.116a13.495 13.495 0 01-.17-.963c-.134-.552.148-.703.148-.703s2.57-1.299 7.298-1.413zm2.207 17.089l-.605 2.517h2.634c-.463-1.103-2.029-2.517-2.029-2.517zm-4.57-3.284l1.443 5.801h1.952l-.285-3.586c-.427-.586-3.11-2.215-3.11-2.215zm-3.182-4.723l-2.038 10.5h5.518l-2.172-9.63-1.308-.87zm10.778 1.25c-3.56-.31-4.094 1.93-4.094 1.93 1.33.329 2.83-.275 3.65-1.069.61-.59.49-.81.452-.853zm-.285-1.104c-1.982-.502-3.875-.163-3.875-.163 1.205.945 4.255.784 4.255.784.046-.28-.38-.62-.38-.62zm-4.433-8.826h-.48c-4.148-.015-6.906 1.241-6.906 1.241-.152.074-.194.258-.194.258s.106.894.153 1.042c.034.106.113.114.113.114s1.049-.34 2.029-.276c.678.044.854 1.069.854 1.069-.047-.073-.081-.034-.142-.104-.198-.224-.49-.525-.819-.586-.676-.069-2.273.254-2.527.655-.285.448.106 3.103.533 3.655.78 1.006 2.742 1.93 2.742 1.93l-2.92-4.792s-.086-.162 0-.345c.046-.095.184-.318 1.069-.344 1.174-.035 1.317 1.068 1.317 1.068l1.068 4.482c.167-.015 2.863-.295 3.595-.413.732-.119 1.856-.695 2.42-.827.565-.134 2.386.034 2.386.034s-2.163-1.515-2.208-1.56c-.046-.044-.035-.095-.035-.095s.178-.67.239-.788c.06-.118.29-.113.29-.113l.894.207c.292.095-.51.096-.51.096H25.2c-.107 0-.166.322-.178.494-.016.237.391.276.391.276s1.978-.033 2.146-.044c.382-.025.52-.05.489-.197-.03-.148-.427-3.724-.427-3.724s.119-.23.403-.299c0 0 .257-.062.32-.323.083-.34.187-.942.024-1.067-1.548-.656-4.537-.72-5.75-.724zm.446 2.528c.64-.148 1.185-.217 1.475-.143.29.074.61.826.626.96 0 0-.962.448-1.877.355-.791-.08-1.654-.18-2.146-.39 0 0 1.282-.634 1.922-.782zm-.534-1.413s.393-.085 1.958.264c.815.182 1.25.358 1.464.427.093.03.085.248.031.263-.107.03-2.107-.623-3.247-.6 0 0-1.345.53-2.947 1.875 0 0-.345.06-.498 0 0 0 1.46-1.506 3.24-2.23zm5.91 1.173c-.164-.025-.418.464-.418.464.56-.016.629.125.702.053.074-.072.101-.295-.01-.384-.11-.09-.1-.107-.275-.133z" fill="#1B1B1B"></path></g></svg>