<svg xmlns="http://www.w3.org/2000/svg">
    <symbol id="ambassadors" viewBox="0 0 200 92">
      <g fill="#FFF" fill-rule="evenodd"><rect opacity=".251" x="10" y="11" width="180" height="70" rx="4"/><path d="M40.243 32.332l9.174 13.515c.39.568.148 1.188-.54 1.188H23.722c-.688 0-.927-.617-.53-1.183l7.27-10.474c.396-.565 1.117-.666 1.602-.175l1.469 1.467c.485.491 1.239.447 1.677-.087l3.528-4.313c.436-.533 1.113-.506 1.505.062zM47.216 28a2.912 2.912 0 0 1 2.908 2.917 2.911 2.911 0 0 1-2.908 2.915 2.91 2.91 0 0 1-2.906-2.915A2.911 2.911 0 0 1 47.216 28zM82.243 32.332l9.174 13.515c.39.568.148 1.188-.54 1.188H65.722c-.688 0-.927-.617-.53-1.183l7.27-10.474c.396-.565 1.117-.666 1.602-.175l1.469 1.467c.485.491 1.239.447 1.677-.087l3.528-4.313c.436-.533 1.113-.506 1.505.062zM89.216 28a2.912 2.912 0 0 1 2.908 2.917 2.911 2.911 0 0 1-2.908 2.915 2.91 2.91 0 0 1-2.906-2.915A2.911 2.911 0 0 1 89.216 28zM124.243 32.332l9.174 13.515c.39.568.148 1.188-.54 1.188h-25.155c-.688 0-.927-.617-.53-1.183l7.27-10.474c.396-.565 1.117-.666 1.602-.175l1.469 1.467c.485.491 1.239.447 1.677-.087l3.528-4.313c.436-.533 1.113-.506 1.505.062zM131.216 28a2.912 2.912 0 0 1 2.908 2.917 2.911 2.911 0 0 1-2.908 2.915 2.91 2.91 0 0 1-2.906-2.915A2.911 2.911 0 0 1 131.216 28zM166.243 32.332l9.174 13.515c.39.568.148 1.188-.54 1.188h-25.155c-.688 0-.927-.617-.53-1.183l7.27-10.474c.396-.565 1.117-.666 1.602-.175l1.469 1.467c.485.491 1.239.447 1.677-.087l3.528-4.313c.436-.533 1.113-.506 1.505.062zM173.216 28a2.912 2.912 0 0 1 2.908 2.917 2.911 2.911 0 0 1-2.908 2.915 2.91 2.91 0 0 1-2.906-2.915A2.911 2.911 0 0 1 173.216 28z" opacity=".247"/><rect width="20" height="8" rx="1" opacity=".254" transform="translate(90 64)"/></g>
    </symbol>
    <symbol id="article-gallery-white" viewBox="0 0 200 92">
      <g fill="#FFF" fill-rule="evenodd"><path d="M60.007 11A4.003 4.003 0 0 1 64 15.002v61.996A4.003 4.003 0 0 1 60.007 81H13.993A4.003 4.003 0 0 1 10 76.998V15.002A4.003 4.003 0 0 1 13.993 11zm126 0A4.003 4.003 0 0 1 190 15.002v61.996A4.003 4.003 0 0 1 186.007 81h-46.014A4.003 4.003 0 0 1 136 76.998V15.002A4.003 4.003 0 0 1 139.993 11zm-63 0A4.003 4.003 0 0 1 127 15.002v61.996A4.003 4.003 0 0 1 123.007 81H76.993A4.003 4.003 0 0 1 73 76.998V15.002A4.003 4.003 0 0 1 76.993 11z" opacity=".247"/><path d="M53 68c.545 0 1 .447 1 .999v1.002A.996.996 0 0 1 53 71H21c-.545 0-1-.447-1-.999v-1.002A.996.996 0 0 1 21 68zm0-9c.545 0 1 .447 1 .999v1.002A.996.996 0 0 1 53 62H21c-.545 0-1-.447-1-.999v-1.002A.996.996 0 0 1 21 59zm0-9c.545 0 1 .447 1 .999v1.002A.996.996 0 0 1 53 53H21c-.545 0-1-.447-1-.999v-1.002A.996.996 0 0 1 21 50zm63 18c.545 0 1 .447 1 .999v1.002a.996.996 0 0 1-1 .999H84c-.545 0-1-.447-1-.999v-1.002A.996.996 0 0 1 84 68zm0-9c.545 0 1 .447 1 .999v1.002a.996.996 0 0 1-1 .999H84c-.545 0-1-.447-1-.999v-1.002A.996.996 0 0 1 84 59zm0-9c.545 0 1 .447 1 .999v1.002a.996.996 0 0 1-1 .999H84c-.545 0-1-.447-1-.999v-1.002A.996.996 0 0 1 84 50zm63 18c.545 0 1 .447 1 .999v1.002a.996.996 0 0 1-1 .999h-32c-.545 0-1-.447-1-.999v-1.002a.996.996 0 0 1 1-.999zm0-9c.545 0 1 .447 1 .999v1.002a.996.996 0 0 1-1 .999h-32c-.545 0-1-.447-1-.999v-1.002a.996.996 0 0 1 1-.999zm0-9c.545 0 1 .447 1 .999v1.002a.996.996 0 0 1-1 .999h-32c-.545 0-1-.447-1-.999v-1.002a.996.996 0 0 1 1-.999z" opacity=".248"/><path d="M40.89 22.777l10.048 14.911c.428.628.162 1.312-.591 1.312H22.791c-.754 0-1.015-.681-.581-1.306l7.964-11.557c.434-.624 1.223-.735 1.755-.193l1.61 1.619c.53.542 1.357.493 1.836-.096l3.865-4.759c.478-.588 1.22-.559 1.65.069zM48.784 18a3.215 3.215 0 1 1 0 6.43 3.215 3.215 0 0 1 0-6.43zm55.106 4.777l10.048 14.911c.428.628.162 1.312-.591 1.312H85.791c-.754 0-1.015-.681-.581-1.306l7.964-11.557c.434-.624 1.223-.735 1.755-.193l1.61 1.619c.53.542 1.357.493 1.836-.096l3.865-4.759c.478-.588 1.22-.559 1.65.069zM111.784 18a3.215 3.215 0 1 1 0 6.43 3.215 3.215 0 0 1 0-6.43zm55.106 4.777l10.048 14.911c.428.628.162 1.312-.591 1.312h-27.556c-.754 0-1.015-.681-.581-1.306l7.964-11.557c.434-.624 1.223-.735 1.755-.193l1.61 1.619c.53.542 1.357.493 1.836-.096l3.865-4.759c.478-.588 1.22-.559 1.65.069zM174.784 18a3.215 3.215 0 1 1 0 6.43 3.215 3.215 0 0 1 0-6.43z" opacity=".247"/></g>
    </symbol>
    <symbol id="article-gallery" viewBox="0 0 200 92">
      <g fill="#FFF" fill-rule="evenodd"><path d="M60.007 11A4.003 4.003 0 0 1 64 15.002v61.996A4.003 4.003 0 0 1 60.007 81H13.993A4.003 4.003 0 0 1 10 76.998V15.002A4.003 4.003 0 0 1 13.993 11zm126 0A4.003 4.003 0 0 1 190 15.002v61.996A4.003 4.003 0 0 1 186.007 81h-46.014A4.003 4.003 0 0 1 136 76.998V15.002A4.003 4.003 0 0 1 139.993 11zm-63 0A4.003 4.003 0 0 1 127 15.002v61.996A4.003 4.003 0 0 1 123.007 81H76.993A4.003 4.003 0 0 1 73 76.998V15.002A4.003 4.003 0 0 1 76.993 11z" opacity=".247"/><path d="M53 68c.545 0 1 .447 1 .999v1.002A.996.996 0 0 1 53 71H21c-.545 0-1-.447-1-.999v-1.002A.996.996 0 0 1 21 68zm0-9c.545 0 1 .447 1 .999v1.002A.996.996 0 0 1 53 62H21c-.545 0-1-.447-1-.999v-1.002A.996.996 0 0 1 21 59zm0-9c.545 0 1 .447 1 .999v1.002A.996.996 0 0 1 53 53H21c-.545 0-1-.447-1-.999v-1.002A.996.996 0 0 1 21 50zm63 18c.545 0 1 .447 1 .999v1.002a.996.996 0 0 1-1 .999H84c-.545 0-1-.447-1-.999v-1.002A.996.996 0 0 1 84 68zm0-9c.545 0 1 .447 1 .999v1.002a.996.996 0 0 1-1 .999H84c-.545 0-1-.447-1-.999v-1.002A.996.996 0 0 1 84 59zm0-9c.545 0 1 .447 1 .999v1.002a.996.996 0 0 1-1 .999H84c-.545 0-1-.447-1-.999v-1.002A.996.996 0 0 1 84 50zm63 18c.545 0 1 .447 1 .999v1.002a.996.996 0 0 1-1 .999h-32c-.545 0-1-.447-1-.999v-1.002a.996.996 0 0 1 1-.999zm0-9c.545 0 1 .447 1 .999v1.002a.996.996 0 0 1-1 .999h-32c-.545 0-1-.447-1-.999v-1.002a.996.996 0 0 1 1-.999zm0-9c.545 0 1 .447 1 .999v1.002a.996.996 0 0 1-1 .999h-32c-.545 0-1-.447-1-.999v-1.002a.996.996 0 0 1 1-.999z" opacity=".248"/><path d="M40.89 22.777l10.048 14.911c.428.628.162 1.312-.591 1.312H22.791c-.754 0-1.015-.681-.581-1.306l7.964-11.557c.434-.624 1.223-.735 1.755-.193l1.61 1.619c.53.542 1.357.493 1.836-.096l3.865-4.759c.478-.588 1.22-.559 1.65.069zM48.784 18a3.215 3.215 0 1 1 0 6.43 3.215 3.215 0 0 1 0-6.43zm55.106 4.777l10.048 14.911c.428.628.162 1.312-.591 1.312H85.791c-.754 0-1.015-.681-.581-1.306l7.964-11.557c.434-.624 1.223-.735 1.755-.193l1.61 1.619c.53.542 1.357.493 1.836-.096l3.865-4.759c.478-.588 1.22-.559 1.65.069zM111.784 18a3.215 3.215 0 1 1 0 6.43 3.215 3.215 0 0 1 0-6.43zm55.106 4.777l10.048 14.911c.428.628.162 1.312-.591 1.312h-27.556c-.754 0-1.015-.681-.581-1.306l7.964-11.557c.434-.624 1.223-.735 1.755-.193l1.61 1.619c.53.542 1.357.493 1.836-.096l3.865-4.759c.478-.588 1.22-.559 1.65.069zM174.784 18a3.215 3.215 0 1 1 0 6.43 3.215 3.215 0 0 1 0-6.43z" opacity=".247"/></g>
    </symbol>
    <symbol id="banners" viewBox="0 0 200 80">
      <g fill="#FFF" fill-rule="evenodd"><path d="M60.007 20A4.002 4.002 0 0 1 64 24v32a4 4 0 0 1-3.993 4H13.993A4.002 4.002 0 0 1 10 56V24a4 4 0 0 1 3.993-4zm126 0A4.002 4.002 0 0 1 190 24v32a4 4 0 0 1-3.993 4h-46.014A4.002 4.002 0 0 1 136 56V24a4 4 0 0 1 3.993-4zm-63 0A4.002 4.002 0 0 1 127 24v32a4 4 0 0 1-3.993 4H76.993A4.002 4.002 0 0 1 73 56V24a4 4 0 0 1 3.993-4z" opacity=".248"/><rect width="40" height="5" rx="1" opacity=".248" transform="translate(17 50)"/><rect width="40" height="5" rx="1" opacity=".248" transform="translate(80 50)"/><rect width="40" height="5" rx="1" opacity=".248" transform="translate(143 50)"/><path d="M40.37 30.322l8.71 13.491c.37.568.14 1.187-.513 1.187H24.685c-.653 0-.88-.616-.503-1.182l6.903-10.456c.375-.564 1.06-.665 1.52-.175L34 34.652c.46.49 1.176.446 1.592-.087l3.349-4.305c.414-.533 1.058-.506 1.43.062zM47.215 26C48.753 26 50 27.303 50 28.909c0 1.605-1.247 2.907-2.786 2.907-1.54 0-2.785-1.302-2.785-2.907 0-1.607 1.247-2.909 2.785-2.909zm56.155 4.322l8.71 13.491c.37.568.14 1.187-.513 1.187H87.685c-.653 0-.88-.616-.503-1.182l6.903-10.456c.375-.564 1.06-.665 1.52-.175L97 34.652c.46.49 1.176.446 1.592-.087l3.349-4.305c.414-.533 1.058-.506 1.43.062zM110.215 26c1.539 0 2.786 1.303 2.786 2.909 0 1.605-1.247 2.907-2.786 2.907-1.54 0-2.785-1.302-2.785-2.907 0-1.607 1.247-2.909 2.785-2.909zm56.155 4.322l8.71 13.491c.37.568.14 1.187-.513 1.187h-23.882c-.653 0-.88-.616-.503-1.182l6.903-10.456c.375-.564 1.06-.665 1.52-.175L160 34.652c.46.49 1.176.446 1.592-.087l3.349-4.305c.414-.533 1.058-.506 1.43.062zM173.215 26c1.539 0 2.786 1.303 2.786 2.909 0 1.605-1.247 2.907-2.786 2.907-1.54 0-2.785-1.302-2.785-2.907 0-1.607 1.247-2.909 2.785-2.909z" opacity=".253"/></g>
    </symbol>
    <symbol id="bio" viewBox="0 0 200 92">
      <g fill="#FFF" fill-rule="evenodd"><rect opacity=".251" x="10" y="11" width="180" height="70" rx="4"/><g opacity=".252" transform="translate(80 23)"><rect width="98" height="3" rx="1"/><path d="M1.002 9A.997.997 0 0 0 0 9.999v1.002A1 1 0 0 0 1.002 12h95.996A.997.997 0 0 0 98 11.001V9.999A1 1 0 0 0 96.998 9H1.002z"/></g><g opacity=".252" transform="translate(80 54)"><rect width="98" height="3" rx="1"/><path d="M1.002 9A.997.997 0 0 0 0 9.999v1.002A1 1 0 0 0 1.002 12h95.996A.997.997 0 0 0 98 11.001V9.999A1 1 0 0 0 96.998 9H1.002z"/></g><rect opacity=".249" x="22" y="23" width="41" height="30" rx="4"/><circle opacity=".257" cx="26.5" cy="62.5" r="4.5"/><circle opacity=".257" cx="58.5" cy="62.5" r="4.5"/><circle opacity=".257" cx="42.5" cy="62.5" r="4.5"/></g>
    </symbol>
    <symbol id="calendar" viewBox="0 0 200 92">
      <g fill="#FFF" fill-rule="evenodd"><path d="M43.005 12A3.998 3.998 0 0 1 47 16.007v51.986A4.002 4.002 0 0 1 43.005 72h-29.01A3.998 3.998 0 0 1 10 67.993V16.007A4.002 4.002 0 0 1 13.995 12zm48 0A3.998 3.998 0 0 1 95 16.007v51.986A4.002 4.002 0 0 1 91.005 72h-29.01A3.998 3.998 0 0 1 58 67.993V16.007A4.002 4.002 0 0 1 61.995 12zm47 0A3.998 3.998 0 0 1 142 16.007v51.986A4.002 4.002 0 0 1 138.005 72h-29.01A3.998 3.998 0 0 1 105 67.993V16.007A4.002 4.002 0 0 1 108.995 12zm48 0A3.998 3.998 0 0 1 190 16.007v51.986A4.002 4.002 0 0 1 186.005 72h-29.01A3.998 3.998 0 0 1 153 67.993V16.007A4.002 4.002 0 0 1 156.995 12zM89.5 79a2.5 2.5 0 1 1 0 5 2.5 2.5 0 0 1 0-5zm10 0a2.5 2.5 0 1 1 0 5 2.5 2.5 0 0 1 0-5zm10 0a2.5 2.5 0 1 1 0 5 2.5 2.5 0 0 1 0-5z" opacity=".246"/><path d="M41.007 60c.547 0 .993.447.993.999v1.002a.993.993 0 0 1-.993.999H15.993a.997.997 0 0 1-.993-.999v-1.002c0-.556.445-.999.993-.999zm0-9c.547 0 .993.447.993.999v1.002a.993.993 0 0 1-.993.999H15.993a.997.997 0 0 1-.993-.999v-1.002c0-.556.445-.999.993-.999zm0-9c.547 0 .993.447.993.999v1.002a.993.993 0 0 1-.993.999H15.993a.997.997 0 0 1-.993-.999v-1.002c0-.556.445-.999.993-.999z" opacity=".25"/><text opacity=".249" font-family="RBNo3.1-Bold, RBNo3.1" font-size="15" font-weight="bold" transform="translate(15 19)"><tspan x="8.745" y="14">3</tspan></text><path d="M89.007 60c.547 0 .993.447.993.999v1.002a.993.993 0 0 1-.993.999H63.993a.997.997 0 0 1-.993-.999v-1.002c0-.556.445-.999.993-.999zm0-9c.547 0 .993.447.993.999v1.002a.993.993 0 0 1-.993.999H63.993a.997.997 0 0 1-.993-.999v-1.002c0-.556.445-.999.993-.999zm0-9c.547 0 .993.447.993.999v1.002a.993.993 0 0 1-.993.999H63.993a.997.997 0 0 1-.993-.999v-1.002c0-.556.445-.999.993-.999z" opacity=".252"/><text opacity=".252" font-family="RBNo3.1-Bold, RBNo3.1" font-size="15" font-weight="bold" transform="translate(63 19)"><tspan x="8.422" y="14">6</tspan></text><g opacity=".248"><path d="M136.007 60c.547 0 .993.447.993.999v1.002a.993.993 0 0 1-.993.999h-25.014a.997.997 0 0 1-.993-.999v-1.002c0-.556.445-.999.993-.999zm0-9c.547 0 .993.447.993.999v1.002a.993.993 0 0 1-.993.999h-25.014a.997.997 0 0 1-.993-.999v-1.002c0-.556.445-.999.993-.999zm0-9c.547 0 .993.447.993.999v1.002a.993.993 0 0 1-.993.999h-25.014a.997.997 0 0 1-.993-.999v-1.002c0-.556.445-.999.993-.999z"/><text font-family="RBNo3.1-Bold, RBNo3.1" font-size="15" font-weight="bold" transform="translate(110 19)"><tspan x="5.025" y="14">13</tspan></text></g><path d="M184.007 60c.547 0 .993.447.993.999v1.002a.993.993 0 0 1-.993.999h-25.014a.997.997 0 0 1-.993-.999v-1.002c0-.556.445-.999.993-.999zm0-9c.547 0 .993.447.993.999v1.002a.993.993 0 0 1-.993.999h-25.014a.997.997 0 0 1-.993-.999v-1.002c0-.556.445-.999.993-.999zm0-9c.547 0 .993.447.993.999v1.002a.993.993 0 0 1-.993.999h-25.014a.997.997 0 0 1-.993-.999v-1.002c0-.556.445-.999.993-.999z" opacity=".252"/><text opacity=".253" font-family="RBNo3.1-Bold, RBNo3.1" font-size="15" font-weight="bold" transform="translate(158 19)"><tspan x="5.13" y="14">21</tspan></text></g>
    </symbol>
    <symbol id="cart-overlay" viewBox="0 0 200 92">
      <g fill="#FFF" fill-rule="evenodd"><path d="M113.995 11A4.004 4.004 0 0 0 110 15.002v61.996A3.995 3.995 0 0 0 113.995 81h72.01c2.207 0 3.995-1.8 3.995-4.002V15.002A3.995 3.995 0 0 0 186.005 11h-72.01z" opacity=".249"/><path d="M135.482 22.64L143.186 34c.328.479.124 1-.453 1h-21.127c-.577 0-.778-.52-.445-.995l6.106-8.806c.333-.474.938-.56 1.345-.147l1.234 1.234c.407.413 1.04.375 1.408-.073l2.963-3.626c.367-.448.936-.426 1.265.052zm6.053-3.64A2.457 2.457 0 0 1 144 21.45a2.456 2.456 0 0 1-2.465 2.448 2.456 2.456 0 0 1-2.464-2.448 2.457 2.457 0 0 1 2.464-2.45z" opacity=".25"/><path d="M179.008 30c.537 0 .992.447.992.999v1.002a.992.992 0 0 1-.992.999h-18.016c-.537 0-.992-.447-.992-.999v-1.002c0-.556.444-.999.992-.999zm0-9c.537 0 .992.447.992.999v1.002a.992.992 0 0 1-.992.999h-18.016c-.537 0-.992-.447-.992-.999v-1.002c0-.556.444-.999.992-.999z" opacity=".251"/><path d="M135.482 46.64L143.186 58c.328.479.124 1-.453 1h-21.127c-.577 0-.778-.52-.445-.995l6.106-8.806c.333-.474.938-.56 1.345-.147l1.234 1.234c.407.413 1.04.375 1.408-.073l2.963-3.626c.367-.448.936-.426 1.265.052zm6.053-3.64A2.457 2.457 0 0 1 144 45.45a2.456 2.456 0 0 1-2.465 2.448 2.456 2.456 0 0 1-2.464-2.448 2.457 2.457 0 0 1 2.464-2.45z" opacity=".245"/><path d="M179.008 54c.537 0 .992.447.992.999v1.002a.992.992 0 0 1-.992.999h-18.016c-.537 0-.992-.447-.992-.999v-1.002c0-.556.444-.999.992-.999zm0-9c.537 0 .992.447.992.999v1.002a.992.992 0 0 1-.992.999h-18.016c-.537 0-.992-.447-.992-.999v-1.002c0-.556.444-.999.992-.999z" opacity=".252"/><rect opacity=".246" x="144" y="66" width="36" height="5" rx="1"/></g>
    </symbol>
    <symbol id="checkout" viewBox="0 0 200 92">
      <g fill="#FFF" fill-rule="evenodd"><rect opacity=".251" x="10" y="11" width="180" height="70" rx="4"/><path d="M131.482 21.64L139.186 33c.328.479.124 1-.453 1h-21.127c-.577 0-.778-.52-.445-.995l6.106-8.806c.333-.474.938-.56 1.345-.147l1.234 1.234c.407.413 1.04.375 1.408-.073l2.963-3.626c.367-.448.936-.426 1.265.052zm6.053-3.64A2.457 2.457 0 0 1 140 20.45a2.456 2.456 0 0 1-2.465 2.448 2.456 2.456 0 0 1-2.464-2.448 2.457 2.457 0 0 1 2.464-2.45z" opacity=".249"/><path d="M179.002 30a1 1 0 0 1 .998.999v1.002a.996.996 0 0 1-.998.999h-28.004a.999.999 0 0 1-.998-.999v-1.002c0-.556.447-.999.998-.999zm0-9a1 1 0 0 1 .998.999v1.002a.996.996 0 0 1-.998.999h-28.004a.999.999 0 0 1-.998-.999v-1.002c0-.556.447-.999.998-.999zm-47.52 24.64L139.186 57c.328.479.124 1-.453 1h-21.127c-.577 0-.778-.52-.445-.995l6.106-8.806c.333-.474.938-.56 1.345-.147l1.234 1.234c.407.413 1.04.375 1.408-.073l2.963-3.626c.367-.448.936-.426 1.265.052zm6.053-3.64A2.457 2.457 0 0 1 140 44.45a2.456 2.456 0 0 1-2.465 2.448 2.456 2.456 0 0 1-2.464-2.448 2.457 2.457 0 0 1 2.464-2.45z" opacity=".25"/><path d="M179.002 54a1 1 0 0 1 .998.999v1.002a.996.996 0 0 1-.998.999h-28.004a.999.999 0 0 1-.998-.999v-1.002c0-.556.447-.999.998-.999zm0-9a1 1 0 0 1 .998.999v1.002a.996.996 0 0 1-.998.999h-28.004a.999.999 0 0 1-.998-.999v-1.002c0-.556.447-.999.998-.999z" opacity=".247"/><rect opacity=".25" x="144" y="66" width="36" height="5" rx="1"/><path d="M20 58.003c0-.554.447-1.003 1.003-1.003h67.994A.996.996 0 0 1 90 58.003v4.994c0 .554-.447 1.003-1.003 1.003H21.003A.996.996 0 0 1 20 62.997v-4.994z" opacity=".245"/><path d="M22.995 59a.994.994 0 0 0-.995.999v1.002c0 .552.455.999.995.999h23.01c.55 0 .995-.443.995-.999v-1.002c0-.552-.455-.999-.995-.999h-23.01z" opacity=".25"/><path d="M20 46.003c0-.554.447-1.003 1.003-1.003h67.994A.996.996 0 0 1 90 46.003v4.994c0 .554-.447 1.003-1.003 1.003H21.003A.996.996 0 0 1 20 50.997v-4.994z" opacity=".245"/><rect opacity=".25" x="22" y="47" width="22" height="3" rx="1"/><path d="M20 34.003c0-.554.447-1.003 1.003-1.003h67.994A.996.996 0 0 1 90 34.003v4.994c0 .554-.447 1.003-1.003 1.003H21.003A.996.996 0 0 1 20 38.997v-4.994z" opacity=".245"/><rect opacity=".25" x="22" y="35" width="31" height="3" rx="1"/><path d="M20 22.003c0-.554.447-1.003 1.003-1.003h67.994A.996.996 0 0 1 90 22.003v4.994c0 .554-.447 1.003-1.003 1.003H21.003A.996.996 0 0 1 20 26.997v-4.994z" opacity=".245"/><rect opacity=".25" x="22" y="23" width="35" height="3" rx="1"/></g>
    </symbol>
    <symbol id="comparison" viewBox="0 0 200 92">
      <g fill="none" fill-rule="evenodd"><path fill="#333" d="M0 0h200v92H0z"/><rect fill="#FFF" opacity=".252" x="10" y="11" width="180" height="70" rx="4"/><path d="M62.998 68c.552 0 1.002.447 1.002.999v1.002a.997.997 0 0 1-1.002.999H21.002A1.001 1.001 0 0 1 20 70.001v-1.002A.997.997 0 0 1 21.002 68zm0-11c.552 0 1.002.447 1.002.999v1.002a.997.997 0 0 1-1.002.999H21.002A1.001 1.001 0 0 1 20 59.001v-1.002A.997.997 0 0 1 21.002 57zm0-11c.552 0 1.002.447 1.002.999v1.002a.997.997 0 0 1-1.002.999H21.002A1.001 1.001 0 0 1 20 48.001v-1.002A.997.997 0 0 1 21.002 46zm31.245-23.668l9.174 13.515c.39.568.148 1.188-.54 1.188H77.722c-.688 0-.927-.617-.53-1.183l7.27-10.474c.396-.565 1.117-.666 1.602-.175l1.469 1.467c.485.491 1.239.447 1.677-.087l3.528-4.313c.436-.533 1.113-.506 1.505.062zM101.216 18a2.912 2.912 0 0 1 2.908 2.917 2.911 2.911 0 0 1-2.908 2.915 2.91 2.91 0 0 1-2.906-2.915A2.911 2.911 0 0 1 101.216 18zm31.027 4.332l9.174 13.515c.39.568.148 1.188-.54 1.188h-25.155c-.688 0-.927-.617-.53-1.183l7.27-10.474c.396-.565 1.117-.666 1.602-.175l1.469 1.467c.485.491 1.239.447 1.677-.087l3.528-4.313c.436-.533 1.113-.506 1.505.062zM139.216 18a2.912 2.912 0 0 1 2.908 2.917 2.911 2.911 0 0 1-2.908 2.915 2.91 2.91 0 0 1-2.906-2.915A2.911 2.911 0 0 1 139.216 18zm31.027 4.332l9.174 13.515c.39.568.148 1.188-.54 1.188h-25.155c-.688 0-.927-.617-.53-1.183l7.27-10.474c.396-.565 1.117-.666 1.602-.175l1.469 1.467c.485.491 1.239.447 1.677-.087l3.528-4.313c.436-.533 1.113-.506 1.505.062zM177.216 18a2.912 2.912 0 0 1 2.908 2.917 2.911 2.911 0 0 1-2.908 2.915 2.91 2.91 0 0 1-2.906-2.915A2.911 2.911 0 0 1 177.216 18z" fill="#FFF" opacity=".247"/></g>
    </symbol>
    <symbol id="content" viewBox="0 0 200 92">
      <g fill="#FFF" fill-rule="evenodd"><rect opacity=".246" x="10" y="11" width="180" height="70" rx="4"/><path d="M60.186 29.369l13.399 19.882c.57.837.216 1.749-.789 1.749H36.054c-1.004 0-1.353-.908-.774-1.741l10.62-15.41c.577-.831 1.63-.98 2.338-.257l2.146 2.159c.708.722 1.81.656 2.45-.129l5.152-6.344c.638-.785 1.627-.746 2.2.091zM70.714 23a4.286 4.286 0 1 1 0 8.573 4.286 4.286 0 0 1 0-8.573zm18.283 45a1 1 0 0 1 1.003.999v1.002c0 .556-.45.999-1.003.999H21.003A1 1 0 0 1 20 70.001v-1.002c0-.556.45-.999 1.003-.999zm0-9a1 1 0 0 1 1.003.999v1.002c0 .556-.45.999-1.003.999H21.003A1 1 0 0 1 20 61.001v-1.002c0-.556.45-.999 1.003-.999z" opacity=".247"/><path d="M178.997 68a1 1 0 0 1 1.003.999v1.002c0 .556-.45.999-1.003.999h-67.994a1 1 0 0 1-1.003-.999v-1.002c0-.556.45-.999 1.003-.999zm0-9a1 1 0 0 1 1.003.999v1.002c0 .556-.45.999-1.003.999h-67.994a1 1 0 0 1-1.003-.999v-1.002c0-.556.45-.999 1.003-.999zm0-9a1 1 0 0 1 1.003.999v1.002c0 .556-.45.999-1.003.999h-67.994a1 1 0 0 1-1.003-.999v-1.002c0-.556.45-.999 1.003-.999zm0-9a1 1 0 0 1 1.003.999v1.002c0 .556-.45.999-1.003.999h-67.994a1 1 0 0 1-1.003-.999v-1.002c0-.556.45-.999 1.003-.999zm0-9a1 1 0 0 1 1.003.999v1.002c0 .556-.45.999-1.003.999h-67.994a1 1 0 0 1-1.003-.999v-1.002c0-.556.45-.999 1.003-.999zm0-9a1 1 0 0 1 1.003.999v1.002c0 .556-.45.999-1.003.999h-67.994a1 1 0 0 1-1.003-.999v-1.002c0-.556.45-.999 1.003-.999z" opacity=".248"/></g>
    </symbol>
    <symbol id="copyright" viewBox="0 0 200 92">
      <g fill="#FFF" fill-rule="evenodd"><rect opacity=".251" x="10" y="11" width="180" height="70" rx="4"/><rect width="14" height="5" rx="1" opacity=".254" transform="translate(96 52)"/><g opacity=".252" transform="translate(20 25)"><rect width="160" height="3" rx="1"/><path d="M1 9c-.552 0-1 .443-1 .999v1.002C0 11.553.445 12 1 12h158c.552 0 1-.443 1-.999V9.999A.998.998 0 0 0 159 9H1z"/></g><g opacity=".252" transform="translate(20 48)"><rect width="67" height="3" rx="1"/><path d="M1 9c-.553 0-1 .443-1 .999v1.002C0 11.553.446 12 1 12h65c.553 0 1-.443 1-.999V9.999A.998.998 0 0 0 66 9H1z"/></g><rect width="14" height="5" rx="1" opacity=".254" transform="translate(129 52)"/><rect width="14" height="5" rx="1" opacity=".254" transform="translate(162 52)"/></g>
    </symbol>
    <symbol id="custom" viewBox="0 0 200 64">
      <g fill="#FFF" fill-rule="evenodd"><rect width="180" height="24" rx="4" opacity=".248" transform="translate(10 20)"/><text opacity=".246" font-family="RBNo3.1-Bold, RBNo3.1" font-size="11" font-weight="bold"><tspan x="29.93" y="36.531">&lt;HTML&gt; .CSS JS();</tspan></text></g>
    </symbol>
    <symbol id="ecommerce" viewBox="0 0 200 110">
      <g fill="#FFF" fill-rule="evenodd"><path d="M91 20c2.205 0 4 1.792 4 4.002v61.996A4.007 4.007 0 0 1 91 90H14c-2.205 0-4-1.792-4-4.002V24.002A4.007 4.007 0 0 1 14 20zm95 0c2.205 0 4 1.792 4 4.002v61.996A4.007 4.007 0 0 1 186 90h-77c-2.205 0-4-1.792-4-4.002V24.002A4.007 4.007 0 0 1 109 20z" opacity=".247"/><path d="M44.5 75a2.5 2.5 0 1 1 0 5 2.5 2.5 0 0 1 0-5zm10 0a2.5 2.5 0 1 1 0 5 2.5 2.5 0 0 1 0-5zm10 0a2.5 2.5 0 1 1 0 5 2.5 2.5 0 0 1 0-5z" opacity=".248"/><path d="M59.852 42.734l16.414 24.142c.7 1.016.265 2.124-.966 2.124H30.291c-1.23 0-1.658-1.103-.948-2.115l13.009-18.711c.708-1.01 1.997-1.19 2.865-.313l2.628 2.622c.868.877 2.218.798 3.001-.156l6.312-7.704c.781-.953 1.993-.905 2.694.11zM72.75 35c2.9 0 5.25 2.33 5.25 5.205 0 2.873-2.35 5.203-5.25 5.203-2.901 0-5.25-2.33-5.25-5.203C67.5 37.33 69.85 35 72.75 35z" opacity=".254"/><path d="M181.997 57a1 1 0 0 1 1.003.999v1.002c0 .556-.45.999-1.003.999h-67.994a1 1 0 0 1-1.003-.999v-1.002c0-.556.45-.999 1.003-.999zm0-9a1 1 0 0 1 1.003.999v1.002c0 .556-.45.999-1.003.999h-67.994a1 1 0 0 1-1.003-.999v-1.002c0-.556.45-.999 1.003-.999zm0-9a1 1 0 0 1 1.003.999v1.002c0 .556-.45.999-1.003.999h-67.994a1 1 0 0 1-1.003-.999v-1.002c0-.556.45-.999 1.003-.999zm0-9a1 1 0 0 1 1.003.999v1.002c0 .556-.45.999-1.003.999h-67.994a1 1 0 0 1-1.003-.999v-1.002c0-.556.45-.999 1.003-.999z" opacity=".245"/><rect opacity=".247" x="148" y="78" width="35.5" height="5" rx="1"/></g>
    </symbol>
    <symbol id="faqs" viewBox="0 0 200 92">
      <g fill="#FFF" fill-rule="evenodd"><rect opacity=".244" x="10" y="11" width="180" height="70" rx="4"/><path d="M89.009 68c.543 0 .991.447.991.999v1.002a.992.992 0 0 1-.991.999H30.99a.998.998 0 0 1-.991-.999v-1.002c0-.556.444-.999.991-.999zm0-9c.543 0 .991.447.991.999v1.002a.992.992 0 0 1-.991.999H30.99a.998.998 0 0 1-.991-.999v-1.002c0-.556.444-.999.991-.999zm0-9c.543 0 .991.447.991.999v1.002a.992.992 0 0 1-.991.999H30.99a.998.998 0 0 1-.991-.999v-1.002c0-.556.444-.999.991-.999zm0-9c.543 0 .991.447.991.999v1.002a.992.992 0 0 1-.991.999H30.99a.998.998 0 0 1-.991-.999v-1.002c0-.556.444-.999.991-.999zm0-9c.543 0 .991.447.991.999v1.002a.992.992 0 0 1-.991.999H30.99a.998.998 0 0 1-.991-.999v-1.002c0-.556.444-.999.991-.999zm0-9c.543 0 .991.447.991.999v1.002a.992.992 0 0 1-.991.999H30.99a.998.998 0 0 1-.991-.999v-1.002c0-.556.444-.999.991-.999z" opacity=".25"/><path d="M179.009 68c.543 0 .991.447.991.999v1.002a.992.992 0 0 1-.991.999H120.99a.998.998 0 0 1-.991-.999v-1.002c0-.556.444-.999.991-.999zm0-9c.543 0 .991.447.991.999v1.002a.992.992 0 0 1-.991.999H120.99a.998.998 0 0 1-.991-.999v-1.002c0-.556.444-.999.991-.999zm0-9c.543 0 .991.447.991.999v1.002a.992.992 0 0 1-.991.999H120.99a.998.998 0 0 1-.991-.999v-1.002c0-.556.444-.999.991-.999zm0-9c.543 0 .991.447.991.999v1.002a.992.992 0 0 1-.991.999H120.99a.998.998 0 0 1-.991-.999v-1.002c0-.556.444-.999.991-.999zm0-9c.543 0 .991.447.991.999v1.002a.992.992 0 0 1-.991.999H120.99a.998.998 0 0 1-.991-.999v-1.002c0-.556.444-.999.991-.999zm0-9c.543 0 .991.447.991.999v1.002a.992.992 0 0 1-.991.999H120.99a.998.998 0 0 1-.991-.999v-1.002c0-.556.444-.999.991-.999z" opacity=".254"/><text opacity=".252" font-family="RBNo3.1-Bold, RBNo3.1" font-size="11" font-weight="bold"><tspan x="20.425" y="29">?</tspan></text><text opacity=".252" font-family="RBNo3.1-Bold, RBNo3.1" font-size="11" font-weight="bold"><tspan x="110.425" y="29">?</tspan></text><text opacity=".252" font-family="RBNo3.1-Bold, RBNo3.1" font-size="11" font-weight="bold"><tspan x="20.425" y="47">?</tspan></text><text opacity=".252" font-family="RBNo3.1-Bold, RBNo3.1" font-size="11" font-weight="bold"><tspan x="110.425" y="47">?</tspan></text><text opacity=".252" font-family="RBNo3.1-Bold, RBNo3.1" font-size="11" font-weight="bold"><tspan x="20.425" y="65">?</tspan></text><text opacity=".252" font-family="RBNo3.1-Bold, RBNo3.1" font-size="11" font-weight="bold"><tspan x="110.425" y="65">?</tspan></text></g>
    </symbol>
    <symbol id="feature-box" viewBox="0 0 200 92">
      <g fill="#FFF" fill-rule="evenodd"><path d="M60.007 18A4.002 4.002 0 0 1 64 22v32a4 4 0 0 1-3.993 4H13.993A4.002 4.002 0 0 1 10 54V22a4 4 0 0 1 3.993-4zm126 0A4.002 4.002 0 0 1 190 22v32a4 4 0 0 1-3.993 4h-46.014A4.002 4.002 0 0 1 136 54V22a4 4 0 0 1 3.993-4zm-63 0A4.002 4.002 0 0 1 127 22v32a4 4 0 0 1-3.993 4H76.993A4.002 4.002 0 0 1 73 54V22a4 4 0 0 1 3.993-4z" opacity=".247"/><path d="M40.89 32.777l10.048 14.911c.428.628.162 1.312-.591 1.312H22.791c-.754 0-1.015-.681-.581-1.306l7.964-11.557c.434-.624 1.223-.735 1.755-.193l1.61 1.619c.53.542 1.357.493 1.836-.096l3.865-4.759c.478-.588 1.22-.559 1.65.069zM48.784 28a3.215 3.215 0 1 1 0 6.43 3.215 3.215 0 0 1 0-6.43zM103.89 32.777l10.048 14.911c.428.628.162 1.312-.591 1.312H85.791c-.754 0-1.015-.681-.581-1.306l7.964-11.557c.434-.624 1.223-.735 1.755-.193l1.61 1.619c.53.542 1.357.493 1.836-.096l3.865-4.759c.478-.588 1.22-.559 1.65.069zM111.784 28a3.215 3.215 0 1 1 0 6.43 3.215 3.215 0 0 1 0-6.43zM166.89 32.777l10.048 14.911c.428.628.162 1.312-.591 1.312h-27.556c-.754 0-1.015-.681-.581-1.306l7.964-11.557c.434-.624 1.223-.735 1.755-.193l1.61 1.619c.53.542 1.357.493 1.836-.096l3.865-4.759c.478-.588 1.22-.559 1.65.069zM174.784 28a3.215 3.215 0 1 1 0 6.43 3.215 3.215 0 0 1 0-6.43zM13 67c-1.657 0-3 1.339-3 3.002v1.996A2.995 2.995 0 0 0 13 75h48c1.657 0 3-1.339 3-3.002v-1.996A2.995 2.995 0 0 0 61 67H13zm126 0c-1.657 0-3 1.339-3 3.002v1.996A2.995 2.995 0 0 0 139 75h48c1.657 0 3-1.339 3-3.002v-1.996A2.995 2.995 0 0 0 187 67h-48zm-63 0c-1.657 0-3 1.339-3 3.002v1.996A2.995 2.995 0 0 0 76 75h48c1.657 0 3-1.339 3-3.002v-1.996A2.995 2.995 0 0 0 124 67H76z" opacity=".247"/></g>
    </symbol>
    <symbol id="footer" viewBox="0 0 200 92">
      <g fill="#FFF" fill-rule="evenodd"><rect opacity=".253" x="10" y="11" width="180" height="70" rx="4"/><path d="M23.007 19A3.001 3.001 0 0 0 20 22.002v1.996A3.002 3.002 0 0 0 23.007 27h33.986A3.001 3.001 0 0 0 60 23.998v-1.996A3.002 3.002 0 0 0 56.993 19H23.007zm120 0A3.001 3.001 0 0 0 140 22.002v1.996A3.002 3.002 0 0 0 143.007 27h33.986A3.001 3.001 0 0 0 180 23.998v-1.996A3.002 3.002 0 0 0 176.993 19h-33.986zm-60 0A3.001 3.001 0 0 0 80 22.002v1.996A3.002 3.002 0 0 0 83.007 27h33.986A3.001 3.001 0 0 0 120 23.998v-1.996A3.002 3.002 0 0 0 116.993 19H83.007z" opacity=".247"/><path d="M58.991 70c.56 0 1.009.447 1.009.999v1.002c0 .556-.452.999-1.009.999H21.01c-.56 0-1.009-.447-1.009-.999v-1.002c0-.556.452-.999 1.009-.999zm0-9c.56 0 1.009.447 1.009.999v1.002c0 .556-.452.999-1.009.999H21.01c-.56 0-1.009-.447-1.009-.999v-1.002c0-.556.452-.999 1.009-.999zm0-9c.56 0 1.009.447 1.009.999v1.002c0 .556-.452.999-1.009.999H21.01c-.56 0-1.009-.447-1.009-.999v-1.002c0-.556.452-.999 1.009-.999zm0-9c.56 0 1.009.447 1.009.999v1.002c0 .556-.452.999-1.009.999H21.01c-.56 0-1.009-.447-1.009-.999v-1.002c0-.556.452-.999 1.009-.999zm0-9c.56 0 1.009.447 1.009.999v1.002c0 .556-.452.999-1.009.999H21.01c-.56 0-1.009-.447-1.009-.999v-1.002c0-.556.452-.999 1.009-.999zm60 36c.56 0 1.009.447 1.009.999v1.002c0 .556-.452.999-1.009.999H81.01c-.56 0-1.009-.447-1.009-.999v-1.002c0-.556.452-.999 1.009-.999zm0-9c.56 0 1.009.447 1.009.999v1.002c0 .556-.452.999-1.009.999H81.01c-.56 0-1.009-.447-1.009-.999v-1.002c0-.556.452-.999 1.009-.999zm0-9c.56 0 1.009.447 1.009.999v1.002c0 .556-.452.999-1.009.999H81.01c-.56 0-1.009-.447-1.009-.999v-1.002c0-.556.452-.999 1.009-.999zm0-9c.56 0 1.009.447 1.009.999v1.002c0 .556-.452.999-1.009.999H81.01c-.56 0-1.009-.447-1.009-.999v-1.002c0-.556.452-.999 1.009-.999zm0-9c.56 0 1.009.447 1.009.999v1.002c0 .556-.452.999-1.009.999H81.01c-.56 0-1.009-.447-1.009-.999v-1.002c0-.556.452-.999 1.009-.999zm60 36c.56 0 1.009.447 1.009.999v1.002c0 .556-.452.999-1.009.999H141.01c-.56 0-1.009-.447-1.009-.999v-1.002c0-.556.452-.999 1.009-.999zm0-9c.56 0 1.009.447 1.009.999v1.002c0 .556-.452.999-1.009.999H141.01c-.56 0-1.009-.447-1.009-.999v-1.002c0-.556.452-.999 1.009-.999zm0-9c.56 0 1.009.447 1.009.999v1.002c0 .556-.452.999-1.009.999H141.01c-.56 0-1.009-.447-1.009-.999v-1.002c0-.556.452-.999 1.009-.999zm0-9c.56 0 1.009.447 1.009.999v1.002c0 .556-.452.999-1.009.999H141.01c-.56 0-1.009-.447-1.009-.999v-1.002c0-.556.452-.999 1.009-.999zm0-9c.56 0 1.009.447 1.009.999v1.002c0 .556-.452.999-1.009.999H141.01c-.56 0-1.009-.447-1.009-.999v-1.002c0-.556.452-.999 1.009-.999z" opacity=".251"/></g>
    </symbol>
    <symbol id="form" viewBox="0 0 200 92">
      <g fill="#FFF" fill-rule="evenodd"><rect opacity=".252" x="10" y="11" width="180" height="70" rx="4"/><rect opacity=".249" x="20" y="19" width="45" height="5" rx="1"/><path d="M20 68.003c0-.554.447-1.003 1.003-1.003h67.994A.996.996 0 0 1 90 68.003v4.994c0 .554-.447 1.003-1.003 1.003H21.003A.996.996 0 0 1 20 72.997v-4.994z" opacity=".244"/><path d="M22.745 69a.994.994 0 0 0-.995.999v1.002c0 .552.44.999.995.999H46.13c.55 0 .995-.443.995-.999v-1.002A.994.994 0 0 0 46.13 69H22.745z" opacity=".248"/><rect opacity=".256" x="145" y="67" width="35" height="7" rx="1"/><g transform="translate(20 55)"><path d="M0 1.003C0 .449.447 0 1.003 0h67.994A.996.996 0 0 1 70 1.003v4.994C70 6.551 69.553 7 68.997 7H1.003A.996.996 0 0 1 0 5.997V1.003z" opacity=".255"/><rect opacity=".25" x="1.75" y="2" width="21.875" height="3" rx="1"/></g><g transform="translate(110 55)"><rect opacity=".25" width="7" height="7" rx="1"/><rect opacity=".252" x="11" y="2" width="59" height="3" rx="1"/></g><path d="M20 44.003c0-.554.447-1.003 1.003-1.003h67.994A.996.996 0 0 1 90 44.003v4.994c0 .554-.447 1.003-1.003 1.003H21.003A.996.996 0 0 1 20 48.997v-4.994z" opacity=".257"/><path d="M22.752 45a.997.997 0 0 0-1.002.999v1.002c0 .552.457.999 1.002.999h28.621a.997.997 0 0 0 1.002-.999v-1.002c0-.552-.457-.999-1.002-.999H22.752z" opacity=".254"/><g transform="translate(20 31)"><path d="M0 1.003C0 .449.447 0 1.003 0h67.994A.996.996 0 0 1 70 1.003v4.994C70 6.551 69.553 7 68.997 7H1.003A.996.996 0 0 1 0 5.997V1.003z" opacity=".257"/><rect opacity=".251" x="1.75" y="2" width="35" height="3" rx="1"/></g><g transform="translate(110 31)"><rect opacity=".251" width="70" height="19" rx="1"/><rect opacity=".253" x="1.75" y="2" width="35" height="3" rx="1"/></g></g>
    </symbol>
    <symbol id="header" viewBox="0 0 200 92">
      <g fill="#FFF" fill-rule="evenodd"><rect opacity=".25" x="10" y="11" width="180" height="70" rx="4"/><path d="M107.112 26.189l17.083 25.562c.728 1.076.276 2.249-1.005 2.249H76.344c-1.28 0-1.725-1.168-.987-2.24l13.54-19.811c.737-1.069 2.079-1.26 2.982-.331l2.736 2.776c.903.929 2.307.844 3.123-.166l6.57-8.157c.812-1.008 2.074-.958 2.804.118zM120.535 18c3.019 0 5.465 2.468 5.465 5.511s-2.446 5.51-5.465 5.51c-3.019 0-5.464-2.467-5.464-5.51 0-3.044 2.446-5.511 5.464-5.511zM179 71c.555 0 1 .447 1 .999v1.002a.997.997 0 0 1-1 .999H21c-.555 0-1-.447-1-.999v-1.002A.997.997 0 0 1 21 71zm0-9c.555 0 1 .447 1 .999v1.002a.997.997 0 0 1-1 .999H21c-.555 0-1-.447-1-.999v-1.002A.997.997 0 0 1 21 62zm-.003-16A1 1 0 0 1 180 47v3a1 1 0 0 1-1.003 1h-42.994A1 1 0 0 1 135 50v-3a1 1 0 0 1 1.003-1z" opacity=".252"/></g>
    </symbol>
    <symbol id="headline" viewBox="0 0 200 65">
      <g fill="none" fill-rule="evenodd"><rect fill="#E4E4E4" opacity=".247" x="10" y="20" width="180" height="25" rx="4"/><path d="M41.001 30A.998.998 0 0 0 40 31v3a1 1 0 0 0 1.001 1H159a.998.998 0 0 0 1-1v-3a1 1 0 0 0-1.001-1H41z" fill="#FFF" opacity=".247"/></g>
    </symbol>
    <symbol id="hero" viewBox="0 0 200 92">
      <g fill="#FFF" fill-rule="evenodd"><rect width="180" height="70" rx="4" opacity=".247" transform="translate(10 11)"/><path d="M171 55a9 9 0 1 1 0 18 9 9 0 0 1 0-18zm-3.008 4.767v8.473c0 .67.537.943 1.083.605l6.48-4.165c.694-.401.44-1.047.012-1.292l-6.492-4.227c-.546-.338-1.083-.065-1.083.606z" opacity=".252"/><path d="M79.075 32.146l23.448 34.793c.999 1.465.378 3.061-1.38 3.061H36.845c-1.758 0-2.369-1.59-1.355-3.048l18.584-26.966c1.011-1.455 2.853-1.715 4.093-.45l3.755 3.778c1.24 1.264 3.168 1.15 4.287-.225l9.017-11.103c1.116-1.373 2.847-1.305 3.849.16zM97.499 21a7.501 7.501 0 1 1 0 15.002 7.501 7.501 0 0 1 0-15.002z" opacity=".251"/><rect width="60" height="5" rx="1" opacity=".253" transform="translate(120 21)"/><g opacity=".253" transform="translate(120 33)"><rect width="60" height="3" rx="1"/><path d="M.991 9A.992.992 0 0 0 0 9.999v1.002c0 .552.448.999.991.999H59.01a.992.992 0 0 0 .991-.999V9.999A.998.998 0 0 0 59.009 9H.99z"/></g></g>
    </symbol>
    <symbol id="in-page-navigation" viewBox="0 0 200 64">
      <g fill="#FFF" fill-rule="evenodd"><rect opacity=".246" x="10" y="21" width="180" height="24" rx="4"/><rect opacity=".25" x="20" y="30.523" width="24" height="4.923" rx="1"/><rect opacity=".25" x="54" y="30.523" width="24" height="4.923" rx="1"/><rect opacity=".25" x="88" y="30.523" width="24" height="4.923" rx="1"/><path d="M146 20.677v24.615h40.993A3 3 0 0 0 190 42.3V23.67a2.997 2.997 0 0 0-3.007-2.994H146z" opacity=".245"/><rect opacity=".251" x="156" y="30.523" width="24" height="4.923" rx="1"/></g>
    </symbol>
    <symbol id="in-page-search" viewBox="0 0 200 64">
      <g fill="#FFF" fill-rule="evenodd"><rect opacity=".259" x="10" y="20.308" width="180" height="24" rx="4"/><rect opacity=".247" x="20" y="29.846" width="84" height="4.923" rx="1"/><path d="M146 20v24.615h40.993A3 3 0 0 0 190 41.622V22.994A2.997 2.997 0 0 0 186.993 20H146z" opacity=".248"/></g>
    </symbol>
    <symbol id="info-gallery" viewBox="0 0 200 92">
      <g fill="none" fill-rule="evenodd"><g fill="#FFF"><path d="M13.99 11A3.996 3.996 0 0 0 10 15v12c0 2.21 1.782 4 3.99 4h172.02a3.996 3.996 0 0 0 3.99-4V15c0-2.21-1.782-4-3.99-4H13.99z" opacity=".253"/><path d="M119 19c.556 0 1 .448 1 1v3c0 .556-.448 1-1 1h-3c-.556 0-1-.448-1-1v-3c0-.556.448-1 1-1zm59.998 1a.997.997 0 0 1 1.002.999v1.002a.997.997 0 0 1-1.002.999h-52.996a.997.997 0 0 1-1.002-.999v-1.002a.997.997 0 0 1 1.002-.999zM24 19c.556 0 1 .448 1 1v3c0 .556-.448 1-1 1h-3c-.556 0-1-.448-1-1v-3c0-.556.448-1 1-1zm59.998 1a.997.997 0 0 1 1.002.999v1.002a.997.997 0 0 1-1.002.999H31.002A.997.997 0 0 1 30 22.001v-1.002A.997.997 0 0 1 31.002 20z" opacity=".252"/></g><g fill="#FFF"><rect width="37" height="40" rx="4" opacity=".245" transform="translate(10 41)"/><rect width="27" height="3" rx="1" opacity=".249" transform="translate(15 73)"/><path d="M31.482 51.64L39.186 63c.328.479.124 1-.453 1H17.606c-.577 0-.778-.52-.445-.995l6.106-8.806c.333-.474.938-.56 1.345-.147l1.234 1.234c.407.413 1.04.375 1.408-.073l2.963-3.626c.367-.448.936-.426 1.265.052zM37.535 48A2.457 2.457 0 0 1 40 50.45a2.456 2.456 0 0 1-2.465 2.448 2.456 2.456 0 0 1-2.464-2.448A2.457 2.457 0 0 1 37.535 48z" opacity=".246"/></g><rect width="37" height="40" rx="4" opacity=".252" fill="#FFF" transform="translate(58 41)"/><rect width="27" height="3" rx="1" opacity=".252" transform="translate(63 73)" fill="#FFF"/><path d="M79.482 51.64L87.186 63c.328.479.124 1-.453 1H65.606c-.577 0-.778-.52-.445-.995l6.106-8.806c.333-.474.938-.56 1.345-.147l1.234 1.234c.407.413 1.04.375 1.408-.073l2.963-3.626c.367-.448.936-.426 1.265.052zM85.535 48A2.457 2.457 0 0 1 88 50.45a2.456 2.456 0 0 1-2.465 2.448 2.456 2.456 0 0 1-2.464-2.448A2.457 2.457 0 0 1 85.535 48z" opacity=".251" fill="#B7B7B7"/><g fill="#FFF"><rect width="37" height="40" rx="4" opacity=".246" transform="translate(105 41)"/><rect width="27" height="3" rx="1" opacity=".246" transform="translate(110 73)"/><path d="M126.482 51.64L134.186 63c.328.479.124 1-.453 1h-21.127c-.577 0-.778-.52-.445-.995l6.106-8.806c.333-.474.938-.56 1.345-.147l1.234 1.234c.407.413 1.04.375 1.408-.073l2.963-3.626c.367-.448.936-.426 1.265.052zm6.053-3.64A2.457 2.457 0 0 1 135 50.45a2.456 2.456 0 0 1-2.465 2.448 2.456 2.456 0 0 1-2.464-2.448 2.457 2.457 0 0 1 2.464-2.45z" opacity=".246"/></g><g fill="#FFF"><rect width="37" height="40" rx="4" opacity=".254" transform="translate(153 41)"/><rect width="27" height="3" rx="1" opacity=".253" transform="translate(158 73)"/><path d="M174.482 51.64L182.186 63c.328.479.124 1-.453 1h-21.127c-.577 0-.778-.52-.445-.995l6.106-8.806c.333-.474.938-.56 1.345-.147l1.234 1.234c.407.413 1.04.375 1.408-.073l2.963-3.626c.367-.448.936-.426 1.265.052zm6.053-3.64A2.457 2.457 0 0 1 183 50.45a2.456 2.456 0 0 1-2.465 2.448 2.456 2.456 0 0 1-2.464-2.448 2.457 2.457 0 0 1 2.464-2.45z" opacity=".256"/></g></g>
    </symbol>
    <symbol id="key-features-lite" viewBox="0 0 200 92">
      <g fill="#FFF" fill-rule="evenodd"><rect opacity=".251" x="10" y="11" width="180" height="70" rx="4"/><rect opacity=".249" x="31" y="23" width="20" height="20" rx="10"/><rect width="30" height="5" rx="1" opacity=".254" transform="translate(63 31)"/><rect opacity=".249" x="31" y="51" width="20" height="20" rx="10"/><rect width="30" height="5" rx="1" opacity=".254" transform="translate(63 59)"/><rect opacity=".249" x="107" y="23" width="20" height="20" rx="10"/><rect width="30" height="5" rx="1" opacity=".254" transform="translate(139 31)"/><rect opacity=".249" x="107" y="51" width="20" height="20" rx="10"/><rect width="30" height="5" rx="1" opacity=".254" transform="translate(139 59)"/></g>
    </symbol>
    <symbol id="key-features" viewBox="0 0 200 92">
      <g fill="none" fill-rule="evenodd"><rect width="180" height="34" rx="4" fill="#E4E4E4" opacity=".256" transform="translate(10 11)"/><rect width="180" height="34" rx="4" fill="#E4E4E4" opacity=".248" transform="translate(10 47)"/><path d="M176.735 82.838l.029.041-.029-.04c.072.102.069.098 0 0zm-.224-.322l.06.088.065.091-.053-.075-.072-.104zm-.082-.117l.082.117-.02-.027c.435.624.372.534-.062-.09zm-56.574-.008l-.004.007zm.067-.092l-.03.042-.023.031.022-.03.03-.043zm.399-.561l-.092.128.042-.059c-.54.758-.598.84.05-.07zm36.717-27.184l18.397 26.418.11.158h-.016c-1.102-.06-53.606-.128-54.715-.062l-.018.001.085-.118 14.013-19.677c.896-1.247 2.527-1.47 3.625-.386l3.326 3.238c1.098 1.084 2.806.985 3.797-.193l7.987-9.517c.988-1.176 2.521-1.118 3.409.138zm21.151-7.536A6.3 6.3 0 0 1 180 51.43c0 3.55-2.974 6.427-6.644 6.427s-6.642-2.878-6.642-6.427c0-1.722.7-3.286 1.837-4.44 2.22.029 4.336.006 4.737.001h.108c.365.008 3.157.064 4.793.027zm-99.454-.18l.029.041-.029-.04c.072.102.069.098 0 0zm-.224-.322l.06.088.065.091-.053-.075-.072-.104zm-.082-.117l.082.117-.02-.027c.435.624.372.534-.062-.09zm-56.574-.008l-.004.007zm.067-.092l-.03.042-.023.031.022-.03.03-.043zm.399-.561l-.092.128.042-.059c-.54.758-.598.84.05-.07zm36.717-27.184l18.397 26.418.11.158h-.016c-1.102-.06-53.606-.128-54.715-.062l-.018.001.085-.118 14.013-19.677c.896-1.247 2.527-1.47 3.625-.386l3.326 3.238c1.098 1.084 2.806.985 3.797-.193l7.987-9.517c.988-1.176 2.521-1.118 3.409.138zm21.151-7.536A6.3 6.3 0 0 1 82 15.43c0 3.55-2.974 6.427-6.644 6.427s-6.642-2.878-6.642-6.427c0-1.722.7-3.286 1.837-4.44 2.22.029 4.336.006 4.737.001h.108c.365.008 3.157.064 4.793.027z" opacity=".255" fill="#FFF"/><g opacity=".252" transform="translate(120 22)" fill="#FFF"><rect width="60" height="3" rx="1"/><path d="M.991 9A.992.992 0 0 0 0 9.999v1.002c0 .552.448.999.991.999H59.01a.992.992 0 0 0 .991-.999V9.999A.998.998 0 0 0 59.009 9H.99z"/></g><g opacity=".247" transform="translate(20 58)" fill="#FFF"><rect width="60" height="3" rx="1"/><path d="M.991 9A.992.992 0 0 0 0 9.999v1.002c0 .552.448.999.991.999H59.01a.992.992 0 0 0 .991-.999V9.999A.998.998 0 0 0 59.009 9H.99z"/></g></g>
    </symbol>
    <symbol id="legal" viewBox="0 0 200 80">
      <g fill="#FFF" fill-rule="evenodd"><rect opacity=".248" x="10" y="20" width="180" height="40" rx="4"/><path d="M179 48c.555 0 1 .447 1 .999v1.002a.997.997 0 0 1-1 .999H21c-.555 0-1-.447-1-.999v-1.002A.997.997 0 0 1 21 48zm0-9c.555 0 1 .447 1 .999v1.002a.997.997 0 0 1-1 .999H21c-.555 0-1-.447-1-.999v-1.002A.997.997 0 0 1 21 39zm0-9c.555 0 1 .447 1 .999v1.002a.997.997 0 0 1-1 .999H21c-.555 0-1-.447-1-.999v-1.002A.997.997 0 0 1 21 30z" opacity=".251"/></g>
    </symbol>
    <symbol id="lifestyle" viewBox="0 0 200 80">
      <g fill="#FFF" fill-rule="evenodd"><rect width="180" height="40" rx="4" opacity=".258" transform="translate(10 20)"/><path d="M105.445 32.597l14.069 20.591c.599.867.227 1.812-.828 1.812H80.107c-1.055 0-1.421-.94-.813-1.804l11.15-15.96c.607-.86 1.712-1.014 2.456-.266l2.253 2.236c.744.748 1.9.68 2.572-.133l5.41-6.571c.67-.813 1.709-.772 2.31.095zM116.5 26c2.486 0 4.5 1.988 4.5 4.44 0 2.45-2.014 4.438-4.5 4.438-2.487 0-4.5-1.988-4.5-4.438 0-2.453 2.014-4.44 4.5-4.44z" opacity=".254"/></g>
    </symbol>
    <symbol id="links" viewBox="0 0 200 80">
      <g fill="#FFF" fill-rule="evenodd"><rect opacity=".246" x="10" y="20" width="180" height="40" rx="4"/><path d="M88.997 48a1 1 0 0 1 1.003.999v1.002c0 .556-.45.999-1.003.999H21.003A1 1 0 0 1 20 50.001v-1.002c0-.556.45-.999 1.003-.999zm0-9a1 1 0 0 1 1.003.999v1.002c0 .556-.45.999-1.003.999H21.003A1 1 0 0 1 20 41.001v-1.002c0-.556.45-.999 1.003-.999zm0-9a1 1 0 0 1 1.003.999v1.002c0 .556-.45.999-1.003.999H21.003A1 1 0 0 1 20 32.001v-1.002c0-.556.45-.999 1.003-.999z" opacity=".246"/><path d="M178.997 48a1 1 0 0 1 1.003.999v1.002c0 .556-.45.999-1.003.999h-67.994a1 1 0 0 1-1.003-.999v-1.002c0-.556.45-.999 1.003-.999zm0-9a1 1 0 0 1 1.003.999v1.002c0 .556-.45.999-1.003.999h-67.994a1 1 0 0 1-1.003-.999v-1.002c0-.556.45-.999 1.003-.999zm0-9a1 1 0 0 1 1.003.999v1.002c0 .556-.45.999-1.003.999h-67.994a1 1 0 0 1-1.003-.999v-1.002c0-.556.45-.999 1.003-.999z" opacity=".254"/></g>
    </symbol>
    <symbol id="logos" viewBox="0 0 200 92">
      <g fill="#FFF" fill-rule="evenodd"><rect opacity=".245" x="10" y="11" width="180" height="70" rx="4"/><path d="M34.334 22.957l6.029 9.23c.257.39.097.813-.355.813H23.474c-.452 0-.609-.422-.348-.809l4.779-7.154c.26-.386.733-.455 1.052-.12l.966 1.003c.319.335.814.305 1.102-.06l2.319-2.945c.287-.365.732-.347.99.042zM39.07 20c1.066 0 1.929.891 1.929 1.99s-.863 1.99-1.929 1.99c-1.065 0-1.928-.891-1.928-1.99 0-1.1.863-1.99 1.928-1.99zm-4.736 41.99l6.029 9.231c.257.389.097.812-.355.812H23.474c-.452 0-.609-.421-.348-.808l4.779-7.154c.26-.386.733-.455 1.052-.12l.966 1.002c.319.336.814.305 1.102-.06l2.319-2.945c.287-.364.732-.346.99.043zm4.737-2.957c1.066 0 1.929.892 1.929 1.99 0 1.1-.863 1.99-1.929 1.99-1.065 0-1.928-.89-1.928-1.99 0-1.099.863-1.99 1.928-1.99zm-4.737-16.559l6.029 9.23c.257.39.097.813-.355.813H23.474c-.452 0-.609-.422-.348-.809l4.779-7.154c.26-.386.733-.455 1.052-.12l.966 1.003c.319.335.814.305 1.102-.06l2.319-2.946c.287-.364.732-.346.99.043zm4.737-2.957c1.066 0 1.929.891 1.929 1.99s-.863 1.99-1.929 1.99c-1.065 0-1.928-.891-1.928-1.99 0-1.1.863-1.99 1.928-1.99zm29.263-16.56l6.029 9.23c.257.39.097.813-.355.813H57.474c-.452 0-.609-.422-.348-.809l4.779-7.154c.26-.386.733-.455 1.052-.12l.966 1.003c.319.335.814.305 1.102-.06l2.319-2.945c.287-.365.732-.347.99.042zM73.07 20c1.066 0 1.929.891 1.929 1.99s-.863 1.99-1.929 1.99c-1.065 0-1.928-.891-1.928-1.99 0-1.1.863-1.99 1.928-1.99zm-4.736 41.99l6.029 9.231c.257.389.097.812-.355.812H57.474c-.452 0-.609-.421-.348-.808l4.779-7.154c.26-.386.733-.455 1.052-.12l.966 1.002c.319.336.814.305 1.102-.06l2.319-2.945c.287-.364.732-.346.99.043zm4.737-2.957c1.066 0 1.929.892 1.929 1.99 0 1.1-.863 1.99-1.929 1.99-1.065 0-1.928-.89-1.928-1.99 0-1.099.863-1.99 1.928-1.99zm-4.737-16.559l6.029 9.23c.257.39.097.813-.355.813H57.474c-.452 0-.609-.422-.348-.809l4.779-7.154c.26-.386.733-.455 1.052-.12l.966 1.003c.319.335.814.305 1.102-.06l2.319-2.946c.287-.364.732-.346.99.043zm4.737-2.957c1.066 0 1.929.891 1.929 1.99s-.863 1.99-1.929 1.99c-1.065 0-1.928-.891-1.928-1.99 0-1.1.863-1.99 1.928-1.99zm63.263-16.56l6.029 9.23c.257.39.097.813-.355.813h-16.534c-.452 0-.609-.422-.348-.809l4.779-7.154c.26-.386.733-.455 1.052-.12l.966 1.003c.319.335.814.305 1.102-.06l2.319-2.945c.287-.365.732-.347.99.042zM141.07 20c1.066 0 1.929.891 1.929 1.99s-.863 1.99-1.929 1.99c-1.065 0-1.928-.891-1.928-1.99 0-1.1.863-1.99 1.928-1.99zm-4.736 41.99l6.029 9.231c.257.389.097.812-.355.812h-16.534c-.452 0-.609-.421-.348-.808l4.779-7.154c.26-.386.733-.455 1.052-.12l.966 1.002c.319.336.814.305 1.102-.06l2.319-2.945c.287-.364.732-.346.99.043zm4.737-2.957c1.066 0 1.929.892 1.929 1.99 0 1.1-.863 1.99-1.929 1.99-1.065 0-1.928-.89-1.928-1.99 0-1.099.863-1.99 1.928-1.99zm-4.737-16.559l6.029 9.23c.257.39.097.813-.355.813h-16.534c-.452 0-.609-.422-.348-.809l4.779-7.154c.26-.386.733-.455 1.052-.12l.966 1.003c.319.335.814.305 1.102-.06l2.319-2.946c.287-.364.732-.346.99.043zm4.737-2.957c1.066 0 1.929.891 1.929 1.99s-.863 1.99-1.929 1.99c-1.065 0-1.928-.891-1.928-1.99 0-1.1.863-1.99 1.928-1.99zm-38.737-16.56l6.029 9.23c.257.39.097.813-.355.813H91.474c-.452 0-.609-.422-.348-.809l4.779-7.154c.26-.386.733-.455 1.052-.12l.966 1.003c.319.335.814.305 1.102-.06l2.319-2.945c.287-.365.732-.347.99.042zM107.07 20c1.066 0 1.929.891 1.929 1.99s-.863 1.99-1.929 1.99c-1.065 0-1.928-.891-1.928-1.99 0-1.1.863-1.99 1.928-1.99zm-4.736 41.99l6.029 9.231c.257.389.097.812-.355.812H91.474c-.452 0-.609-.421-.348-.808l4.779-7.154c.26-.386.733-.455 1.052-.12l.966 1.002c.319.336.814.305 1.102-.06l2.319-2.945c.287-.364.732-.346.99.043zm4.737-2.957c1.066 0 1.929.892 1.929 1.99 0 1.1-.863 1.99-1.929 1.99-1.065 0-1.928-.89-1.928-1.99 0-1.099.863-1.99 1.928-1.99zm-4.737-16.559l6.029 9.23c.257.39.097.813-.355.813H91.474c-.452 0-.609-.422-.348-.809l4.779-7.154c.26-.386.733-.455 1.052-.12l.966 1.003c.319.335.814.305 1.102-.06l2.319-2.946c.287-.364.732-.346.99.043zm4.737-2.957c1.066 0 1.929.891 1.929 1.99s-.863 1.99-1.929 1.99c-1.065 0-1.928-.891-1.928-1.99 0-1.1.863-1.99 1.928-1.99zm63.263-16.56l6.029 9.23c.257.39.097.813-.355.813h-16.534c-.452 0-.609-.422-.348-.809l4.779-7.154c.26-.386.733-.455 1.052-.12l.966 1.003c.319.335.814.305 1.102-.06l2.319-2.945c.287-.365.732-.347.99.042zM175.07 20c1.066 0 1.929.891 1.929 1.99s-.863 1.99-1.929 1.99c-1.065 0-1.928-.891-1.928-1.99 0-1.1.863-1.99 1.928-1.99zm-4.736 41.99l6.029 9.231c.257.389.097.812-.355.812h-16.534c-.452 0-.609-.421-.348-.808l4.779-7.154c.26-.386.733-.455 1.052-.12l.966 1.002c.319.336.814.305 1.102-.06l2.319-2.945c.287-.364.732-.346.99.043zm4.737-2.957c1.066 0 1.929.892 1.929 1.99 0 1.1-.863 1.99-1.929 1.99-1.065 0-1.928-.89-1.928-1.99 0-1.099.863-1.99 1.928-1.99zm-4.737-16.559l6.029 9.23c.257.39.097.813-.355.813h-16.534c-.452 0-.609-.422-.348-.809l4.779-7.154c.26-.386.733-.455 1.052-.12l.966 1.003c.319.335.814.305 1.102-.06l2.319-2.946c.287-.364.732-.346.99.043zm4.737-2.957c1.066 0 1.929.891 1.929 1.99s-.863 1.99-1.929 1.99c-1.065 0-1.928-.891-1.928-1.99 0-1.1.863-1.99 1.928-1.99z" opacity=".247"/></g>
    </symbol>
    <symbol id="navigation-ktc" viewBox="0 0 200 80">
      <g fill="none" fill-rule="evenodd"><rect fill="#FFF" opacity=".247" x="10" y="20" width="180" height="40" rx="4"/><path d="M30.998 43c.514 0 .937.383.995.883L32 44c0 .552-.456 1-1.002 1h-9.996a.999.999 0 1 1 0-2h9.996zm0-4c.514 0 .937.383.995.883L32 40c0 .552-.456 1-1.002 1h-9.996a.999.999 0 1 1 0-2h9.996zm0-4c.514 0 .937.383.995.883L32 36c0 .552-.456 1-1.002 1h-9.996a.999.999 0 1 1 0-2h9.996z" fill="#FFF" opacity=".249"/><path d="M81.434 41.093v4.05c0 1.514.179 2.21 1.759 2.21v.144H77.1v-.144c1.81 0 1.595-1.882 1.595-3.396v-4.32c0-1.514.323-4.511-1.488-4.511v-.146h5.837v.146c-1.503 0-1.61.887-1.61 2.4v3.175l.26.014c2.44-2.36 2.715-2.779 2.881-3.04 1.221-1.926.068-2.497-.607-2.497v-.215h4.97v.215c-.847 0-2.445 1.281-3.39 2.028l-3.66 3.57c4.997.23 4.89 2.759 5.448 4.644.315 1.063.519 1.724 1.718 1.95v.127s-4.453.004-4.453 0c-.681-3.665-1.005-6.718-3.167-6.404m11.541.422c0 1.71.28 2.19 1.29 2.19v.125h-5.037v-.125c1.028 0 1.108-1.176 1.108-2.19v-4.5c0-1.19-.254-1.838-1.282-1.838v-.214h3.921v6.552zM91.813 31.6c.836 0 1.532.624 1.532 1.375 0 .753-.696 1.377-1.532 1.377-.838 0-1.533-.624-1.533-1.377 0-.751.695-1.375 1.533-1.375m6.377 4.352c.877-1.265 1.471-1.295 2.477-1.295 2.398 0 2.6 1.843 2.6 3.404l.007 3.422c0 1.681.174 2.22 1.105 2.22v.127h-4.774v-.127c.838 0 .838-.731.838-2.22v-3.479c0-1.253.137-2.827-.82-2.827-1.095 0-1.136.878-1.433 1.383v4.923c0 1.471.087 2.22.925 2.22v.127h-4.687v-.127c.93 0 1.088-.783 1.088-2.22V36.92c0-1.257-.226-1.865-1.252-1.865v-.215h3.926v1.112zm25.086-.941h1.837l-.312.636h-1.525v5.467c0 2.75 1.562 2.521 2.217 1.923l.036.172c-1.402 1.15-2.356.905-2.713.905-1.358 0-2.209-.974-2.209-2.282v-6.185h-1.515v-.075c1.183-.417 3.127-2.024 4.026-3.36h.158v2.799z" fill="#000"/><path d="M130.46 39.255c0-2.773-.098-4.412-1.524-4.412-1.565 0-1.453 2.113-1.453 4.412 0 2.773-.006 4.713 1.453 4.713 1.635 0 1.523-1.94 1.523-4.713m-5.85.248c0-2.194 1.941-4.846 4.327-4.846 2.177 0 4.256 2.351 4.256 4.686 0 2.75-2.342 4.793-4.256 4.793-2.334 0-4.327-2.113-4.327-4.633" fill="#000"/><path d="M136.659 36.056c.891-1.277 1.494-1.306 2.517-1.306 2.437 0 2.643 1.86 2.643 3.437l.007 3.455c0 1.697.177 2.242 1.124 2.242v.128h-4.853v-.128c.852 0 .852-.739.852-2.242v-3.513c0-1.265.138-2.855-.833-2.855-1.113 0-1.155.887-1.457 1.397v4.97c0 1.487.088 2.243.94 2.243v.128h-4.765v-.128c.948 0 1.107-.791 1.107-2.242v-4.608c0-1.269-.23-1.882-1.272-1.882v-.218h3.99v1.122zm-27.325 3.209c0-2.048-.153-4.045-1.45-4.045-.907 0-1.14 1.611-1.14 4.528 0 2.45.202 4.087 1.121 4.087.811 0 1.47-1.856 1.47-3.831v-.739zm-.23 3.516c-.273.362-.658 1.537-2.1 1.537-1.67 0-2.931-1.544-2.931-4.625 0-2.505 1.587-4.73 3.413-4.73 1.293 0 1.792 1.172 1.792 1.172v-.955h3.99v.196s-1.31-.268-1.31 1.635v6.979c-.129 1.895-.942 3.196-4.175 4.12l.023-.218c1.857-1.374 1.458-3.36 1.297-5.111z" fill="#000"/><path d="M112.655 40.868h1.289c-.173 2.783 1.79 2.786 2.263 2.786.854 0 1.629-.662 1.629-1.398 0-2.263-4.78-1.296-4.78-4.734 0-1.561 1.204-2.865 3.006-2.865 2.921 0 3.262 1.731 3.262 2.334h-1.09c.101-.431-.078-2.206-1.935-2.206-1.518 0-1.458 1.223-1.458 1.307 0 2.194 5.17 1.399 5.17 4.633 0 1.632-1.394 2.994-3.266 3.095-3.237.175-4.09-2.136-4.09-2.952m29.247-6.434c.17 0 .418.029.418-.214 0-.188-.153-.21-.3-.21h-.342v.424h.224zm.562.666h-.176l-.342-.55h-.268v.55h-.148v-1.194h.524c.317 0 .424.119.424.316 0 .235-.163.322-.375.328l.361.55zm.367-.6c0-.518-.38-.925-.901-.925-.524 0-.907.407-.907.926 0 .526.383.932.907.932.521 0 .9-.406.9-.932zm-1.977 0c0-.585.48-1.066 1.076-1.066a1.069 1.069 0 1 1 0 2.14c-.596 0-1.076-.48-1.076-1.073zM89.667 44.747h2.452v.327H91.1v2.425h-.417v-2.425h-1.017zm4.903 2.752v-2.752h2.117v.336h-1.733v.836h1.602v.319h-1.602v.932h1.762v.329zm6.663-2.752c.393 0 .699.096.916.29.218.193.338.415.362.66h-.411a.795.795 0 0 0-.278-.445c-.139-.109-.333-.164-.584-.164-.307 0-.555.101-.743.301-.188.202-.283.51-.283.925 0 .34.085.616.255.828.17.21.424.317.762.317.31 0 .547-.112.709-.335.086-.117.15-.27.192-.463h.41a1.277 1.277 0 0 1-.363.77c-.246.249-.58.374-1 .374-.361 0-.665-.103-.91-.306-.323-.27-.485-.689-.485-1.252 0-.428.122-.779.364-1.054.264-.297.624-.446 1.087-.446m4.066 2.752v-2.752h.423v1.137h1.606v-1.137h.423V47.5h-.423v-1.29h-1.606v1.288zm6.743 0v-2.752h.494l1.56 2.228v-2.228h.398V47.5h-.468l-1.584-2.228V47.5zm5.836-2.217a1.618 1.618 0 0 0-.319 1.006c0 .432.125.791.371 1.075.277.293.657.442 1.141.442.518 0 .916-.168 1.197-.506.238-.286.357-.644.357-1.076 0-.4-.104-.727-.313-.984-.267-.329-.677-.492-1.232-.492-.532 0-.933.178-1.202.535m.386 1.842a1.258 1.258 0 0 1-.264-.811c0-.4.102-.704.308-.91.206-.206.472-.308.797-.308.336 0 .6.105.792.311.194.207.292.481.292.822 0 .322-.085.607-.252.854-.168.247-.44.37-.814.37-.397 0-.682-.108-.859-.328m5.426.375v-2.752h.387v2.423h1.452v.329zm5.528-2.217c-.213.278-.318.614-.318 1.006 0 .432.125.791.371 1.075.276.293.656.442 1.14.442.518 0 .917-.168 1.198-.506.237-.286.357-.644.357-1.076 0-.4-.104-.727-.314-.984-.266-.329-.677-.492-1.232-.492-.531 0-.932.178-1.202.535m.387 1.842a1.258 1.258 0 0 1-.264-.811c0-.4.103-.704.309-.91.205-.206.47-.308.796-.308.336 0 .599.105.793.311.194.207.291.481.291.822 0 .322-.085.607-.253.854-.167.247-.439.37-.814.37-.395 0-.68-.108-.858-.328m6.235-2.377c.284 0 .53.053.735.16.301.151.484.416.551.796h-.405c-.049-.213-.151-.367-.306-.464a1.087 1.087 0 0 0-.586-.145c-.28 0-.513.1-.705.302-.192.201-.287.502-.287.902 0 .345.08.627.237.843.157.218.414.326.77.326.273 0 .5-.078.677-.23.178-.152.27-.397.275-.738h-.946v-.326h1.326v1.555h-.264l-.098-.375a1.51 1.51 0 0 1-.368.304c-.179.099-.408.148-.684.148-.358 0-.666-.112-.923-.335-.28-.28-.421-.663-.421-1.151 0-.486.137-.873.41-1.16.261-.275.599-.412 1.012-.412m5.265 1.643l-1.17-1.643h.489l.89 1.323.888-1.323h.491l-1.169 1.642v1.11h-.419z" fill="#000"/><g transform="translate(63 31.6)"><mask id="a" fill="#fff"><path d="M0 .076v15.961h11.59V.076H0z"/></mask><path d="M.639 2.545c-.056-.226-.13-.768-.13-.768-.105-.441.113-.562.113-.562S2.608.18 6.26.087c1.1-.027 3.011-.06 4.92.588.128.052.159.153.21.343.064.236.092.446.122.656.069.49.087.771.072 1.043-.01.195-.226.539-.235.635-.031.335.093 1.636.046 2.273-.047.636-.294 2.772-.804 4.172-.539 1.477-1.467 1.236-1.939 1.236l2.229 5.004L0 16.03l1.61-8.72s.024-.22-.172-.343c-.432-.27-.78-.699-.78-.699S.438 6.021.191 4.59c0 0-.21-1.345.023-1.639.108-.136.367-.268.445-.315l-.02-.092z" fill="#000" mask="url(#a)"/></g><path d="M72.51 36.366l-.693-.167s-.177-.004-.224.092c-.048.095-.186.637-.186.637s-.008.042.028.077c.035.036 1.71 1.262 1.71 1.262s-1.41-.135-1.848-.027c-.437.107-1.307.573-1.874.67-.567.095-2.655.321-2.785.334l-.827-3.627s-.11-.893-1.02-.865c-.685.021-.792.202-.827.279a.342.342 0 0 0 0 .279l2.26 3.878s-1.519-.748-2.123-1.562c-.33-.447-.633-2.595-.413-2.958.197-.324 1.434-.586 1.958-.53.255.05.48.293.633.475.048.055.075.024.111.083 0 0-.136-.829-.662-.865-.759-.051-1.571.224-1.571.224s-.061-.007-.087-.093c-.037-.12-.12-.842-.12-.842s.033-.15.151-.21c0 0 2.136-1.016 5.35-1.004.378.002 3.394-.047 4.824.586.126.101.045.589-.02.864-.048.21-.247.261-.247.261a.506.506 0 0 0-.312.242s.307 2.894.33 3.013c.024.12-.082.14-.378.16-.13.009-1.662.035-1.662.035s-.315-.031-.303-.223c.01-.14.055-.4.138-.4h.294s.62 0 .395-.078m-2.46 2.685s1.498-.343 3.068.165c0 0 .337.345.3.629 0 0-2.414.163-3.368-.794" fill="#DB2627"/><path d="M70.05 41.608s.395-2.004 3.033-1.726c0 0 .183.172-.328.77-.608.71-1.72 1.25-2.705.956" fill="#DB2627"/><path d="M69.492 33.136s.304-.069 1.515.214c.63.148.968.29 1.134.346.072.025.065.2.023.213-.082.024-1.63-.505-2.512-.486 0 0-1.041.43-2.282 1.519 0 0-.267.048-.385 0 0 0 1.13-1.22 2.507-1.806" fill="#000"/><path d="M68.517 34.906s.977-.571 1.465-.704c.488-.133.903-.196 1.123-.13.221.067.466.745.477.865 0 0-.732.404-1.43.32-.602-.072-1.26-.16-1.635-.351" fill="#000"/><path d="M74.369 34.047c.138.03.13.05.22.151.088.101.066.355.007.436-.059.082-.114-.078-.562-.06 0 0 .203-.554.335-.527m-9.591 4.891l.945.684 1.568 7.571h-3.984zm2.513 3.975s2.18 1.202 2.527 1.634l.232 2.646h-1.587l-1.172-4.28zm3.865 2.446s1.275 1.201 1.652 2.14h-2.145l.493-2.14z" fill="#DB2627"/><path d="M72.502 34.357s.158-.042.194.111c.18.753.419 2.395.419 2.52 0 .236-.274.037-.274.037l-.34-2.668zm-4.292-2.134s.055-.013.154-.011c.027 0 .766 1.067.766 1.067-.017.012-.27.132-.311.155l-.608-1.21zm-2.384 3.352s-.272-.666.277-.77a9.351 9.351 0 0 1 2.108-.139s-1.392.22-1.813.36c-.422.138-.572.549-.572.549" fill="#FFF"/></g>
    </symbol>
    <symbol id="notification" viewBox="0 0 200 64">
      <g fill="#FFF" fill-rule="evenodd"><path d="M13.99 20A4 4 0 0 0 10 24.003v16.994A3.993 3.993 0 0 0 13.99 45h172.02a4 4 0 0 0 3.99-4.003V24.003A3.993 3.993 0 0 0 186.01 20H13.99z" opacity=".248"/><g opacity=".247" transform="translate(38 26)"><rect width="125" height="3" rx="1"/><path d="M1.006 9A1 1 0 0 0 0 9.999v1.002c0 .552.453.999 1.006.999h122.988a1 1 0 0 0 1.006-.999V9.999c0-.552-.453-.999-1.006-.999H1.006z"/></g></g>
    </symbol>
    <symbol id="payment-confirmation" viewBox="0 0 200 92">
      <g fill="none" fill-rule="evenodd"><path fill="#333" d="M0 0h200v92H0z"/><g transform="translate(10 11)" fill="#FFF"><rect opacity=".248" width="180" height="70" rx="4"/><rect opacity=".249" x="10" y="10" width="45" height="5" rx="1"/><rect opacity=".246" x="135" y="53" width="35" height="7" rx="1"/></g><g transform="translate(110 45)" fill="#FFF"><path d="M0 1.003C0 .449.447 0 1.003 0h67.994A.996.996 0 0 1 70 1.003v4.994C70 6.551 69.553 7 68.997 7H1.003A.996.996 0 0 1 0 5.997V1.003z" opacity=".249"/><rect opacity=".253" x="1.75" y="2" width="21.875" height="3" rx="1"/></g><path d="M110 34.003c0-.554.447-1.003 1.003-1.003h67.994A.996.996 0 0 1 180 34.003v4.994c0 .554-.447 1.003-1.003 1.003h-67.994A.996.996 0 0 1 110 38.997v-4.994z" opacity=".253" fill="#FFF"/><path d="M110 22.003c0-.554.447-1.003 1.003-1.003h67.994A.996.996 0 0 1 180 22.003v4.994c0 .554-.447 1.003-1.003 1.003h-67.994A.996.996 0 0 1 110 26.997v-4.994z" fill="#FFF" opacity=".251"/><path d="M88.997 68a1 1 0 0 1 1.003.999v1.002c0 .556-.45.999-1.003.999H21.003A1 1 0 0 1 20 70.001v-1.002c0-.556.45-.999 1.003-.999zm0-9a1 1 0 0 1 1.003.999v1.002c0 .556-.45.999-1.003.999H21.003A1 1 0 0 1 20 61.001v-1.002c0-.556.45-.999 1.003-.999zm0-9a1 1 0 0 1 1.003.999v1.002c0 .556-.45.999-1.003.999H21.003A1 1 0 0 1 20 52.001v-1.002c0-.556.45-.999 1.003-.999zm0-9a1 1 0 0 1 1.003.999v1.002c0 .556-.45.999-1.003.999H21.003A1 1 0 0 1 20 43.001v-1.002c0-.556.45-.999 1.003-.999zm0-9a1 1 0 0 1 1.003.999v1.002c0 .556-.45.999-1.003.999H21.003A1 1 0 0 1 20 34.001v-1.002c0-.556.45-.999 1.003-.999z" fill="#FFF" opacity=".252"/><path d="M112.752 35a.997.997 0 0 0-1.002.999v1.002c0 .552.457.999 1.002.999h28.621a.997.997 0 0 0 1.002-.999v-1.002c0-.552-.457-.999-1.002-.999h-28.621z" fill="#FFF" opacity=".251"/><rect fill="#FFF" opacity=".249" x="111.75" y="23" width="35" height="3" rx="1"/></g>
    </symbol>
    <symbol id="photo-gallery" viewBox="0 0 200 92">
      <g fill="#FFF" fill-rule="evenodd"><path d="M36.995 51A4.007 4.007 0 0 1 41 55v22a4 4 0 0 1-4.005 4h-22.99A4.007 4.007 0 0 1 10 77V55a4 4 0 0 1 4.005-4zm37 0A4.007 4.007 0 0 1 78 55v22a4 4 0 0 1-4.005 4h-22.99A4.007 4.007 0 0 1 47 77V55a4 4 0 0 1 4.005-4zm38 0A4.007 4.007 0 0 1 116 55v22a4 4 0 0 1-4.005 4h-22.99A4.007 4.007 0 0 1 85 77V55a4 4 0 0 1 4.005-4zm37 0A4.007 4.007 0 0 1 153 55v22a4 4 0 0 1-4.005 4h-22.99A4.007 4.007 0 0 1 122 77V55a4 4 0 0 1 4.005-4zm37 0A4.007 4.007 0 0 1 190 55v22a4 4 0 0 1-4.005 4h-22.99A4.007 4.007 0 0 1 159 77V55a4 4 0 0 1 4.005-4zm-149-40A4.007 4.007 0 0 1 41 15v22a4 4 0 0 1-4.005 4h-22.99A4.007 4.007 0 0 1 10 37V15a4 4 0 0 1 4.005-4zm37 0A4.007 4.007 0 0 1 78 15v22a4 4 0 0 1-4.005 4h-22.99A4.007 4.007 0 0 1 47 37V15a4 4 0 0 1 4.005-4zm38 0A4.007 4.007 0 0 1 116 15v22a4 4 0 0 1-4.005 4h-22.99A4.007 4.007 0 0 1 85 37V15a4 4 0 0 1 4.005-4zm37 0A4.007 4.007 0 0 1 153 15v22a4 4 0 0 1-4.005 4h-22.99A4.007 4.007 0 0 1 122 37V15a4 4 0 0 1 4.005-4zm37 0A4.007 4.007 0 0 1 190 15v22a4 4 0 0 1-4.005 4h-22.99A4.007 4.007 0 0 1 159 37V15a4 4 0 0 1 4.005-4z" opacity=".252"/><path d="M28.593 22.185l6.7 9.94c.285.419.107.875-.395.875h-18.37c-.503 0-.678-.454-.388-.87l5.31-7.705c.289-.416.815-.49 1.17-.13l1.072 1.08c.354.362.905.329 1.225-.064l2.576-3.172c.319-.392.814-.373 1.1.046zM33.857 19a2.143 2.143 0 1 1 0 4.286 2.143 2.143 0 0 1 0-4.286zm-5.264 43.185l6.7 9.94c.285.419.107.875-.395.875h-18.37c-.503 0-.678-.454-.388-.87l5.31-7.705c.289-.416.815-.49 1.17-.13l1.072 1.08c.354.362.905.329 1.225-.064l2.576-3.172c.319-.392.814-.373 1.1.046zM33.857 59a2.143 2.143 0 1 1 0 4.286 2.143 2.143 0 0 1 0-4.286zm31.736-36.815l6.7 9.94c.285.419.107.875-.395.875h-18.37c-.503 0-.678-.454-.388-.87l5.31-7.705c.289-.416.815-.49 1.17-.13l1.072 1.08c.354.362.905.329 1.225-.064l2.576-3.172c.319-.392.814-.373 1.1.046zM70.857 19a2.143 2.143 0 1 1 0 4.286 2.143 2.143 0 0 1 0-4.286zm-5.264 43.185l6.7 9.94c.285.419.107.875-.395.875h-18.37c-.503 0-.678-.454-.388-.87l5.31-7.705c.289-.416.815-.49 1.17-.13l1.072 1.08c.354.362.905.329 1.225-.064l2.576-3.172c.319-.392.814-.373 1.1.046zM70.857 59a2.143 2.143 0 1 1 0 4.286 2.143 2.143 0 0 1 0-4.286zm32.736-36.815l6.7 9.94c.285.419.107.875-.395.875h-18.37c-.503 0-.678-.454-.388-.87l5.31-7.705c.289-.416.815-.49 1.17-.13l1.072 1.08c.354.362.905.329 1.225-.064l2.576-3.172c.319-.392.814-.373 1.1.046zM108.857 19a2.143 2.143 0 1 1 0 4.286 2.143 2.143 0 0 1 0-4.286zm-5.264 43.185l6.7 9.94c.285.419.107.875-.395.875h-18.37c-.503 0-.678-.454-.388-.87l5.31-7.705c.289-.416.815-.49 1.17-.13l1.072 1.08c.354.362.905.329 1.225-.064l2.576-3.172c.319-.392.814-.373 1.1.046zM108.857 59a2.143 2.143 0 1 1 0 4.286 2.143 2.143 0 0 1 0-4.286zm31.736-36.815l6.7 9.94c.285.419.107.875-.395.875h-18.37c-.503 0-.678-.454-.388-.87l5.31-7.705c.289-.416.815-.49 1.17-.13l1.072 1.08c.354.362.905.329 1.225-.064l2.576-3.172c.319-.392.814-.373 1.1.046zM145.857 19a2.143 2.143 0 1 1 0 4.286 2.143 2.143 0 0 1 0-4.286zm-5.264 43.185l6.7 9.94c.285.419.107.875-.395.875h-18.37c-.503 0-.678-.454-.388-.87l5.31-7.705c.289-.416.815-.49 1.17-.13l1.072 1.08c.354.362.905.329 1.225-.064l2.576-3.172c.319-.392.814-.373 1.1.046zM145.857 59a2.143 2.143 0 1 1 0 4.286 2.143 2.143 0 0 1 0-4.286zm31.736-36.815l6.7 9.94c.285.419.107.875-.395.875h-18.37c-.503 0-.678-.454-.388-.87l5.31-7.705c.289-.416.815-.49 1.17-.13l1.072 1.08c.354.362.905.329 1.225-.064l2.576-3.172c.319-.392.814-.373 1.1.046zM182.857 19a2.143 2.143 0 1 1 0 4.286 2.143 2.143 0 0 1 0-4.286zm-5.264 43.185l6.7 9.94c.285.419.107.875-.395.875h-18.37c-.503 0-.678-.454-.388-.87l5.31-7.705c.289-.416.815-.49 1.17-.13l1.072 1.08c.354.362.905.329 1.225-.064l2.576-3.172c.319-.392.814-.373 1.1.046zM182.857 59a2.143 2.143 0 1 1 0 4.286 2.143 2.143 0 0 1 0-4.286z" opacity=".25"/></g>
    </symbol>
    <symbol id="playlist-gallery" viewBox="0 0 200 92">
      <g fill="#FFF" fill-rule="evenodd"><path d="M43.005 11A3.996 3.996 0 0 1 47 15.002v61.996A4.004 4.004 0 0 1 43.005 81h-29.01A3.996 3.996 0 0 1 10 76.998V15.002A4.004 4.004 0 0 1 13.995 11zm48 0A3.996 3.996 0 0 1 95 15.002v61.996A4.004 4.004 0 0 1 91.005 81h-29.01A3.996 3.996 0 0 1 58 76.998V15.002A4.004 4.004 0 0 1 61.995 11zm47 0A3.996 3.996 0 0 1 142 15.002v61.996A4.004 4.004 0 0 1 138.005 81h-29.01A3.996 3.996 0 0 1 105 76.998V15.002A4.004 4.004 0 0 1 108.995 11zm48 0A3.996 3.996 0 0 1 190 15.002v61.996A4.004 4.004 0 0 1 186.005 81h-29.01A3.996 3.996 0 0 1 153 76.998V15.002A4.004 4.004 0 0 1 156.995 11z" opacity=".254"/><path d="M28.5 21a9.5 9.5 0 0 1 9.5 9.5 9.5 9.5 0 1 1-19 0 9.5 9.5 0 0 1 9.5-9.5zm-3.167 5.015v8.944c0 .707.567.995 1.144.638l6.84-4.396c.732-.423.464-1.105.012-1.364l-6.852-4.462c-.577-.356-1.144-.068-1.144.64z" opacity=".245"/><path d="M41.007 70c.547 0 .993.447.993.999v1.002a.993.993 0 0 1-.993.999H15.993a.997.997 0 0 1-.993-.999v-1.002c0-.556.445-.999.993-.999zm0-9c.547 0 .993.447.993.999v1.002a.993.993 0 0 1-.993.999H15.993a.997.997 0 0 1-.993-.999v-1.002c0-.556.445-.999.993-.999zm-3.006-11c.56 0 .999.448.999 1v3c0 .556-.447 1-.999 1H19a.994.994 0 0 1-1-1v-3c0-.556.447-1 .999-1zm51.006 20c.547 0 .993.447.993.999v1.002a.993.993 0 0 1-.993.999H63.993a.997.997 0 0 1-.993-.999v-1.002c0-.556.445-.999.993-.999zm0-9c.547 0 .993.447.993.999v1.002a.993.993 0 0 1-.993.999H63.993a.997.997 0 0 1-.993-.999v-1.002c0-.556.445-.999.993-.999zm-3.006-11c.56 0 .999.448.999 1v3c0 .556-.447 1-.999 1H67a.994.994 0 0 1-1-1v-3c0-.556.447-1 .999-1zm50.006 20c.547 0 .993.447.993.999v1.002a.993.993 0 0 1-.993.999h-25.014a.997.997 0 0 1-.993-.999v-1.002c0-.556.445-.999.993-.999zm0-9c.547 0 .993.447.993.999v1.002a.993.993 0 0 1-.993.999h-25.014a.997.997 0 0 1-.993-.999v-1.002c0-.556.445-.999.993-.999zm-3.006-11c.56 0 .999.448.999 1v3c0 .556-.447 1-.999 1H114a.994.994 0 0 1-.999-1v-3c0-.556.447-1 .999-1zm51.006 20c.547 0 .993.447.993.999v1.002a.993.993 0 0 1-.993.999h-25.014a.997.997 0 0 1-.993-.999v-1.002c0-.556.445-.999.993-.999zm0-9c.547 0 .993.447.993.999v1.002a.993.993 0 0 1-.993.999h-25.014a.997.997 0 0 1-.993-.999v-1.002c0-.556.445-.999.993-.999zm-3.006-11c.56 0 .999.448.999 1v3c0 .556-.447 1-.999 1H162a.994.994 0 0 1-.999-1v-3c0-.556.447-1 .999-1z" opacity=".247"/><path d="M76.5 21a9.5 9.5 0 0 1 9.5 9.5 9.5 9.5 0 1 1-19 0 9.5 9.5 0 0 1 9.5-9.5zm-3.167 5.015v8.944c0 .707.567.995 1.143.638l6.84-4.396c.733-.423.465-1.105.013-1.364l-6.853-4.462c-.576-.356-1.143-.068-1.143.64zM123.5 21a9.5 9.5 0 0 1 9.5 9.5 9.5 9.5 0 1 1-19 0 9.5 9.5 0 0 1 9.5-9.5zm-3.167 5.015v8.944c0 .707.567.995 1.144.638l6.84-4.396c.732-.423.464-1.105.012-1.364l-6.852-4.462c-.577-.356-1.144-.068-1.144.64zM171.5 21a9.5 9.5 0 0 1 9.5 9.5 9.5 9.5 0 1 1-19 0 9.5 9.5 0 0 1 9.5-9.5zm-3.167 5.015v8.944c0 .707.567.995 1.143.638l6.84-4.396c.733-.423.465-1.105.013-1.364l-6.853-4.462c-.576-.356-1.143-.068-1.143.64z" opacity=".245"/></g>
    </symbol>
    <symbol id="press" viewBox="0 0 200 92">
      <g fill="#FFF" fill-rule="evenodd"><rect opacity=".253" x="10" y="11" width="180" height="70" rx="4"/><path d="M23.007 17A3.001 3.001 0 0 0 20 20.002v1.996A3.002 3.002 0 0 0 23.007 25h33.986A3.001 3.001 0 0 0 60 21.998v-1.996A3.002 3.002 0 0 0 56.993 17H23.007zm120 0A3.001 3.001 0 0 0 140 20.002v1.996A3.002 3.002 0 0 0 143.007 25h33.986A3.001 3.001 0 0 0 180 21.998v-1.996A3.002 3.002 0 0 0 176.993 17h-33.986zm-60 0A3.001 3.001 0 0 0 80 20.002v1.996A3.002 3.002 0 0 0 83.007 25h33.986A3.001 3.001 0 0 0 120 21.998v-1.996A3.002 3.002 0 0 0 116.993 17H83.007z" opacity=".247"/><path d="M179 68c.555 0 1 .447 1 .999v1.002a.997.997 0 0 1-1 .999H21c-.555 0-1-.447-1-.999v-1.002A.997.997 0 0 1 21 68zm0-9c.555 0 1 .447 1 .999v1.002a.997.997 0 0 1-1 .999H21c-.555 0-1-.447-1-.999v-1.002A.997.997 0 0 1 21 59zm0-9c.555 0 1 .447 1 .999v1.002a.997.997 0 0 1-1 .999H21c-.555 0-1-.447-1-.999v-1.002A.997.997 0 0 1 21 50zm0-9c.555 0 1 .447 1 .999v1.002a.997.997 0 0 1-1 .999H21c-.555 0-1-.447-1-.999v-1.002A.997.997 0 0 1 21 41zm0-9c.555 0 1 .447 1 .999v1.002a.997.997 0 0 1-1 .999H21c-.555 0-1-.447-1-.999v-1.002A.997.997 0 0 1 21 32z" opacity=".251"/></g>
    </symbol>
    <symbol id="product-gallery" viewBox="0 0 200 92">
      <g fill="#FFF" fill-rule="evenodd"><path d="M13.99 11A3.996 3.996 0 0 0 10 15v12c0 2.21 1.782 4 3.99 4h172.02a3.996 3.996 0 0 0 3.99-4V15c0-2.21-1.782-4-3.99-4H13.99z" opacity=".252"/><path d="M119 19c.556 0 1 .448 1 1v3c0 .556-.448 1-1 1h-3c-.556 0-1-.448-1-1v-3c0-.556.448-1 1-1zm59.998 1a.997.997 0 0 1 1.002.999v1.002a.997.997 0 0 1-1.002.999h-52.996a.997.997 0 0 1-1.002-.999v-1.002a.997.997 0 0 1 1.002-.999z" opacity=".255"/><path d="M24 19c.556 0 1 .448 1 1v3c0 .556-.448 1-1 1h-3c-.556 0-1-.448-1-1v-3c0-.556.448-1 1-1zm59.998 1a.997.997 0 0 1 1.002.999v1.002a.997.997 0 0 1-1.002.999H31.002A.997.997 0 0 1 30 22.001v-1.002A.997.997 0 0 1 31.002 20z" opacity=".256"/><rect width="37" height="40" rx="4" opacity=".252" transform="translate(10 41)"/><rect width="27" height="3" rx="1" opacity=".248" transform="translate(15 73)"/><path d="M31.482 51.64L39.186 63c.328.479.124 1-.453 1H17.606c-.577 0-.778-.52-.445-.995l6.106-8.806c.333-.474.938-.56 1.345-.147l1.234 1.234c.407.413 1.04.375 1.408-.073l2.963-3.626c.367-.448.936-.426 1.265.052zM37.535 48A2.457 2.457 0 0 1 40 50.45a2.456 2.456 0 0 1-2.465 2.448 2.456 2.456 0 0 1-2.464-2.448A2.457 2.457 0 0 1 37.535 48z" opacity=".263"/><rect width="37" height="40" rx="4" opacity=".252" transform="translate(58 41)"/><rect width="27" height="3" rx="1" opacity=".248" transform="translate(63 73)"/><path d="M79.482 51.64L87.186 63c.328.479.124 1-.453 1H65.606c-.577 0-.778-.52-.445-.995l6.106-8.806c.333-.474.938-.56 1.345-.147l1.234 1.234c.407.413 1.04.375 1.408-.073l2.963-3.626c.367-.448.936-.426 1.265.052zM85.535 48A2.457 2.457 0 0 1 88 50.45a2.456 2.456 0 0 1-2.465 2.448 2.456 2.456 0 0 1-2.464-2.448A2.457 2.457 0 0 1 85.535 48z" opacity=".263"/><g><rect width="37" height="40" rx="4" opacity=".252" transform="translate(153 41)"/><rect width="27" height="3" rx="1" opacity=".248" transform="translate(158 73)"/><path d="M174.482 51.64L182.186 63c.328.479.124 1-.453 1h-21.127c-.577 0-.778-.52-.445-.995l6.106-8.806c.333-.474.938-.56 1.345-.147l1.234 1.234c.407.413 1.04.375 1.408-.073l2.963-3.626c.367-.448.936-.426 1.265.052zm6.053-3.64A2.457 2.457 0 0 1 183 50.45a2.456 2.456 0 0 1-2.465 2.448 2.456 2.456 0 0 1-2.464-2.448 2.457 2.457 0 0 1 2.464-2.45z" opacity=".263"/></g><g><rect width="37" height="40" rx="4" opacity=".252" transform="translate(105 41)"/><rect width="27" height="3" rx="1" opacity=".248" transform="translate(110 73)"/><path d="M126.482 51.64L134.186 63c.328.479.124 1-.453 1h-21.127c-.577 0-.778-.52-.445-.995l6.106-8.806c.333-.474.938-.56 1.345-.147l1.234 1.234c.407.413 1.04.375 1.408-.073l2.963-3.626c.367-.448.936-.426 1.265.052zm6.053-3.64A2.457 2.457 0 0 1 135 50.45a2.456 2.456 0 0 1-2.465 2.448 2.456 2.456 0 0 1-2.464-2.448 2.457 2.457 0 0 1 2.464-2.45z" opacity=".263"/></g></g>
    </symbol>
    <symbol id="product-new" viewBox="0 0 200 92">
      <g fill="#FFF" fill-rule="evenodd"><rect width="180" height="70" rx="4" opacity=".246" transform="translate(10 11)"/><rect width="120" height="5" rx="1" opacity=".246" transform="translate(40 21)"/><g opacity=".255" transform="translate(20 35)"><rect width="160" height="3" rx="1"/><path d="M1 9c-.552 0-1 .443-1 .999v1.002C0 11.553.445 12 1 12h158c.552 0 1-.443 1-.999V9.999A.998.998 0 0 0 159 9H1z"/></g><g transform="translate(20 57)" opacity=".248"><rect x="10" y="1" width="55" height="3" rx="1"/><rect width="5" height="5" rx="1"/><path d="M11.002 10a.997.997 0 0 0-1.002.999v1.002c0 .552.443.999 1.002.999h52.996A.997.997 0 0 0 65 12.001v-1.002A.997.997 0 0 0 63.998 10H11.002zM1 9c-.552 0-1 .444-1 1v3c0 .552.444 1 1 1h3c.552 0 1-.444 1-1v-3c0-.552-.444-1-1-1H1z"/></g><g transform="translate(115 57)" opacity=".253"><rect x="10" y="1" width="55" height="3" rx="1"/><rect width="5" height="5" rx="1"/><path d="M11.002 10a.997.997 0 0 0-1.002.999v1.002c0 .552.443.999 1.002.999h52.996A.997.997 0 0 0 65 12.001v-1.002A.997.997 0 0 0 63.998 10H11.002zM1 9c-.552 0-1 .444-1 1v3c0 .552.444 1 1 1h3c.552 0 1-.444 1-1v-3c0-.552-.444-1-1-1H1z"/></g></g>
    </symbol>
    <symbol id="promo" viewBox="0 0 200 92">
      <g fill="#FFF" fill-rule="evenodd"><rect width="180" height="70" rx="4" opacity=".252" transform="translate(10 11)"/><path d="M144.075 32.146l23.448 34.793c.999 1.465.378 3.061-1.38 3.061h-64.298c-1.758 0-2.369-1.59-1.355-3.048l18.584-26.966c1.011-1.455 2.853-1.715 4.093-.45l3.755 3.778c1.24 1.264 3.168 1.15 4.287-.225l9.017-11.103c1.116-1.373 2.847-1.305 3.849.16zM162.499 21a7.501 7.501 0 1 1 0 15.002 7.501 7.501 0 0 1 0-15.002z" opacity=".252"/><rect width="60" height="5" rx="1" opacity=".25" transform="translate(20 21)"/><g opacity=".25" transform="translate(20 33)"><rect width="60" height="3" rx="1"/><path d="M.991 9A.992.992 0 0 0 0 9.999v1.002c0 .552.448.999.991.999H59.01a.992.992 0 0 0 .991-.999V9.999A.998.998 0 0 0 59.009 9H.99z"/><rect y="18" width="60" height="3" rx="1"/></g></g>
    </symbol>
    <symbol id="rss-feed" viewBox="0 0 200 92">
      <g fill="#FFF" fill-rule="evenodd"><g transform="translate(10 48)"><rect opacity=".254" transform="rotate(-90 32 16.5)" x="15.5" y="-15.5" width="33" height="64" rx="4"/><path d="M22.243 11.332l9.174 13.515c.39.568.148 1.188-.54 1.188H5.722c-.688 0-.927-.617-.53-1.183l7.27-10.474c.396-.565 1.117-.666 1.602-.175l1.469 1.467c.485.491 1.239.447 1.677-.087l3.528-4.313c.436-.533 1.113-.506 1.505.062zM29.216 7a2.912 2.912 0 0 1 2.908 2.917 2.911 2.911 0 0 1-2.908 2.915 2.91 2.91 0 0 1-2.906-2.915A2.911 2.911 0 0 1 29.216 7zm28.789 17a1 1 0 0 1 .995.999v1.002a.994.994 0 0 1-.995.999h-17.01a1 1 0 0 1-.995-.999v-1.002c0-.556.445-.999.995-.999zm0-8a1 1 0 0 1 .995.999v1.002a.994.994 0 0 1-.995.999h-17.01a1 1 0 0 1-.995-.999v-1.002c0-.556.445-.999.995-.999zm-2.012-9C56.55 7 57 7.452 57 8.01v1.98c0 .567-.451 1.01-1.007 1.01H43.007A1.007 1.007 0 0 1 42 9.99V8.01c0-.567.451-1.01 1.007-1.01z" opacity=".247"/></g><g transform="translate(126 48)"><rect opacity=".254" transform="rotate(-90 32 16.5)" x="15.5" y="-15.5" width="33" height="64" rx="4"/><path d="M22.243 11.332l9.174 13.515c.39.568.148 1.188-.54 1.188H5.722c-.688 0-.927-.617-.53-1.183l7.27-10.474c.396-.565 1.117-.666 1.602-.175l1.469 1.467c.485.491 1.239.447 1.677-.087l3.528-4.313c.436-.533 1.113-.506 1.505.062zM29.216 7a2.912 2.912 0 0 1 2.908 2.917 2.911 2.911 0 0 1-2.908 2.915 2.91 2.91 0 0 1-2.906-2.915A2.911 2.911 0 0 1 29.216 7zm28.789 17a1 1 0 0 1 .995.999v1.002a.994.994 0 0 1-.995.999h-17.01a1 1 0 0 1-.995-.999v-1.002c0-.556.445-.999.995-.999zm0-8a1 1 0 0 1 .995.999v1.002a.994.994 0 0 1-.995.999h-17.01a1 1 0 0 1-.995-.999v-1.002c0-.556.445-.999.995-.999zm-2.012-9C56.55 7 57 7.452 57 8.01v1.98c0 .567-.451 1.01-1.007 1.01H43.007A1.007 1.007 0 0 1 42 9.99V8.01c0-.567.451-1.01 1.007-1.01z" opacity=".247"/></g><g transform="translate(10 11)"><rect opacity=".254" transform="rotate(-90 32 16.5)" x="15.5" y="-15.5" width="33" height="64" rx="4"/><path d="M22.243 11.332l9.174 13.515c.39.568.148 1.188-.54 1.188H5.722c-.688 0-.927-.617-.53-1.183l7.27-10.474c.396-.565 1.117-.666 1.602-.175l1.469 1.467c.485.491 1.239.447 1.677-.087l3.528-4.313c.436-.533 1.113-.506 1.505.062zM29.216 7a2.912 2.912 0 0 1 2.908 2.917 2.911 2.911 0 0 1-2.908 2.915 2.91 2.91 0 0 1-2.906-2.915A2.911 2.911 0 0 1 29.216 7zm28.789 17a1 1 0 0 1 .995.999v1.002a.994.994 0 0 1-.995.999h-17.01a1 1 0 0 1-.995-.999v-1.002c0-.556.445-.999.995-.999zm0-8a1 1 0 0 1 .995.999v1.002a.994.994 0 0 1-.995.999h-17.01a1 1 0 0 1-.995-.999v-1.002c0-.556.445-.999.995-.999zm-2.012-9C56.55 7 57 7.452 57 8.01v1.98c0 .567-.451 1.01-1.007 1.01H43.007A1.007 1.007 0 0 1 42 9.99V8.01c0-.567.451-1.01 1.007-1.01z" opacity=".247"/></g><g transform="translate(80 11)"><rect opacity=".254" transform="rotate(-90 32 16.5)" x="15.5" y="-15.5" width="33" height="64" rx="4"/><path d="M22.243 11.332l9.174 13.515c.39.568.148 1.188-.54 1.188H5.722c-.688 0-.927-.617-.53-1.183l7.27-10.474c.396-.565 1.117-.666 1.602-.175l1.469 1.467c.485.491 1.239.447 1.677-.087l3.528-4.313c.436-.533 1.113-.506 1.505.062zM29.216 7a2.912 2.912 0 0 1 2.908 2.917 2.911 2.911 0 0 1-2.908 2.915 2.91 2.91 0 0 1-2.906-2.915A2.911 2.911 0 0 1 29.216 7zm28.789 17a1 1 0 0 1 .995.999v1.002a.994.994 0 0 1-.995.999h-17.01a1 1 0 0 1-.995-.999v-1.002c0-.556.445-.999.995-.999zm0-8a1 1 0 0 1 .995.999v1.002a.994.994 0 0 1-.995.999h-17.01a1 1 0 0 1-.995-.999v-1.002c0-.556.445-.999.995-.999zm-2.012-9C56.55 7 57 7.452 57 8.01v1.98c0 .567-.451 1.01-1.007 1.01H43.007A1.007 1.007 0 0 1 42 9.99V8.01c0-.567.451-1.01 1.007-1.01z" opacity=".247"/></g><g transform="translate(80 48)"><rect opacity=".254" transform="rotate(-90 20 16.5)" x="3.5" y="-3.5" width="33" height="40" rx="4"/><path d="M23.243 11.332l9.174 13.515c.39.568.148 1.188-.54 1.188H6.722c-.688 0-.927-.617-.53-1.183l7.27-10.474c.396-.565 1.117-.666 1.602-.175l1.469 1.467c.485.491 1.239.447 1.677-.087l3.528-4.313c.436-.533 1.113-.506 1.505.062zM30.216 7a2.912 2.912 0 0 1 2.908 2.917 2.911 2.911 0 0 1-2.908 2.915 2.91 2.91 0 0 1-2.906-2.915A2.911 2.911 0 0 1 30.216 7z" opacity=".247"/></g><g transform="translate(150 11)"><rect opacity=".254" transform="rotate(-90 20 16.5)" x="3.5" y="-3.5" width="33" height="40" rx="4"/><path d="M23.243 11.332l9.174 13.515c.39.568.148 1.188-.54 1.188H6.722c-.688 0-.927-.617-.53-1.183l7.27-10.474c.396-.565 1.117-.666 1.602-.175l1.469 1.467c.485.491 1.239.447 1.677-.087l3.528-4.313c.436-.533 1.113-.506 1.505.062zM30.216 7a2.912 2.912 0 0 1 2.908 2.917 2.911 2.911 0 0 1-2.908 2.915 2.91 2.91 0 0 1-2.906-2.915A2.911 2.911 0 0 1 30.216 7z" opacity=".247"/></g></g>
    </symbol>
    <symbol id="reviews" viewBox="0 0 200 92">
      <g fill="#FFF" fill-rule="evenodd"><path d="M89.5 77a2.5 2.5 0 1 1 0 5 2.5 2.5 0 0 1 0-5zm10 0a2.5 2.5 0 1 1 0 5 2.5 2.5 0 0 1 0-5zm10 0a2.5 2.5 0 1 1 0 5 2.5 2.5 0 0 1 0-5z" opacity=".249"/><rect opacity=".251" x="10" y="10" width="54" height="60" rx="4"/><rect width="26" height="5" rx="1" opacity=".254" transform="translate(24 18)"/><g opacity=".252" transform="translate(20 30)"><rect width="34" height="3" rx="1"/><path d="M1 9c-.553 0-1 .443-1 .999v1.002C0 11.553.455 12 1 12h32c.553 0 1-.443 1-.999V9.999C34 9.447 33.545 9 33 9H1z"/></g><g opacity=".252" transform="translate(20 48)"><rect width="34" height="3" rx="1"/><path d="M1 9c-.553 0-1 .443-1 .999v1.002C0 11.553.455 12 1 12h32c.553 0 1-.443 1-.999V9.999C34 9.447 33.545 9 33 9H1z"/></g><rect opacity=".251" x="73" y="10" width="54" height="60" rx="4"/><rect width="26" height="5" rx="1" opacity=".254" transform="translate(87 18)"/><g opacity=".252" transform="translate(83 30)"><rect width="34" height="3" rx="1"/><path d="M1 9c-.553 0-1 .443-1 .999v1.002C0 11.553.455 12 1 12h32c.553 0 1-.443 1-.999V9.999C34 9.447 33.545 9 33 9H1z"/></g><g opacity=".252" transform="translate(83 48)"><rect width="34" height="3" rx="1"/><path d="M1 9c-.553 0-1 .443-1 .999v1.002C0 11.553.455 12 1 12h32c.553 0 1-.443 1-.999V9.999C34 9.447 33.545 9 33 9H1z"/></g><rect opacity=".251" x="136" y="10" width="54" height="60" rx="4"/><rect width="26" height="5" rx="1" opacity=".254" transform="translate(150 18)"/><g opacity=".252" transform="translate(146 30)"><rect width="34" height="3" rx="1"/><path d="M1 9c-.553 0-1 .443-1 .999v1.002C0 11.553.455 12 1 12h32c.553 0 1-.443 1-.999V9.999C34 9.447 33.545 9 33 9H1z"/></g><g opacity=".252" transform="translate(146 48)"><rect width="34" height="3" rx="1"/><path d="M1 9c-.553 0-1 .443-1 .999v1.002C0 11.553.455 12 1 12h32c.553 0 1-.443 1-.999V9.999C34 9.447 33.545 9 33 9H1z"/></g></g>
    </symbol>
    <symbol id="shortcut-navigation" viewBox="0 0 200 80">
      <g fill="none" fill-rule="evenodd"><rect fill="#FFF" opacity=".247" x="10" y="20" width="180" height="40" rx="4"/><path d="M38.069 35.922c-.14-.202-.309-.209-.465-.018l-2.963 3.625c-.556.68-1.535.733-2.149.11l-1.236-1.235c-.176-.18-.416-.15-.578.08l-6.107 8.807c-.12.171-.104.209.035.209h21.127c.14 0 .16-.043.04-.219l-7.704-11.36zm6.466-3.422a1.957 1.957 0 0 0-1.964 1.95c0 1.075.879 1.948 1.964 1.948A1.956 1.956 0 0 0 46.5 34.45c0-1.076-.879-1.95-1.965-1.95zm36.534 3.422c-.14-.202-.309-.209-.465-.018l-2.963 3.625c-.556.68-1.535.733-2.149.11l-1.236-1.235c-.176-.18-.416-.15-.578.08l-6.107 8.807c-.12.171-.104.209.035.209h21.127c.14 0 .16-.043.04-.219l-7.704-11.36zm6.466-3.422a1.957 1.957 0 0 0-1.964 1.95c0 1.075.879 1.948 1.964 1.948A1.956 1.956 0 0 0 89.5 34.45c0-1.076-.879-1.95-1.965-1.95zm36.534 3.422c-.14-.202-.309-.209-.465-.018l-2.963 3.625c-.556.68-1.535.733-2.149.11l-1.236-1.235c-.176-.18-.416-.15-.578.08l-6.107 8.807c-.12.171-.104.209.035.209h21.127c.14 0 .16-.043.04-.219l-7.704-11.36zm6.466-3.422a1.957 1.957 0 0 0-1.964 1.95c0 1.075.879 1.948 1.964 1.948a1.956 1.956 0 0 0 1.965-1.948c0-1.076-.879-1.95-1.965-1.95zm36.534 3.422c-.14-.202-.309-.209-.465-.018l-2.963 3.625c-.556.68-1.535.733-2.149.11l-1.236-1.235c-.176-.18-.416-.15-.578.08l-6.107 8.807c-.12.171-.104.209.035.209h21.127c.14 0 .16-.043.04-.219l-7.704-11.36zm6.466-3.422a1.957 1.957 0 0 0-1.964 1.95c0 1.075.879 1.948 1.964 1.948a1.956 1.956 0 0 0 1.965-1.948c0-1.076-.879-1.95-1.965-1.95z" opacity=".248" stroke="#FFF"/></g>
    </symbol>
    <symbol id="social" viewBox="0 0 200 80">
      <g fill="none" fill-rule="evenodd" opacity=".252"><rect width="40" height="31" rx="4" fill="#E4E4E4" transform="translate(10 20)"/><path d="M33.111 29.867l8.04 12.071c.342.508.13 1.062-.473 1.062H18.633c-.603 0-.813-.552-.465-1.057l6.372-9.356c.346-.505.978-.595 1.403-.156l1.287 1.31c.425.44 1.086.4 1.47-.078l3.092-3.852c.382-.476.976-.452 1.32.056zM39.428 26C40.85 26 42 27.165 42 28.603c0 1.436-1.151 2.601-2.572 2.601-1.42 0-2.57-1.165-2.57-2.601 0-1.438 1.15-2.603 2.57-2.603z" fill="#B7B7B7"/><rect width="26" height="5" rx="1" transform="translate(17 55)" fill="#B7B7B7"/><rect width="40" height="31" rx="4" fill="#E4E4E4" transform="translate(57 20)"/><path d="M80.111 29.867l8.04 12.071c.342.508.13 1.062-.473 1.062H65.633c-.603 0-.813-.552-.465-1.057l6.372-9.356c.346-.505.978-.595 1.403-.156l1.287 1.31c.425.44 1.086.4 1.47-.078l3.092-3.852c.382-.476.976-.452 1.32.056zM86.428 26C87.85 26 89 27.165 89 28.603c0 1.436-1.151 2.601-2.572 2.601-1.42 0-2.57-1.165-2.57-2.601 0-1.438 1.15-2.603 2.57-2.603z" fill="#B7B7B7"/><rect width="26" height="5" rx="1" transform="translate(64 55)" fill="#B7B7B7"/><rect width="40" height="31" rx="4" fill="#E4E4E4" transform="translate(103 20)"/><path d="M126.111 29.867l8.04 12.071c.342.508.13 1.062-.473 1.062h-22.045c-.603 0-.813-.552-.465-1.057l6.372-9.356c.346-.505.978-.595 1.403-.156l1.287 1.31c.425.44 1.086.4 1.47-.078l3.092-3.852c.382-.476.976-.452 1.32.056zM132.428 26c1.421 0 2.572 1.165 2.572 2.603 0 1.436-1.151 2.601-2.572 2.601-1.42 0-2.57-1.165-2.57-2.601 0-1.438 1.15-2.603 2.57-2.603z" fill="#B7B7B7"/><rect width="26" height="5" rx="1" transform="translate(110 55)" fill="#B7B7B7"/><g><rect width="40" height="31" rx="4" fill="#E4E4E4" transform="translate(150 20)"/><path d="M173.111 29.867l8.04 12.071c.342.508.13 1.062-.473 1.062h-22.045c-.603 0-.813-.552-.465-1.057l6.372-9.356c.346-.505.978-.595 1.403-.156l1.287 1.31c.425.44 1.086.4 1.47-.078l3.092-3.852c.382-.476.976-.452 1.32.056zM179.428 26c1.421 0 2.572 1.165 2.572 2.603 0 1.436-1.151 2.601-2.572 2.601-1.42 0-2.57-1.165-2.57-2.601 0-1.438 1.15-2.603 2.57-2.603z" fill="#B7B7B7"/><rect width="26" height="5" rx="1" transform="translate(157 55)" fill="#B7B7B7"/></g></g>
    </symbol>
    <symbol id="support-contact" viewBox="0 0 200 92">
      <g fill="#FFF" fill-rule="evenodd"><rect opacity=".251" x="10" y="11" width="180" height="70" rx="4"/><rect opacity=".249" x="28" y="51" width="20" height="20" rx="10"/><rect width="30" height="5" rx="1" opacity=".254" transform="translate(60 59)"/><rect opacity=".249" x="110" y="51" width="20" height="20" rx="10"/><rect width="30" height="5" rx="1" opacity=".254" transform="translate(142 59)"/><g opacity=".252" transform="translate(28 21)"><rect width="62" height="3" rx="1"/><path d="M.999 9A.996.996 0 0 0 0 9.999v1.002c0 .552.446.999.999.999h60.002a.996.996 0 0 0 .999-.999V9.999A.998.998 0 0 0 61.001 9H.999z"/></g><g opacity=".252" transform="translate(110 21)"><rect width="62" height="3" rx="1"/><path d="M.999 9A.996.996 0 0 0 0 9.999v1.002c0 .552.446.999.999.999h60.002a.996.996 0 0 0 .999-.999V9.999A.998.998 0 0 0 61.001 9H.999z"/></g></g>
    </symbol>
    <symbol id="support-global" viewBox="0 0 200 92">
      <g fill="none" fill-rule="evenodd"><path fill="#333" d="M0 0h200v92H0z"/><path d="M10 24v52.992A3.996 3.996 0 0 0 13.99 81h172.02c2.203 0 3.99-1.8 3.99-4.008V28.008A3.996 3.996 0 0 0 186.01 24H10z" fill="#FFF" opacity=".245"/><path d="M13.995 11A4 4 0 0 0 10 15.007V24h37v-8.993A3.998 3.998 0 0 0 43.005 11h-29.01z" fill="#FFF" opacity=".497"/><path d="M52.995 11A4 4 0 0 0 49 15.007V24h37v-8.993A3.998 3.998 0 0 0 82.005 11h-29.01zm39 0A4 4 0 0 0 88 15.007V24h37v-8.993A3.998 3.998 0 0 0 121.005 11h-29.01zm39 0A4 4 0 0 0 127 15.007V24h37v-8.993A3.998 3.998 0 0 0 160.005 11h-29.01z" fill="#FFF" opacity=".502"/><path d="M88.997 68a1 1 0 0 1 1.003.999v1.002c0 .556-.45.999-1.003.999H21.003A1 1 0 0 1 20 70.001v-1.002c0-.556.45-.999 1.003-.999zm0-9a1 1 0 0 1 1.003.999v1.002c0 .556-.45.999-1.003.999H21.003A1 1 0 0 1 20 61.001v-1.002c0-.556.45-.999 1.003-.999zm0-9a1 1 0 0 1 1.003.999v1.002c0 .556-.45.999-1.003.999H21.003A1 1 0 0 1 20 52.001v-1.002c0-.556.45-.999 1.003-.999zm0-9a1 1 0 0 1 1.003.999v1.002c0 .556-.45.999-1.003.999H21.003A1 1 0 0 1 20 43.001v-1.002c0-.556.45-.999 1.003-.999zm0-9a1 1 0 0 1 1.003.999v1.002c0 .556-.45.999-1.003.999H21.003A1 1 0 0 1 20 34.001v-1.002c0-.556.45-.999 1.003-.999zm90 36a1 1 0 0 1 1.003.999v1.002c0 .556-.45.999-1.003.999h-67.994a1 1 0 0 1-1.003-.999v-1.002c0-.556.45-.999 1.003-.999zm0-9a1 1 0 0 1 1.003.999v1.002c0 .556-.45.999-1.003.999h-67.994a1 1 0 0 1-1.003-.999v-1.002c0-.556.45-.999 1.003-.999zm0-9a1 1 0 0 1 1.003.999v1.002c0 .556-.45.999-1.003.999h-67.994a1 1 0 0 1-1.003-.999v-1.002c0-.556.45-.999 1.003-.999zm0-9a1 1 0 0 1 1.003.999v1.002c0 .556-.45.999-1.003.999h-67.994a1 1 0 0 1-1.003-.999v-1.002c0-.556.45-.999 1.003-.999zm0-9a1 1 0 0 1 1.003.999v1.002c0 .556-.45.999-1.003.999h-67.994a1 1 0 0 1-1.003-.999v-1.002c0-.556.45-.999 1.003-.999z" fill="#FFF" opacity=".498"/></g>
    </symbol>
    <symbol id="support-header" viewBox="0 0 200 64">
      <g fill="none" fill-rule="evenodd"><rect fill="#FFF" opacity=".25" x="10" y="20" width="180" height="25" rx="4"/><path d="M165.959 27.378c-.183-.263-.428-.273-.632-.025l-3.35 4.079c-.603.734-1.664.791-2.33.12l-1.397-1.391c-.23-.23-.55-.193-.755.1l-6.904 9.907c-.162.231-.12.332.094.332h23.882c.216 0 .262-.107.1-.343l-8.708-12.78zm7.255-3.878c-1.264 0-2.285 1.01-2.285 2.256 0 1.244 1.021 2.254 2.285 2.254 1.264 0 2.286-1.01 2.286-2.254 0-1.245-1.022-2.256-2.286-2.256z" opacity=".247" stroke="#FFF"/><path d="M21.002 30A.998.998 0 0 0 20 31v3c0 .552.443 1 1.002 1h107.996A.998.998 0 0 0 130 34v-3c0-.552-.443-1-1.002-1H21.002z" fill="#FFF" opacity=".249"/></g>
    </symbol>
    <symbol id="tech-specs" viewBox="0 0 200 92">
      <g fill="#FFF" fill-rule="evenodd"><rect opacity=".253" x="10" y="11" width="180" height="70" rx="4"/><path d="M88.997 68a1 1 0 0 1 1.003.999v1.002c0 .556-.45.999-1.003.999H21.003A1 1 0 0 1 20 70.001v-1.002c0-.556.45-.999 1.003-.999zm0-9a1 1 0 0 1 1.003.999v1.002c0 .556-.45.999-1.003.999H21.003A1 1 0 0 1 20 61.001v-1.002c0-.556.45-.999 1.003-.999zm0-9a1 1 0 0 1 1.003.999v1.002c0 .556-.45.999-1.003.999H21.003A1 1 0 0 1 20 52.001v-1.002c0-.556.45-.999 1.003-.999zm0-9a1 1 0 0 1 1.003.999v1.002c0 .556-.45.999-1.003.999H21.003A1 1 0 0 1 20 43.001v-1.002c0-.556.45-.999 1.003-.999zm0-9a1 1 0 0 1 1.003.999v1.002c0 .556-.45.999-1.003.999H21.003A1 1 0 0 1 20 34.001v-1.002c0-.556.45-.999 1.003-.999zm0-9a1 1 0 0 1 1.003.999v1.002c0 .556-.45.999-1.003.999H21.003A1 1 0 0 1 20 25.001v-1.002c0-.556.45-.999 1.003-.999z" opacity=".251"/><path d="M178.997 68a1 1 0 0 1 1.003.999v1.002c0 .556-.45.999-1.003.999h-67.994a1 1 0 0 1-1.003-.999v-1.002c0-.556.45-.999 1.003-.999zm0-9a1 1 0 0 1 1.003.999v1.002c0 .556-.45.999-1.003.999h-67.994a1 1 0 0 1-1.003-.999v-1.002c0-.556.45-.999 1.003-.999zm0-9a1 1 0 0 1 1.003.999v1.002c0 .556-.45.999-1.003.999h-67.994a1 1 0 0 1-1.003-.999v-1.002c0-.556.45-.999 1.003-.999zm0-9a1 1 0 0 1 1.003.999v1.002c0 .556-.45.999-1.003.999h-67.994a1 1 0 0 1-1.003-.999v-1.002c0-.556.45-.999 1.003-.999zm0-9a1 1 0 0 1 1.003.999v1.002c0 .556-.45.999-1.003.999h-67.994a1 1 0 0 1-1.003-.999v-1.002c0-.556.45-.999 1.003-.999zm0-9a1 1 0 0 1 1.003.999v1.002c0 .556-.45.999-1.003.999h-67.994a1 1 0 0 1-1.003-.999v-1.002c0-.556.45-.999 1.003-.999z" opacity=".25"/></g>
    </symbol>
    <symbol id="video-gallery" viewBox="0 0 200 92">
      <g fill="#FFF" fill-rule="evenodd"><g transform="translate(136 51)"><rect opacity=".257" width="54" height="30" rx="4"/><path d="M27 6a9 9 0 1 1 0 18 9 9 0 0 1 0-18zm-3 4.751v8.473c0 .67.537.943 1.083.605l6.48-4.165c.694-.4.44-1.047.012-1.292l-6.492-4.227c-.546-.338-1.083-.065-1.083.606z" opacity=".253"/></g><g transform="translate(10 51)"><rect opacity=".248" width="54" height="30" rx="4"/><path d="M27 6a9 9 0 1 1 0 18 9 9 0 0 1 0-18zm-3 4.751v8.473c0 .67.537.943 1.083.605l6.48-4.165c.694-.4.44-1.047.012-1.292l-6.492-4.227c-.546-.338-1.083-.065-1.083.606z" opacity=".251"/></g><g transform="translate(73 51)"><rect opacity=".249" width="54" height="30" rx="4"/><path d="M27 6a9 9 0 1 1 0 18 9 9 0 0 1 0-18zm-3 4.751v8.473c0 .67.537.943 1.083.605l6.48-4.165c.694-.4.44-1.047.012-1.292l-6.492-4.227c-.546-.338-1.083-.065-1.083.606z" opacity=".253"/></g><g transform="translate(136 11)"><rect opacity=".252" width="54" height="30" rx="4"/><path d="M27 6a9 9 0 1 1 0 18 9 9 0 0 1 0-18zm-3 4.751v8.473c0 .67.537.943 1.083.605l6.48-4.165c.694-.4.44-1.047.012-1.292l-6.492-4.227c-.546-.338-1.083-.065-1.083.606z" opacity=".248"/></g><g transform="translate(73 11)"><rect opacity=".245" width="54" height="30" rx="4"/><path d="M27 6a9 9 0 1 1 0 18 9 9 0 0 1 0-18zm-3 4.751v8.473c0 .67.537.943 1.083.605l6.48-4.165c.694-.4.44-1.047.012-1.292l-6.492-4.227c-.546-.338-1.083-.065-1.083.606z" opacity=".246"/></g><g transform="translate(10 11)"><rect opacity=".247" width="54" height="30" rx="4"/><path d="M27 6a9 9 0 1 1 0 18 9 9 0 0 1 0-18zm-3 4.751v8.473c0 .67.537.943 1.083.605l6.48-4.165c.694-.4.44-1.047.012-1.292l-6.492-4.227c-.546-.338-1.083-.065-1.083.606z" opacity=".253"/></g></g>
    </symbol>
    <symbol id="video" viewBox="0 0 200 92">
      <g fill="#FFF" fill-rule="evenodd"><rect width="180" height="70" rx="4" opacity=".249" transform="translate(10 11)"/><path d="M100 26c11.046 0 20 8.953 20 20 0 11.046-8.954 20-20 20s-20-8.954-20-20c0-11.047 8.954-20 20-20zm-6.684 10.593v18.83c0 1.488 1.193 2.095 2.406 1.344l14.4-9.256c1.542-.891.978-2.327.027-2.871l-14.427-9.393c-1.213-.751-2.406-.145-2.406 1.346z" opacity=".25"/></g>
    </symbol>
    <symbol id="access" viewBox="0 0 25 25">
      <path d="M17.9 4.1h-5.8l2.6-2.7L13-.2 8 5.1l5 5.4L14.6 9 12 6.3h5.8c1.3 0 2.4 1.1 2.4 2.4V20h2.2V8.6c0-2.5-2-4.5-4.5-4.5zM10.6 15.9l2.6 2.7H7.4c-1.3 0-2.4-1.1-2.4-2.4V4.9H2.7v11.4c0 2.5 2 4.6 4.6 4.6h5.8l-2.6 2.7 1.6 1.5 5-5.3-5-5.4-1.5 1.5z"/>
    </symbol>
    <symbol id="apple" viewBox="0 0 25 25">
      <path d="M18.9 13.2c0-3 2.4-4.4 2.5-4.5-1.4-2-3.5-2.3-4.3-2.3-1.8-.2-3.6 1.1-4.5 1.1-.9 0-2.4-1-3.9-1-2 0-3.8 1.2-4.9 2.9-1.9 3.6-.4 9 1.6 11.9 1 1.4 2.2 3 3.7 3 1.5-.1 2-1 3.8-1 1.8 0 2.3 1 3.9.9 1.6 0 2.6-1.5 3.6-2.9C21.5 19.6 22 18 22 18s-3.1-1.2-3.1-4.8M16 4.5c.8-1 1.4-2.4 1.2-3.7-1.2 0-2.6.8-3.5 1.8-.8.9-1.4 2.3-1.2 3.6 1.3.1 2.6-.7 3.5-1.7"/>
    </symbol>
</svg>