<svg xmlns="http://www.w3.org/2000/svg">
    <symbol id="company-info" viewBox="0 0 15.82 19.46">
      <path d="M0 0v19.46h15.82V0zm14.92 18.56H.9V.9h14z"/><path d="M12 12H8.56v3.4H12zm-.9 2.5H9.46v-1.6h1.6zM7.19 12h-3.4v3.4h3.4zm-.9 2.5h-1.6v-1.6h1.6zM12 7.51H8.56v3.4H12zm-.9 2.5H9.46V8.42h1.6zm-3.91-2.5h-3.4v3.4h3.4zM6.29 10h-1.6V8.42h1.6zM12 3H8.56v3.42H12zm-.9 2.49H9.46V3.93h1.6zM7.19 3h-3.4v3.42h3.4zm-.9 2.49h-1.6V3.93h1.6z"/>
    </symbol>
    <symbol id="corporate-compliance" viewBox="0 0 19.72 19.86">
      <path d="M3.97 12.05h7.92v.9H3.97zm0-2.58h7.92v.9H3.97zm0-2.58h7.92v.9H3.97zm0-2.58h7.92v.9H3.97z"/><path d="M15.58 11.24v-8A3.26 3.26 0 0 0 12.33 0H3.25A3.26 3.26 0 0 0 0 3.25v12.67a3.25 3.25 0 0 0 3.25 3.24h9.08a3.09 3.09 0 0 0 .61-.08 4.26 4.26 0 0 0 2.46.78 4.31 4.31 0 0 0 .18-8.62zM.9 15.92V3.25A2.35 2.35 0 0 1 3.25.9h9.08a2.35 2.35 0 0 1 2.34 2.35v8a4.32 4.32 0 0 0-3.59 4.25 4.26 4.26 0 0 0 1 2.72H3.25a2.35 2.35 0 0 1-2.35-2.3zm14.5 3a3.42 3.42 0 1 1 3.42-3.42A3.42 3.42 0 0 1 15.4 19z"/><path d="M17.81 13.32a.45.45 0 0 0-.62.13l-2 3-1.45-1.15a.44.44 0 0 0-.63.08.45.45 0 0 0 .07.63l2.25 1.74L17.94 14a.45.45 0 0 0-.13-.68z"/>
    </symbol>
    <symbol id="data-security" viewBox="0 0 17.82 19.53">
      <path d="M11.84 7.79h-.13V5.65a1.43 1.43 0 0 0-1-1.38h-3a1.41 1.41 0 0 0-1.36 1.39v2.13h-.1A1.85 1.85 0 0 0 4.4 9.64V13a1.85 1.85 0 0 0 1.85 1.85h5.59A1.85 1.85 0 0 0 13.69 13V9.64a1.85 1.85 0 0 0-1.85-1.85zM7.25 5.68a.5.5 0 0 1 .51-.52h2.75a.51.51 0 0 1 .3.49v2.14H7.25zM12.79 13a1 1 0 0 1-.95.95H6.25a1 1 0 0 1-1-.95V9.64a.94.94 0 0 1 1-1h5.59a.94.94 0 0 1 .95 1z"/><path d="M9 9.49a.9.9 0 0 0-.9.9.88.88 0 0 0 .44.75v1.47a.47.47 0 1 0 .93 0v-1.48a.88.88 0 0 0 .42-.74.89.89 0 0 0-.89-.9z"/><path d="M17.62 3.36l-.05-.25L10.25.27A3.63 3.63 0 0 0 9.09 0h-.22a3.63 3.63 0 0 0-1.26.24L.25 3.09v.25c0 .13-2.26 13 8.57 16.15h.26c10.79-3.09 8.56-16 8.54-16.13zm-1.06 6.69c-.94 4.44-3.51 7.31-7.62 8.55-4.15-1.23-6.73-4.11-7.68-8.6a19.47 19.47 0 0 1-.21-6.29L8 1.06A2.84 2.84 0 0 1 8.89.9L9 .88V.9a2.83 2.83 0 0 1 .84.19l6.89 2.67a19.18 19.18 0 0 1-.17 6.29z"/>
    </symbol>
    <symbol id="down-arrow" viewBox="0 0 17 9.52">
      <path d="M16.73.32a1 1 0 0 0-1.41 0l-7 6.49L1.7.29A1 1 0 1 0 .3 1.71l8 7.81 8.41-7.79a1 1 0 0 0 .02-1.41z"/>
    </symbol>
    <symbol id="embedded-industrial" viewBox="0 0 19.69 15.59">
      <path d="M19.69 3.84V2.66h-2v-.57A2.09 2.09 0 0 0 15.62 0H4.2a2.09 2.09 0 0 0-2.08 2.09v.57H0v1.18h2.12v1.91H0v1.17h2.12v1.91H0V10h2.12v1.92H0v1.17h2.12v.41a2.09 2.09 0 0 0 2.08 2.09h11.42a2.09 2.09 0 0 0 2.08-2.09v-.41h2v-1.17h-2V10h2V8.83h-2V6.92h2V5.75h-2V3.84zm-4.07 10.85H4.2A1.18 1.18 0 0 1 3 13.5v-6h4.69L10.1 6a1.09 1.09 0 0 0 .56.18 1.07 1.07 0 1 0-1.07-1.03.7.7 0 0 0 0 .14L7.44 6.62H3V2.09A1.18 1.18 0 0 1 4.2.9h11.42a1.18 1.18 0 0 1 1.18 1.19v5h-4.22l-2.41 1.49a1 1 0 0 0-.55-.17 1.07 1.07 0 1 0 1.06 1.06v-.13L12.84 8h4v5.5a1.18 1.18 0 0 1-1.22 1.19z" data-name="Embedded Industrial"/>
    </symbol>
    <symbol id="flash" viewBox="0 0 15.44 18.01">
      <path d="M11.79 0H1.91A2 2 0 0 0 .55.52 2 2 0 0 0 0 2v2.41h.78v3.12H.09v7.84a2.72 2.72 0 0 0 .65 1.91 2.47 2.47 0 0 0 2 .72h10.51a2.34 2.34 0 0 0 1.53-.55 2.26 2.26 0 0 0 .66-1.74V4.39zm2.75 15.72a1.38 1.38 0 0 1-.37 1.07 1.44 1.44 0 0 1-1 .31H2.68a1.72 1.72 0 0 1-1.28-.43 1.86 1.86 0 0 1-.4-1.26v-7h.69v-4.9H.9V2a1.13 1.13 0 0 1 .27-.82A1.16 1.16 0 0 1 1.9.9h9.47l3.17 3.82z" data-name="Layer 1"/>
    </symbol>
    <symbol id="gaming" viewBox="0 0 12.86 20.84">
      <path d="M5.12 7.37a1.39 1.39 0 1 0 2.77 0v-2.7a1.39 1.39 0 1 0-2.77 0zM6 4.67a.48.48 0 1 1 1 0v2.7a.48.48 0 1 1-1 0z"/><path d="M12.82 13.34a65.57 65.57 0 0 1-.47-9.81 2.49 2.49 0 0 0-.85-2.21L8.89.07a.92.92 0 0 0-.82.08.8.8 0 0 0-.33.71v.76a.45.45 0 1 0 .9 0V.94l2.4 1.15c.42.29.44 1.07.41 1.36a64.46 64.46 0 0 0 .47 10 7.42 7.42 0 0 1-.1 1.85c-.6 4.23-5 4.61-5.16 4.62-1.94 0-3.34-.49-4.15-1.43a3.52 3.52 0 0 1-.76-2.63 53.83 53.83 0 0 0 .47-5.58A41.84 41.84 0 0 0 2 5.17v-.08a.34.34 0 0 0 0-.18C1.89 3.83 1.8 3 1.77 2.69a2.23 2.23 0 0 1 1-1.07L4.59 1v.7a.46.46 0 0 0 .91 0V1a1.15 1.15 0 0 0-.28-.8.69.69 0 0 0-.53-.2L2.42.79A3.12 3.12 0 0 0 .87 2.56v.15s.09.84.2 2A1.18 1.18 0 0 0 0 5.81v3.57a1.18 1.18 0 0 0 1.18 1.17h.14c0 .77-.13 2.91-.45 5.2a4.45 4.45 0 0 0 1 3.33q1.48 1.74 4.87 1.76s5.32-.44 6-5.39a7.87 7.87 0 0 0 .08-2.11zM.9 9.38V5.81a.27.27 0 0 1 .23-.25c.12 1.41.23 3 .22 4.09h-.17a.28.28 0 0 1-.28-.27z"/>
    </symbol>
    <symbol id="legal" viewBox="0 0 23.16 14.36">
      <path d="M18.53 1.61h-.34A6.45 6.45 0 0 1 15 .45a2.57 2.57 0 0 0-2.25-.31 2.66 2.66 0 0 0-1.22 1 2.36 2.36 0 0 0-1.11-1 2.57 2.57 0 0 0-2.3.33A6.31 6.31 0 0 1 5 1.7h-.34L0 14.23l.52.1a1.85 1.85 0 0 0 .43 0 12.85 12.85 0 0 0 5.71-1.84 4.42 4.42 0 0 1 3-.19A2.61 2.61 0 0 1 11.1 14l.24-.09h.42L12 14c1.22-2.79 4.36-1.57 4.45-1.53 3.09 1.63 5 1.85 5.74 1.85a2.89 2.89 0 0 0 .43 0l.52-.1zM11.07 12.2a3.08 3.08 0 0 0-1-.7 5.27 5.27 0 0 0-3.77.21 13.35 13.35 0 0 1-5 1.74l4-10.85a8.11 8.11 0 0 0 3.3-1.31A1.73 1.73 0 0 1 10.08 1a2 2 0 0 1 1 1.18zm5.78-.57a4.51 4.51 0 0 0-4.88.8V2.22A2.26 2.26 0 0 1 13.07 1a1.73 1.73 0 0 1 1.46.23 8 8 0 0 0 3.38 1.33l4 10.85a13.5 13.5 0 0 1-5.06-1.78z"/>
    </symbol>
    <symbol id="memory" viewBox="0 0 24.79 8.66">
      <path d="M23.77 0H1a1 1 0 0 0-1 1v6a1 1 0 0 0 1 1l8.1.67h6.79l7.9-.67a1 1 0 0 0 1-1V1a1 1 0 0 0-1.02-1zm.12 7a.12.12 0 0 1-.12.12l-7.93.67H9.13L1 7.09A.12.12 0 0 1 .9 7V1A.13.13 0 0 1 1 .9h22.77a.12.12 0 0 1 .12.13z"/><path d="M18.81 2.67h2.5V5.3h-2.5zm-5 0h2.5V5.3h-2.5zm-5 0h2.5V5.3h-2.5zm-5 0h2.5V5.3h-2.5z"/>
    </symbol>
    <symbol id="minus" viewBox="0 0 12 2">
      <path d="M11 2a1 1 0 0 0 1-1 1 1 0 0 0-1-1H1a1 1 0 0 0-1 1 1 1 0 0 0 1 1z"/>
    </symbol>
    <symbol id="mobile-mobile-lifestyle" viewBox="0 0 10.82 18.57">
      <path d="M8.71 0h-6.6A2.12 2.12 0 0 0 0 2.11v14.36a2.11 2.11 0 0 0 2.11 2.1h6.6a2.11 2.11 0 0 0 2.11-2.1V2.11A2.12 2.12 0 0 0 8.71 0zm1.21 16.47a1.21 1.21 0 0 1-1.21 1.2h-6.6a1.21 1.21 0 0 1-1.21-1.2V2.11A1.21 1.21 0 0 1 2.11.9h6.6a1.21 1.21 0 0 1 1.21 1.21z"/><circle cx="5.35" cy="14.9" r="1.21"/>
    </symbol>
    <symbol id="pc-performance" viewBox="0 0 18.7 16.59">
      <path d="M9.35 0a9.35 9.35 0 0 0-6.43 16.14.54.54 0 0 0 .2.1.47.47 0 0 0 .17 0 .48.48 0 0 0 .32-.13l1.82-1.83a.45.45 0 1 0-.63-.63l-1.52 1.56A8.39 8.39 0 0 1 .92 9.83H3.4a.45.45 0 1 0 0-.9H.92a8.38 8.38 0 0 1 1.77-4.76l1.48 1.48a.44.44 0 0 0 .32.13.45.45 0 0 0 .32-.78L3.28 3.49A8.4 8.4 0 0 1 8.91.92v2.3a.45.45 0 1 0 .9 0V.92a8.45 8.45 0 0 1 5.38 2.34l-1.68 1.67a.44.44 0 0 0 0 .63.45.45 0 0 0 .32.14.47.47 0 0 0 .32-.14l1.64-1.64a8.44 8.44 0 0 1 2 5.05h-2.4a.46.46 0 0 0 0 .91h2.38a8.43 8.43 0 0 1-2.67 5.65l-1.66-1.65a.45.45 0 0 0-.64 0 .45.45 0 0 0 0 .63l1.83 1.82.1.07a.44.44 0 0 0 .35.16.42.42 0 0 0 .29-.11A9.35 9.35 0 0 0 9.35 0z"/><path d="M14.24 7.74a.74.74 0 0 0-.54-.49h-.07l-2.81.14a2.5 2.5 0 1 0-2.54 4.28 2.41 2.41 0 0 0 1.08.25 2.63 2.63 0 0 0 .83-.14A2.54 2.54 0 0 0 11.78 10L14 8.38a.65.65 0 0 0 .24-.64zM11 9.53v.17a1.59 1.59 0 0 1-2.26 1.14 1.63 1.63 0 0 1-.82-.91A1.6 1.6 0 0 1 9.36 7.8a1.63 1.63 0 0 1 1 .37l.13.12 2.27-.12z"/>
    </symbol>
    <symbol id="personal-storage" viewBox="0 0 16.72 20.62">
      <rect x="12.87" y="16.23" width="1.69" height="1.69" rx=".47" ry=".47"/><rect x="12.87" y="11.31" width="1.69" height="1.69" rx=".47" ry=".47"/><rect x="12.87" y="6.39" width="1.69" height="1.69" rx=".47" ry=".47"/><path d="M16.71 3c0-1.95-4.31-3-8.35-3S0 1.06 0 3v14.59c0 2 4.31 3 8.36 3s8.36-1.07 8.36-3V3zM8.36.9C13 .9 15.82 2.14 15.82 3S13 5.16 8.36 5.16.9 3.92.9 3 3.74.9 8.36.9zm0 18.82C3.74 19.72.9 18.48.9 17.59v-3.44c1.47 1.06 4.53 1.61 7.46 1.61s6-.55 7.46-1.61v3.44c0 .89-2.82 2.13-7.46 2.13zm0-4.86C3.74 14.86.9 13.62.9 12.73V9.3c1.47 1 4.53 1.61 7.46 1.61s6-.56 7.46-1.61v3.43c0 .89-2.82 2.13-7.46 2.13zm0-4.85C3.74 10 .9 8.77.9 7.88V4.45c1.47 1 4.53 1.61 7.46 1.61s6-.56 7.46-1.61v3.43C15.82 8.77 13 10 8.36 10z"/>
    </symbol>
    <symbol id="plus" viewBox="0 0 12 12">
      <path d="M11 5H7V1a1 1 0 0 0-1-1 1 1 0 0 0-1 1v4H1a1 1 0 0 0-1 1 1 1 0 0 0 1 1h4v4a1 1 0 0 0 1 1 1 1 0 0 0 1-1V7h4a1 1 0 0 0 1-1 1 1 0 0 0-1-1z" data-name="Layer 1"/>
    </symbol>
    <symbol id="product-verification" viewBox="0 0 17.96 17.96">
      <path d="M14.13 4.3a.75.75 0 0 0-1 .22l-4.5 6.76L5.2 8.61a.75.75 0 0 0-1 .13.74.74 0 0 0 .13 1L9 13.46l5.36-8.12a.75.75 0 0 0-.23-1.04z"/><path d="M9 0a9 9 0 1 0 9 9 9 9 0 0 0-9-9zm0 17.06A8.08 8.08 0 1 1 17.06 9 8.09 8.09 0 0 1 9 17.06z"/>
    </symbol>
    <symbol id="quality-reliability" viewBox="0 0 21.46 20.42">
      <path d="M14.27 7a.44.44 0 0 0-.62.13l-3.14 4.75L8.07 10a.45.45 0 0 0-.55.72l3.21 2.49 3.67-5.55a.44.44 0 0 0-.13-.66z"/><path d="M10.74 3.88a6.33 6.33 0 1 0 6.33 6.33 6.34 6.34 0 0 0-6.33-6.33zm0 11.76a5.43 5.43 0 1 1 5.43-5.43 5.44 5.44 0 0 1-5.43 5.43z"/><path d="M21.46 10.19L19 7.57l.45-3.65-3.6-.67L14 0l-3.23 1.53L7.45 0 5.68 3.15l-3.6.76.47 3.61L0 10.2l2.55 2.65-.47 3.64 3.57.7 1.77 3.18 3.3-1.51 3.36 1.56 1.79-3.25 3.6-.65-.47-3.6zm-6.17 6.17l-1.59 2.89-3-1.38-2.9 1.33-1.56-2.81-3.16-.62.42-3.23-2.25-2.35L3.5 7.83l-.42-3.21L6.26 4l1.56-2.83 3 1.36 2.88-1.36 1.66 2.88 3.17.6-.43 3.22 2.14 2.33-2.19 2.42.41 3.17z"/>
    </symbol>
    <symbol id="reader" viewBox="0 0 25.11 15.04">
      <path d="M19.74 9.79a1.51 1.51 0 0 1-.36-1V6.27A1.26 1.26 0 0 1 20.64 5h.43V2a2 2 0 0 0-2-2H2a2 2 0 0 0-2 2v11a2 2 0 0 0 2 2h17a2 2 0 0 0 2-2v-2.9h-.45a1.15 1.15 0 0 1-.81-.31zm.43 3.21A1.14 1.14 0 0 1 19 14.14H2A1.14 1.14 0 0 1 .9 13V2A1.14 1.14 0 0 1 2 .9h17A1.14 1.14 0 0 1 20.17 2v2.19a2 2 0 0 0-1.69 2.08v2.55a2.45 2.45 0 0 0 .61 1.6 1.92 1.92 0 0 0 1.08.54z"/><path d="M21.29 5.4a1.25 1.25 0 0 0-1.24 1.25v2a1.16 1.16 0 0 0 1.16 1.16h3.9V5.4zm2.92 3.47h-3a.26.26 0 0 1-.21-.26v-2a.35.35 0 0 1 .34-.35h2.92z"/>
    </symbol>
    <symbol id="reseller-rma" viewBox="0 0 21.12 21.76">
      <path d="M16.29 11.77a5.66 5.66 0 0 0-3.8-5.34 3.49 3.49 0 1 0-3.71 0A5.67 5.67 0 0 0 5 11.77v.45h11.29zM8.05 3.49a2.59 2.59 0 1 1 2.58 2.58 2.59 2.59 0 0 1-2.58-2.58zm-2.16 7.83a4.76 4.76 0 0 1 9.48 0zm5.31 5.74v-3.19h-.9v3.23a2.39 2.39 0 1 0 .9 0zm-.33 3.8a1.47 1.47 0 1 1 1.47-1.47 1.46 1.46 0 0 1-1.47 1.47zM18.75 15a2.35 2.35 0 0 0-1.48.53l-2.8-2.06-.53.72 2.75 2a2.34 2.34 0 0 0-.3 1.14A2.37 2.37 0 1 0 18.75 15zm0 3.83a1.47 1.47 0 1 1 1.47-1.47 1.47 1.47 0 0 1-1.47 1.42zm-11.62-5.4l-3 2.35a2.35 2.35 0 1 0 .58 1.53 2.3 2.3 0 0 0-.13-.74l3.09-2.44zm-4.76 5.35a1.47 1.47 0 1 1 1.46-1.47 1.47 1.47 0 0 1-1.46 1.47z"/>
    </symbol>
    <symbol id="rma-enduser" viewBox="0 0 16.32 17.83">
      <path d="M10.39 9.54a5 5 0 1 0-4.46 0A8.16 8.16 0 0 0 0 17.38v.45h16.32v-.45a8.17 8.17 0 0 0-5.93-7.84zM4 5a4.14 4.14 0 1 1 4.16 4.18A4.15 4.15 0 0 1 4 5zM.91 16.93a7.26 7.26 0 0 1 14.49 0z" data-name="RMA Enduser"/>
    </symbol>
    <symbol id="servers-datacenters" viewBox="0 0 18.93 20.2">
      <path d="M18.71 13.29a1 1 0 0 0 .19-.56V7.44a1 1 0 0 0-.2-.57.93.93 0 0 0 .2-.56V1a1 1 0 0 0-1-1H1a1 1 0 0 0-1 1v5.31a.93.93 0 0 0 .2.56 1 1 0 0 0-.2.57v5.29a1 1 0 0 0 .22.6 1 1 0 0 0-.19.56v5.29a1 1 0 0 0 1 1h16.88a1 1 0 0 0 1-1v-5.29a1 1 0 0 0-.2-.6zm-11-1.82a.6.6 0 0 0-.6.61v.77h-.96v-.77a.61.61 0 1 0-1.21 0v.77H4v-.77a.61.61 0 0 0-.61-.61.6.6 0 0 0-.6.61v.77H1a.12.12 0 0 1-.12-.12V7.44A.11.11 0 0 1 1 7.33h16.88a.11.11 0 0 1 .12.11v5.29a.13.13 0 0 1-.12.12H8.27v-.77a.61.61 0 0 0-.61-.61zM.9 1A.12.12 0 0 1 1 .9h16.88A.12.12 0 0 1 18 1v5.31a.11.11 0 0 1-.12.11H8.27v-.77a.61.61 0 0 0-1.21 0v.77h-.91v-.77a.61.61 0 0 0-1.21 0v.77H4v-.77a.61.61 0 0 0-.61-.6.6.6 0 0 0-.6.6v.77H1a.11.11 0 0 1-.1-.11zM18 19.18a.12.12 0 0 1-.12.12H8.3v-.77a.62.62 0 0 0-.61-.61.61.61 0 0 0-.6.61v.77h-.91v-.77a.61.61 0 1 0-1.21 0v.77h-.9v-.77a.61.61 0 0 0-1.22 0v.77H1a.11.11 0 0 1-.11-.12v-5.29a.11.11 0 0 1 .11-.11h16.91a.12.12 0 0 1 .12.11z"/><rect x="14.87" y="14.78" width="1.69" height="1.69" rx=".47" ry=".47"/><rect x="14.84" y="8.33" width="1.69" height="1.69" rx=".47" ry=".47"/><rect x="14.84" y="1.9" width="1.69" height="1.69" rx=".47" ry=".47"/>
    </symbol>
    <symbol id="sign-in" viewBox="0 0 18 17.29">
      <path d="M1.56 10.27h5.81v2.28a1.19 1.19 0 0 0 1.18 1.19 1.26 1.26 0 0 0 .75-.26l4.79-3.84A1.19 1.19 0 0 0 14.27 8l-.19-.18L9.29 4a1.17 1.17 0 0 0-.74-.26 1.19 1.19 0 0 0-.55.08 1.17 1.17 0 0 0-.67 1.07v2.27H1.56a1.56 1.56 0 1 0 0 3.11zm0-2.21h6.71V4.89a.29.29 0 0 1 .16-.26.29.29 0 0 1 .3 0l4.84 3.88a.28.28 0 0 1-.05.4l-4.79 3.86a.28.28 0 0 1-.46-.22V9.37H1.56a.65.65 0 0 1-.66-.65.66.66 0 0 1 .66-.66z"/><path d="M1.44 6.45A.44.44 0 0 0 2 6.17a7.76 7.76 0 1 1 .12 5.26.46.46 0 0 0-.59-.26.45.45 0 0 0-.25.58 8.64 8.64 0 1 0-.13-5.87.45.45 0 0 0 .29.57z"/>
    </symbol>
    <symbol id="sign-out" viewBox="0 0 18 17.29">
      <path d="M16.44 7h-5.81V4.74a1.19 1.19 0 0 0-1.19-1.19 1.17 1.17 0 0 0-.74.26L3.91 7.64a1.19 1.19 0 0 0-.18 1.67.77.77 0 0 0 .18.18l4.79 3.84a1.2 1.2 0 0 0 .74.25 1.3 1.3 0 0 0 .51-.11 1.21 1.21 0 0 0 .68-1.07v-2.28h5.81a1.56 1.56 0 1 0 0-3.11zm0 2.21H9.73v3.19a.28.28 0 0 1-.16.25.29.29 0 0 1-.31 0l-4.83-3.9a.3.3 0 0 1 0-.41l4.83-3.83a.3.3 0 0 1 .18-.06.29.29 0 0 1 .29.29v3.17h6.71a.66.66 0 0 1 .65.66.65.65 0 0 1-.65.65z"/><path d="M16.55 10.83a.45.45 0 0 0-.57.29 7.74 7.74 0 1 1-.11-5.26.45.45 0 0 0 .58.26.46.46 0 0 0 .26-.59 8.66 8.66 0 1 0 .12 5.87.45.45 0 0 0-.28-.57z"/>
    </symbol>
    <symbol id="ssd" viewBox="0 0 24.85 16.95">
      <path d="M23 0H1.88A1.88 1.88 0 0 0 0 1.88v13.19A1.88 1.88 0 0 0 1.88 17H23a1.88 1.88 0 0 0 1.88-1.88V1.88A1.88 1.88 0 0 0 23 0zm1 15.07a1 1 0 0 1-1 1H1.88a1 1 0 0 1-1-1V1.88a1 1 0 0 1 1-1H23a1 1 0 0 1 1 1z"/><circle cx="21.96" cy="13.96" r=".92"/><circle cx="21.96" cy="2.96" r=".92"/><circle cx="2.96" cy="13.96" r=".92"/><circle cx="2.96" cy="2.96" r=".92"/>
    </symbol>
    <symbol id="support" viewBox="0 0 21.34 21.37">
      <path d="M10.72 5.34A5.33 5.33 0 1 0 14.5 6.9a5.3 5.3 0 0 0-3.78-1.56zm0 9.79a4.45 4.45 0 1 1 4.45-4.45 4.45 4.45 0 0 1-4.45 4.45z"/><path d="M20 8.45h-.8a1.29 1.29 0 0 1-1.27-1.29 1.2 1.2 0 0 1 .42-.91l.54-.53a1.35 1.35 0 0 0 0-1.94l-1.23-1.23a1.39 1.39 0 0 0-1-.39 1.37 1.37 0 0 0-1 .39l-.52.52a1.28 1.28 0 0 1-1 .43 1.31 1.31 0 0 1-1.32-1.26V1.4A1.36 1.36 0 0 0 11.58 0H9.89a1.39 1.39 0 0 0-1.38 1.4v.84a1.3 1.3 0 0 1-1.3 1.26 1.27 1.27 0 0 1-.93-.41l-.54-.53a1.35 1.35 0 0 0-1-.39 1.37 1.37 0 0 0-1 .39L2.56 3.78a1.36 1.36 0 0 0 0 1.94l.52.52a1.22 1.22 0 0 1 .43.93 1.29 1.29 0 0 1-1.26 1.29H1.4A1.39 1.39 0 0 0 0 9.83v1.69a1.41 1.41 0 0 0 1.4 1.38h.85a1.28 1.28 0 0 1 1.26 1.29 1.26 1.26 0 0 1-.43.94l-.52.51a1.35 1.35 0 0 0 0 1.93l1.24 1.24a1.35 1.35 0 0 0 1 .39 1.41 1.41 0 0 0 1-.39l.54-.54a1.23 1.23 0 0 1 .92-.41 1.3 1.3 0 0 1 1.3 1.27V20a1.4 1.4 0 0 0 1.37 1.4h1.69A1.41 1.41 0 0 0 13 20v-.84a1.29 1.29 0 0 1 1.3-1.27 1.31 1.31 0 0 1 .94.43l.52.52a1.37 1.37 0 0 0 1 .39 1.39 1.39 0 0 0 1-.39l1.23-1.23a1.36 1.36 0 0 0 0-1.94l-.54-.53a1.25 1.25 0 0 1-.42-.93 1.32 1.32 0 0 1 1.27-1.32h.7a1.27 1.27 0 0 0 1.3-1.32V9.84A1.33 1.33 0 0 0 20 8.45zm.42 3.07a.4.4 0 0 1-.4.44h-.85a2.16 2.16 0 0 0-1.53.66 2.25 2.25 0 0 0-.63 1.55 2.11 2.11 0 0 0 .7 1.57l.53.52a.5.5 0 0 1 0 .68L17 18.18a.54.54 0 0 1-.35.13.52.52 0 0 1-.35-.13l-.51-.51a2.16 2.16 0 0 0-3.11-.08 2.11 2.11 0 0 0-.65 1.53V20a.51.51 0 0 1-.49.5H9.89a.51.51 0 0 1-.49-.5v-.85a2.15 2.15 0 0 0-.65-1.53A2.21 2.21 0 0 0 7.22 17a2.14 2.14 0 0 0-1.57.69l-.51.52a.55.55 0 0 1-.36.13.45.45 0 0 1-.33-.12l-1.26-1.28a.5.5 0 0 1 0-.68l.51-.5a2.15 2.15 0 0 0 .07-3.11A2.1 2.1 0 0 0 2.25 12h-.86a.52.52 0 0 1-.51-.49V9.82a.52.52 0 0 1 .51-.49h.85a2.09 2.09 0 0 0 1.53-.64 2.18 2.18 0 0 0 .63-1.52 2.09 2.09 0 0 0-.71-1.58l-.51-.51A.48.48 0 0 1 3 4.74a.49.49 0 0 1 .14-.34l1.27-1.23A.55.55 0 0 1 4.77 3a.45.45 0 0 1 .33.12l.52.52a2.13 2.13 0 0 0 1.56.69 2.21 2.21 0 0 0 1.54-.62 2.16 2.16 0 0 0 .68-1.47v-.85a.5.5 0 0 1 .47-.5h1.69a.48.48 0 0 1 .45.5v.85a2.13 2.13 0 0 0 .67 1.53 2.2 2.2 0 0 0 1.54.62 2.17 2.17 0 0 0 1.59-.7l.51-.51a.52.52 0 0 1 .35-.13.54.54 0 0 1 .35.13l1.24 1.23a.48.48 0 0 1 .14.34.49.49 0 0 1-.14.34l-.53.52a2.16 2.16 0 0 0 1.47 3.73h.8c.3 0 .41.28.42.5v1.68z"/>
    </symbol>
    <symbol id="system-builders" viewBox="0 0 19.18 19.18">
      <path d="M9.59 0a9.59 9.59 0 0 0-8 14.82l.31.48 3.81-4-.1-.26a4.21 4.21 0 0 1-.26-1.49A4.29 4.29 0 0 1 9.59 5.3a4.24 4.24 0 0 1 1.41.23L8.48 7.91l.27 2.22 2.15.66 2.73-2.63a4.34 4.34 0 0 1 .24 1.43 4.3 4.3 0 0 1-5.74 4l-.26-.1-4 3.81.47.31A9.59 9.59 0 1 0 9.59 0zm0 18.28a8.7 8.7 0 0 1-4.24-1.1l2.74-2.63a5.09 5.09 0 0 0 1.5.22 5.19 5.19 0 0 0 4.59-7.59l-.28-.53-3.24 3.13-1.09-.34-.15-1.19 3.1-3L12 5a5.09 5.09 0 0 0-2.41-.6 5.19 5.19 0 0 0-5.18 5.19 5.29 5.29 0 0 0 .22 1.53L2 13.84A8.61 8.61 0 0 1 .9 9.59a8.69 8.69 0 1 1 8.69 8.69z" data-name="System Builders"/>
    </symbol>
    <symbol id="usb" viewBox="0 0 24.82 11.12">
      <path d="M23.19 1.62h-4.93V1.5a1.5 1.5 0 0 0-1.5-1.5H1.5A1.5 1.5 0 0 0 0 1.5v8.12a1.5 1.5 0 0 0 1.5 1.5h15.26a1.5 1.5 0 0 0 1.5-1.5v-.26h4.93a1.63 1.63 0 0 0 1.63-1.63V3.25a1.63 1.63 0 0 0-1.63-1.63zm-5.83 8a.6.6 0 0 1-.6.6H1.5a.6.6 0 0 1-.6-.6V1.5a.6.6 0 0 1 .6-.6h15.26a.6.6 0 0 1 .6.6zm6.56-1.89a.73.73 0 0 1-.73.73h-4.93V2.52h4.93a.73.73 0 0 1 .73.73z"/><rect x="19.62" y="6.16" width="2.96" height=".92" rx=".41" ry=".41"/><rect x="19.62" y="3.9" width="2.96" height=".92" rx=".41" ry=".41"/>
    </symbol>
    <symbol id="warranty" viewBox="0 0 17.1 18.73">
      <path d="M13.86 4.5a.75.75 0 0 0-1 .21l-4.29 6.44-3.25-2.53a.75.75 0 1 0-.93 1.18l4.54 3.53 5.14-7.79a.74.74 0 0 0-.21-1.04z"/><path d="M16.9 3.23v-.25L9.83.26A3.28 3.28 0 0 0 8.73 0h-.21A3.47 3.47 0 0 0 7.3.22L.24 3v.25c0 .12-2.16 12.5 8.22 15.48h.26c10.34-3.01 8.2-15.38 8.18-15.5zm-1 6.4a10.08 10.08 0 0 1-7.33 8.17 10.08 10.08 0 0 1-7.32-8.18 18.65 18.65 0 0 1-.21-6l6.63-2.57A2.75 2.75 0 0 1 8.53.9h.14a2.53 2.53 0 0 1 .8.18l6.58 2.55a18.2 18.2 0 0 1-.2 6z"/>
    </symbol>
    <symbol id="where-to-buy" viewBox="0 0 15.84 22.64">
      <path d="M7.92 0a7.93 7.93 0 0 0-6.44 12.54l6.44 10.1 6.43-10.09A7.92 7.92 0 0 0 7.92 0zm5.69 12l-5.69 9-5.69-9A7 7 0 0 1 .9 7.92a7 7 0 0 1 14 0A7 7 0 0 1 13.61 12z"/><path d="M7.92 4.39a3.53 3.53 0 1 0 3.53 3.53 3.54 3.54 0 0 0-3.53-3.53zm0 6.16a2.63 2.63 0 1 1 2.62-2.63 2.63 2.63 0 0 1-2.62 2.63z"/>
    </symbol>
    <symbol id="wireless" viewBox="0 0 23.42 15.89">
      <path d="M11.71 5.35A8.12 8.12 0 0 0 4.79 9.2a1.63 1.63 0 0 0 2.76 1.72 4.89 4.89 0 0 1 8.31 0 1.63 1.63 0 0 0 2.76-1.72 8.09 8.09 0 0 0-6.91-3.85zm5.92 5.32a.73.73 0 0 1-1-.23 5.8 5.8 0 0 0-9.84 0 .73.73 0 0 1-1.23-.77 7.24 7.24 0 0 1 12.3 0 .73.73 0 0 1-.23 1z"/><path d="M23.17 6.36a13.5 13.5 0 0 0-22.92 0A1.61 1.61 0 0 0 .77 8.6 1.62 1.62 0 0 0 3 8.09a10.24 10.24 0 0 1 17.4 0 1.62 1.62 0 0 0 1.38.76 1.54 1.54 0 0 0 .86-.25 1.63 1.63 0 0 0 .53-2.24zm-1 1.48a.74.74 0 0 1-1-.23 11.15 11.15 0 0 0-18.93 0A.73.73 0 0 1 1 6.84a12.61 12.61 0 0 1 21.4 0 .73.73 0 0 1-.23 1zm-10.46 3.28a2.39 2.39 0 1 0 2.38 2.39 2.39 2.39 0 0 0-2.38-2.39zm0 3.87a1.49 1.49 0 1 1 1.48-1.48A1.49 1.49 0 0 1 11.71 15z"/>
    </symbol>
</svg>