<svg xmlns="http://www.w3.org/2000/svg" width="2038.64" height="905.05">
  <defs>
    <style>
      .cls-1{fill:none;}
      .cls-2{
        fill:#fff;
        opacity: .5;
      }
    </style>
  </defs>
  <path class="cls-1" d="M1017.58 234.83l.11-87.38-61.13 42.97 61.02 44.41zM1108.02 300.64v-26.25l.22-.15 43.03-29.79-23.32-17.06-62.02 42.62 42.09 30.63zM864.39 255.21l-.21 152.23 153.31-105.36.09-66.02-61.85-45 .08-.11-91.42 64.26zM1152.14 243.85l22.88-15.84v-32.97l-46.2 31.75 23.32 17.06zM1218.89 223.36l44.92-31.78.01-.49-17.01-11.57-45.54 31.53 17.62 12.31zM849.74 417.5l13.44-9.11v-.23l-.02-.02.02-.01.21-152.81-12.98 9.24-.67 152.94zM1491.23 644.02l-19.62 13.93-.29-.21-30.93-22.07v35.82l.1.06 24.25 16.99L1510.3 657l-19.07-12.98zM1176.02 227.31l23.5-16.26-23.5-16.43v32.69zM1263.97 254.87l120.66 84.33 67.25-46.58-120.86-84.19-67.05 46.44zM1176.02 253.69l42-29.72-17.62-12.31-24.38 16.87v25.16zM693.49 376.11v-.57l-.4.27.4.3zM694.49 447.47v19.22l13.66-9.7-13.66-9.52zM642.21 409.84l49.16-34.05-44.49-32.49-49.62 35.23 44.95 31.31zM693.49 446.78l-51.05-35.57v92.44l51.05-36.25v-20.62zM798.09 452.49l1.16-.79.15-51.75-70.33-48.99-.08.06-.03-.04-34.47 23.87v1.99l103.6 75.65zM800.69 400.85v49.88l36.3-24.59-36.3-25.29zM694.49 373.63l34.53-23.92.05.03 70.62-50.29v-.04h.05l49.67-35.36.08-17.96-155 107.3v20.24zM799.4 398.74l.28-98.06-69.74 49.67 69.46 48.39zM693.49 445.56v-68.22l-1.27-.92-49.13 34.03 50.4 35.11zM1715.64 610.42l.2-66.5-1.19.8-.28-.21-103.29-75.42v68.18l15.4 10.73-.58.41-14.82 10.52v73.72l36.53 26.07 68.03-48.3z"/>
  <path class="cls-1" d="M1714.67 543.5l1.17-.79.15-51.74-70.33-48.99-.08.06-.04-.05-34.46 23.87v1.99l103.59 75.65zM1717.27 491.86v49.88l36.3-24.59-36.3-25.29zM1754.45 517.76l-37.18 25.19v28.48h-.51l-.11 38.28 84.09-59.71-46.29-32.24zM1715.99 489.75l.28-98.05-69.75 49.66 69.47 48.39zM1559.02 596.73v38.29l8.83 6.58 27.14-19.2-35.97-25.67zM1610.08 559.64l-50.78 36.05 50.78 36.24v-72.29zM1594.89 623.7l-26.2 18.53 26.2 19.55V623.7zM1693.06 285.05l.38.54-68.85 48.08-.1 56.08 108.41-77.15-39.84-27.55zM1470.35 439.22l.6.44.07.04 110.67-77.29-67.69-47.15-43.52 30.47-.13 93.49zM1610.08 467.12v-.57l-.4.28.4.29zM1458.56 336.08l27.59-19.59-33.39-23.26-26.9 18.63 32.7 24.22z"/>
  <path class="cls-1" d="M1453.63 292.62l34.26 23.86-.58.41-27.9 19.81 10.79 8 42.93-30.05-45.52-31.71-13.98 9.68zM1582.57 361.8l41.03-28.65.17-94.73-108.9 76.23 67.7 47.15zM1610.08 536.57v-68.21l-1.27-.93-49.14 34.03 50.41 35.11zM1513.85 469.54l44.95 31.31 49.15-34.04-44.49-32.5-49.61 35.23zM1582.57 363.02l-110.68 77.29 41.08 28.62L1622.74 391l-40.17-27.98zM1263.83 189.89l.19-22.28-16.33 11.3 16.14 10.98zM548.49 550.85l.19-22.24-16.02 11.09 15.83 11.15zM542.53 556.79l5.95-4.21v-.52l-16.7-11.75-6.26 4.34 17.01 12.14z"/>
  <path class="cls-1" d="M463.99 412.17v79.2l67.8 47.72 17.91-12.4-.21 24.86.22.16 52.03-36.81-137.75-102.73zM543.39 557.4l5.02 3.58.06-7.16-5.08 3.58zM641.44 503.77v-92.18l-65.55 45.4 65.55 46.78zM524.64 545.25l-38.73 26.82 17.6 12.33 38.15-27-17.02-12.15zM462.99 491.89l-2.3-1.62v8.11l2.3 1.65v-8.14zM460.69 555.62v32.7l23.47-16.25-23.47-16.45zM530.91 539.7l-66.92-47.11v8.15l60.66 43.29 6.26-4.33zM303.24 597.79l-.08 64.6 45.7-31.4-45.62-33.2zM392.69 661.64v-26.25l.21-.15 43.04-29.79-23.33-17.06-62.02 42.62 42.1 30.63zM436.81 604.85l22.88-15.84v-32.97l-46.2 31.75 23.32 17.06zM302.25 595.83l.11-87.38-61.14 42.97 61.03 44.41zM459.69 488.34v-74.77l-53.54 37.09 53.54 37.68zM460.69 412.99v76.06l2.3 1.62v-79.38l-2.46 1.7h.16zM460.79 554.47l24.25 16.99 38.74-26.82-63.09-45.03v54.79l.1.07zM459.69 497.67v-8.1l-54.42-38.31-5.38 3.73 59.8 42.68zM613.86 523.94l-11.28-8.41-52.31 37.01-.37.52-.18-.13-.25.17-.07 8.59 5.62 4.02 58.84-41.77zM707.94 299.94l-.04-.06v.28h-.26l-.33.23-59.57 42.3 44.5 32.5 1.25-.87v-21.45l.22-.15 156.04-108.03-32.5-22.46-109.31 77.71zM848.74 417.57l.66-152.29-48.71 34.69v99.66l37.19 25.91 11.75-7.97h-.89zM850.41 263.33l12.96-9.22-12.88-8.9-.08 18.12zM706.9 299.29l.11-55.93-40.15 28.04 40.04 27.89zM596.39 377.92l109.76-77.93-40.17-27.98L555.3 349.3l41.09 28.62zM693.49 468.63l-50.78 36.05 50.78 36.24v-72.29zM799.06 519.4l.19-66.49-1.18.8-.29-.21-103.29-75.43v68.18l15.4 10.73-.58.41-14.82 10.53v73.71l36.53 26.08 68.04-48.31zM837.87 426.75l-37.18 25.18v28.48h-.52l-.11 38.28 84.09-59.7-46.28-32.24zM459.69 706.88v-90.26l-66 46.69v70.19l12.04 8.95 53.96-35.57zM554.43 349.91l-.01.01-.29-.21-.31-.23-.06-.04-.08 58.8 41.84-29.71-41.09-28.62z"/>
  <path class="cls-1" d="M393.69 635.91v26.17l60.83-43.03-17.73-12.97-43.1 29.83zM437.66 605.47l17.72 12.97 4.31-3.05v-25.17l-22.03 15.25zM504.38 585.01l43.28 30.32.28-.2.45-52.92-5.86-4.19-38.15 26.99zM485.03 572.68l-24.34 16.85v25.16l41.95-29.68-17.61-12.33zM552.68 408.46l.08-59.35-42.24 29.26 42.16 30.09zM603.44 514.92l11.27 8.41.48-.34v-16.38l-11.75 8.31z"/>
  <path class="cls-1" d="M463.79 410.77L602.6 514.29l12.87-9.1.37.52h.35v16.57l24.8-17.6-66.84-47.7.59-.41 66.6-46.12-44.95-31.31-43.37 30.79-.29-.2-43.09-30.75-45.87 31.77.02.02zM1109.02 301.08l60.84-43.03-17.74-12.97-43.1 29.84v26.16zM1127.09 226.77l-108.4-79.3-.11 88.09 46.49 33.83 62.02-42.62zM554.43 348.69l110.68-77.29-67.69-47.15-43.53 30.46-.13 93.49.63.47.04.02zM411.76 587.77l-108.4-79.3-.12 88.09 46.5 33.83 62.02-42.62zM1624.77 237.84l-.17 94.61 68.16-47.6-67.99-47.01zM1264.28 253.44l66.24-45.88v-61.95l-64.92 45.93-.36.53-.19-.14-.24.17-.53 61.34zM481.62 798.81l16.68 12.39 23.97-16.59-17.25-12.01-23.4 16.21zM450.4 776.87l-44.7-33.2-12.01 7.91v52.57h-.87l8.06 6.02 49.52-33.3zM302.24 597.06l-61.84-45 .07-.11-91.41 64.26-.21 152.23 153.31-105.36.08-66.02zM392.69 804.06v-51.82l-36.88 24.31 36.88 27.51zM1331.73 535.44l-15.25 10.57 17.94 12.8 15.49-11-18.18-12.37zM1583.44 362.41l40.05 27.9.1-55.94-40.15 28.04zM1528.2 667.98l.19-22.28-16.32 11.3 16.13 10.98zM1213.61 451.43l-48.93 33.88 98.96 73.79 48.81-34.26-98.84-73.41z"/>
  <path class="cls-1" d="M1222.36 638.37l111.2-78.95-18.82-13.43.58-.4 15.53-10.75-8.41-5.73-126.84 90.17 26.76 19.09zM1558.55 635.92h-.53v-.4l-26.74-19.94-39.18 27.82 19.08 12.99 18.22-12.61-.21 24.87.22.15 37.58-26.59-8.44-6.29zM1611.08 464.64l34.53-23.91.04.02 70.62-50.28v-.04h.06l49.66-35.37.08-17.96-154.99 107.3v20.24zM1717.27 390.98v99.66l37.19 25.91 11.76-7.96-.89-.01.66-152.29-48.72 34.69zM1528.24 733.02l155.46 108.91-.11.17 66.94-47.53-155.14-108.06-67.15 46.51zM1081.62 700.31l-109.31 77.71-.04-.05v.27h-.26l-.33.24-59.57 42.29 44.5 32.5 1.25-.87v-21.45l.22-.15 156.04-108.02-32.5-22.47zM817.05 886.54l.08-59.35-42.24 29.26 42.16 30.09zM861.79 702.33l-43.53 30.47-.13 93.49.64.46.03.02 110.68-77.29-67.69-47.15zM972.56 624.91l-.18 94.61 68.17-47.61-67.99-47zM815.39 670.01l-41.74 28.92 44.34 32.84 42.92-30.05-45.52-31.71z"/>
  <path class="cls-1" d="M1283.06 624.32l109.28 79.93 47.05-32.34v-36.95l-104.97-74.92-112.06 79.56-.29-.21-27.33-19.5-112.25 79.8 46.55 32.19 154.02-108.27v.71zM1108.02 301.88l-42.97-31.27-46.56 32v2.66l89.53 66.49v-69.88zM575.29 830.32l.72-71.71-51.99 36 51.27 35.71zM864.21 408.91l-25.46 17.24 47.14 32.83-.58.41-85.25 60.53-.21 72.98h-1l.2-72.27-68.03 48.3-.29-.2-36.24-25.87v39.38h-.8l57.58 42.94 214.98-141.69-102.04-74.58zM1114.86 723.29l-.07 18.12 12.95-9.22-12.88-8.9zM576.68 756.94l.35-.25v.5l39.16 27.95V666.59l-85.52 57.51 46.01 32.84zM452.13 776.91l28.64 21.27 24.25-16.8L523.14 794l52.66-36.46-46.02-32.84-77.65 52.21zM930.35 748.87l41.03-28.65.18-94.73-108.9 76.23 67.69 47.15zM970.52 778.07l-40.17-27.98-110.67 77.29L860.76 856l109.76-77.93zM1040.84 672.12l.38.54-68.84 48.08-.11 56.08 108.47-77.11-39.9-27.59zM931.23 749.48l40.04 27.9.11-55.94-40.15 28.04zM1558.02 594.78v-92.17l-65.54 45.4 65.54 46.77zM1196.95 437.81l16.68 12.39 23.97-16.59-17.24-12.01-23.41 16.21zM1290.62 469.32l.73-71.71-52 36 51.27 35.71zM1177.89 314.49l67.24 47.99 87.18-58.62-69.22-48.38-85.2 59.01z"/>
  <path class="cls-1" d="M1220.36 420.38l18.12 12.62 52.66-36.46-46.02-32.84-77.65 52.21 28.63 21.27 24.26-16.8zM1263.1 254.26l.18-.13.52-61.32-44.04 31.16 43.34 30.29zM1246 363.1l46.01 32.84.36-.25-.01.5 39.16 27.95V402.4l-18.2-12.99-.58-.42.58-.4 18.2-12.61v-70.39L1246 363.1zM1332.52 401.88l16.64 11.87 43.02-30.54-33.07-24.22.59-.81 33.34 24.42 25.76-18.29-34.18-23.89-52.1 36.09v25.37zM1332.52 375.29l51.23-35.48-51.23-35.81v71.29zM1291.14 470.9h-.53v-.37l-52.13-36.31-24 16.61 98.84 73.4 27.09-19.01-49.27-34.32zM1163.83 484.68l48.94-33.88-16.69-12.39-48.88 33.86 16.63 12.41zM1350.78 547.2l24.71-17.54-17.66-12.3-25.21 17.47 18.16 12.37zM1379.58 568.01l-28.78-19.6-15.52 11.02 44.3 31.61v-23.03zM1416.51 721.93l22.88-15.84v-32.96l-46.2 31.75 23.32 17.05zM1439.39 609.65h1v24.79l31.22 22.28 18.74-13.3-109.77-74.73v23.06l58.81 41.98v-24.08zM1425.36 469.37l-76.21-54.39-14.27 10.13 59.27 42.81-.29.4.28.41-51.99 36.49 15.69 10.92 67.52-46.77zM1393.89 383.22l75.46 55.27.13-93.09-10.93-8.09-64.66 45.91z"/>
  <path class="cls-1" d="M1334.02 425.72l-1 .71-.29-.2-40.38-28.82-.73 72.6 49.66 34.6 51.71-36.3-58.97-42.59zM1314.48 389.01l17.04 12.16V377.2l-17.04 11.81zM1385.5 339.81l34.17 23.88 38.04-27-32.64-24.17.17-.23-39.74 27.52zM1559.02 594.66l51.06-36.25v-20.62l-51.06-35.56v92.43zM1611.08 538.49v19.21l13.66-9.7-13.66-9.51zM1175.02 255.62l-66 46.69v70.19l12.04 8.95 53.96-35.57v-90.26zM1470.27 499.25l41.84-29.7-41.09-28.63-.02.02-.29-.22-.34-.24-.02-.02-.08 58.79zM1170.72 257.44l4.3-3.05v-25.17l-22.03 15.25 17.73 12.97zM392.69 662.88l-42.97-31.27-46.56 32v2.65l89.53 66.5v-69.88zM1109.02 373.75v15.63l11.15-7.35-11.15-8.28zM1351.66 547.8l27.92 19v-64.5l-20.87 14.45 18.52 12.9-.58.41-24.99 17.74zM1491.22 642.8l39.22-27.85-149.86-111.77v64.3l110.64 75.32z"/>
  <path class="cls-1" d="M1334.03 424.49l14.26-10.12-15.77-11.26v21.13h-.85l1.35.97.15-.1-.64-.47.58-.81.92.66zM1018.58 236.79l-.09 64.6 45.71-31.4-45.62-33.2zM1469.27 499.47l.08-59.35-42.25 29.26 42.17 30.09zM1350.02 414.37l76.22 54.4 42.53-29.47-75.74-55.47-43.01 30.54zM1440.39 672.71v32.69l23.48-16.25-23.48-16.44zM1558.02 634.28V596.6l-25.88 18.37 25.88 19.31z"/>
  <path class="cls-1" d="M1469.61 500.95l-.29-.21-43.09-30.75-45.88 31.77.03.02 150.92 112.56 26.27-18.65-66.83-47.7.58-.4 66.6-46.13-44.94-31.31-43.37 30.8zM1244.25 363.08l-68.1-48.6.59-.41 85.48-59.2-43.33-30.29-42.87 30.33v91.51l-.22.15-53.88 35.51 44.7 33.2 77.63-52.2zM166.09 95.01l-108.4-79.3-.11 88.09 46.49 33.83 62.02-42.62zM304.24 60.3l-.19-.13-.24.17-.52 61.34 66.23-45.88V56.71l-30.15-21.52-34.76 24.59-.37.52zM57.58 105.03l-.09 64.6 45.71-31.4-45.62-33.2zM214.02 96.25V63.28l-46.2 31.75 23.32 17.06 22.88-15.84zM302.81 59.82l.01-.52-16.7-11.75-45.87 31.76 17.59 12.33 44.97-31.82zM303.02 35.85L287 46.95l15.83 11.14.19-22.24zM238.5 79.31l-23.48-16.45v32.7l23.48-16.25zM104.06 138.85l-46.57 32v2.66L147.02 240v-69.88l-42.96-31.27zM147.02 168.88v-26.25l.22-.15 43.03-29.79-23.32-17.06-62.02 42.62 42.09 30.63zM148.02 241.99v15.63l11.16-7.35-11.16-8.28zM205.59 284.74l-49.52 33.3 29.28 21.84 48.89-33.86-28.65-21.28zM174.57 372.48l27.4-18.96-16.64-12.41-79.1 54.79 68.13 48.62v-71.89l.21-.15zM346.16 408.88l.21-.3 26.65 18.76 41.47-29.44-34.21-23.83-153.59 107.8 7.89 5.63 111.21-79.14.37.52zM175.36 516.67l49.59-34.81-49.59-35.4v70.21zM147.02 259.48l-36.88 24.31 36.88 27.51v-51.82zM8.02 208.89V349.9l100.38-66.16L8.02 208.89zM8.02 351.1v.04h-.07l-.95.63 46.54 34.01L154.34 318l-45.09-33.62L8.02 351.1zM330.14 339.14h-.53v-.37l-52.13-36.31-24 16.61 98.84 73.4 27.09-19.01-49.27-34.32zM393.69 734.75v15.63l11.15-7.35-11.15-8.28zM370.52 292.38V173.83L285 231.34l46.01 32.84.36-.25-.01.5 39.16 27.95zM329.62 337.56l.73-71.7-52 35.99 51.27 35.71zM216.89 182.73l67.24 47.99 87-58.5-69.14-48.43-85.1 58.94zM302 122.57l.28-.19.52-61.33-44.09 31.2L302 122.57zM369.52 13.85l-29.29 20.72 29.29 20.91V13.85zM214.02 214.12v-90.26l-66 46.69v70.2l12.04 8.94 53.96-35.57z"/>
  <path class="cls-1" d="M215.16 182.72l.58-.4 85.38-59.14-43.28-30.32-42.82 30.29v91.51l-.22.15-53.88 35.51 44.7 33.2 77.63-52.2-68.09-48.6zM148.02 169.32l60.84-43.03-17.74-12.97-43.1 29.84v26.16zM261.36 506.61l110.79-78.66-26.22-18.46-110.49 78.63 25.92 18.49zM373.02 293.96l-1 .71-.29-.2-40.38-28.82-.73 72.6 49.66 34.6L432 336.56l-58.98-42.6zM175.36 373.15v72.09l50.46 36.01 75.96-53.31-98.97-73.79-27.45 19zM259.36 288.62l18.12 12.62 52.66-36.46-46.02-32.84-77.65 52.21 28.63 21.27 24.26-16.8zM302.87 123.18l155.52 108.95 66.76-47.4L370.02 76.67l-67.15 46.51zM252.61 319.67l-48.93 33.88 98.96 73.79 48.82-34.26-98.85-73.41z"/>
  <path class="cls-1" d="M235.95 306.05l16.68 12.39 23.97-16.59-17.24-12.02-23.41 16.22zM202.84 352.92l48.93-33.88-16.69-12.39-48.88 33.86 16.64 12.41zM354.06 776.5l-100.37-74.85v141.01l100.37-66.16zM1127.55 886.24l-.02-.02.02-.01.21-152.81-12.98 9.25-.67 152.93 13.44-9.1v-.24zM1113.78 743.36l-48.72 34.69v99.67l37.19 25.9 11.75-7.97h-.89l.67-152.29zM1329.42 748.7l-46.56 31.99v2.66l89.53 66.58v-69.96l-42.97-31.27zM1220.1 669.14l.08-.11-91.42 64.27-.21 152.22 153.32-105.35.08-66.02-61.85-45.01zM994.31 828.43l69.47 48.39.28-98.06-69.75 49.67zM861.63 856.61l44.96 31.31 49.15-34.04-44.49-32.5-49.62 35.23zM957.86 854.19v-.57l-.4.28.4.29zM993.44 827.82l70.62-50.29v-.03h.06l49.66-35.37.08-17.96-155 107.31v20.23l34.54-23.92.04.03zM1867.03 902.32v-.56l-.4.27.4.29zM1868.03 879.61v20.24l34.53-23.92.04.03 70.62-50.29v-.04h.06l49.66-35.37.08-17.96-154.99 107.31zM2023.95 789.55l12.94-9.22-12.87-8.72-.07 17.94zM818.79 828l-.29-.21-.31-.23-.06-.03-.08 58.79 41.84-29.7-41.09-28.63-.01.01zM303.36 506.52v.71l109.27 79.94 47.06-32.34V498.9l-61.54-43.92.59-.41 5.66-3.92-31.38-22.09-111.66 79.28-.29-.21-26.49-18.9-131.86 93.84 46.62 32.22 154.02-108.27zM1373.39 867.47l11.09-7.31-11.09-8.24v15.55zM1595.89 902.22V783.67l-85.52 57.51 46.01 32.84.36-.24-.01.49 39.16 27.95zM1598.4 902.57l84.5-59.99-86.01-60.24v119.98h-.85l1.36.97.14-.1-.64-.46M1441.11 792.16l85.38-59.14-43.28-30.32-42.82 30.29v91.52l-.22.14-53.95 35.56 44.67 33.22 77.73-52.27-68.09-48.6.58-.4zM147.85 769.16l-.03-.02.03-.01.21-152.81-12.99 9.24-.66 152.94 13.44-9.11v-.23zM134.07 626.28l-48.71 34.69v99.66l37.18 25.9 11.76-7.96h-.89l.66-152.29z"/>
  <path class="cls-1" d="M252.69 699.66l102.26 76.26 37.74-24.88v-17.03l-89.54-66.5-.08 68.64h-1l.09-71.85-152.6 104.87L251.8 843.9l.89-.58V699.66zM85.36 841.41h-.52l-.11 38.28 84.09-59.7-46.29-32.24-37.17 25.18v28.48zM14.6 711.35l69.47 48.39.28-98.06-69.75 49.67zM135.16 606.21l-.08 18.12 12.95-9.22-12.87-8.9zM209.72 125.68l4.3-3.05V97.46l-22.03 15.26 17.73 12.96zM85.36 761.85v49.88l36.3-24.59-36.3-25.29zM816.56 826.37l-109.67-80.31.6-.81 109.64 80.3.13-93.08-44.4-32.88.16-.23-53 36.71.96.67-.58.82-1.26-.88-56.88 39.4 111.76 79.76 42.54-29.47zM617.4 787.23l-40.38-28.82-.74 72.6 49.67 34.6 51.71-36.29-58.97-42.6-1 .71-.29-.2z"/>
  <path class="cls-1" d="M617.19 785.24h-.86l1.36.97.14-.1-.64-.47.59-.81.92.66 84.49-59.99-86-60.24v119.98zM861.79 701.11l110.77-77.54v.72l.28-.4 108.77 75.2 112.27-79.81-7.06-5.04-104.3 73.2-.29-.22-152.94-112.33 83.91-57.07.57.83-82.75 56.27 151.51 111.29 52.83-37.08v-71.62l-69.87-49.86.58-.41 79.41-55-29.29-21.85-101.68 68.37-47.4-34.64-215.58 142.09-.28-.42-.3.4-108.98-81.29h-.53v-.39l-25.25-18.83v42.88l156.37 108.92-.58.41-67.06 47.61 14.22 9.96 96.26-66.67 46.39 32.32zM431.86 833.27l16.64 12.41 48.93-33.88-16.68-12.39-48.89 33.86zM575.27 831.9l.01-.37-52.14-36.31-23.99 16.61 98.83 73.4 27.09-19.01-49.26-34.32h-.54zM451.25 777.5l-49.52 33.3 29.29 21.84 48.88-33.86-28.65-21.28zM253.69 843.86v.04h-.07l-.95.63 46.53 34.01L400 810.76l-45.08-33.62-101.23 66.72zM373.03 292.73l84.5-59.98-86.01-60.25v119.98h-.85l1.35.97.15-.1-.64-.47.58-.81.92.66zM2036.76 473.05l-11.15-8.29v15.64l11.15-7.35zM1439.39 823.97V733.7l-66 46.69v70.28l11.98 8.91 54.02-35.61zM1417.36 722.56l17.73 12.96 4.3-3.04v-25.17l-22.03 15.25zM1528.19 669.18l-17-11.58-45.57 31.55 17.59 12.33 44.97-31.82.01-.48zM1464.74 689.76l-24.35 16.85v25.16l41.96-29.68-17.61-12.33zM1373.39 779.17l60.84-43.04-17.74-12.97-43.1 29.84v26.17zM1282.95 714.87l-.08 64.61 45.7-31.41-45.62-33.2z"/>
  <path class="cls-1" d="M1372.39 752.48l.22-.15 43.03-29.8-23.32-17.05-62.02 42.62 42.09 30.63v-26.25zM1283.06 625.55l-.11 88.09 46.49 33.83 62.02-42.62-108.4-79.3zM1781.47 499.18l102.25 74.73.89-.58V429.67l102.26 76.26 37.74-24.87v-17.04l-89.54-66.5-.08 68.65h-1l.09-71.86-152.61 104.87zM1885.61 573.87v.05h-.08l-.95.62 46.54 34.02 100.8-67.79-45.08-33.62-101.23 66.72z"/>
  <path class="cls-1" d="M1985.98 506.51l-100.37-74.85v141.01l100.37-66.16zM2024.61 534.07v-51.82l-36.89 24.31 36.89 27.51zM1442.26 792.58l67.24 47.98 87-58.5-69.13-48.43-85.11 58.95zM1529.97 669.63l-.36.52-.19-.13-.24.17-.53 61.33 66.24-45.88v-22.62l-27.06-20.18-37.86 26.79zM1610.08 633.16l-14.19-10.12v39.48l14.19 10.58v-39.94zM1755.34 517.16l47.14 32.84-.58.41-85.26 60.52-.21 72.99h-1l.21-72.27-68.03 48.3-.29-.21-36.24-25.86v39.37h-.8l57.57 42.94 214.98-141.69-102.04-74.58-25.45 17.24zM1527.65 732.22l.52-61.32-44.09 31.19 43.29 30.32.28-.19zM693.49 542.15l-51.05-36.44v38.3l51.05 38.08v-39.94zM641.44 505.58l-25.25 17.93v.92l25.25 18.83v-37.68zM968.02 338.66l102.27 76.26 37.73-24.88v-17.03l-89.53-66.5-.09 68.64h-1l.09-71.85-152.6 104.87 102.25 74.73.88-.58V338.66zM1108.02 443.06v-51.82l-36.88 24.31 36.88 27.51zM555.02 566.93l-.29-.2-5.34-3.82-.44 51.53 66.24-45.88v-43.63l-.49-.36-59.68 42.36zM460.82 675.48l.58-.4 85.39-59.14-43.28-30.32-42.82 30.29v91.51l-.23.15-53.88 35.51 44.7 33.2 77.63-52.2-68.09-48.6z"/>
  <path class="cls-1" d="M547.66 616.55l-85.1 58.94 67.24 47.99 86.99-58.5-69.13-48.43zM770.82 677.49L615.69 569.43l-67.15 46.51 155.52 108.95 66.76-47.4zM1121.03 382.67l-12.01 7.91v52.57h-.87l8.07 6.02 49.51-33.3-44.7-33.2zM1163.81 485.91l-27.45 19.01V577l50.46 36.01 75.96-53.3-98.97-73.8zM1069.4 415.5l-100.38-74.85v141.01l100.38-66.16z"/>
  <path class="cls-1" d="M1135.36 576.28v-71.89l.21-.15 27.4-18.96-16.64-12.41-79.1 54.79 68.13 48.62zM1322.91 527.55l.58.82-.18.12 8.42 5.74 25.23-17.48-15.68-10.92-153.6 107.8 7.06 5.03 128.17-91.11zM1136.36 578.23v70.2l49.59-34.81-49.59-35.39zM1115.34 449.76l-45.09-33.62-101.23 66.72v.04h-.07l-.95.63 46.53 34.01 100.81-67.78zM1195.23 437.78l-28.64-21.28-49.52 33.3 29.28 21.84 48.88-33.86zM1282.06 625.53l-61.13 42.98 61.02 44.4.11-87.38zM1980.78 361l-45.62-33.2-.08 64.61 45.7-31.41zM958.89 145.35v-23.82l-68.97 49.03 16.14 11.86 52.83-37.07zM1045.89 134.59l66.05-46.89-35.11-23.9-65.61 46.04 34.67 24.75zM1075.94 63.2l-17.87-12.17-64.76 46.03 17.04 12.17 65.59-46.03zM959.89 74.44v45.16l31.7-22.54-31.7-22.62zM992.45 97.68l-32.56 23.14v23.83l49.6-34.81-17.04-12.16zM1453.03 42.84l-50.79 36.06 50.79 36.24v-72.3z"/>
  <path class="cls-1" d="M1265.03 165.69l-.21 24.88.22.15 65.77-46.53.36.52h.35v62.85l121.24 84.45 14.85-10.28 46.39 32.31 110.78-77.54v.72l.27-.4 108.72 75.16 89.79-63.9-134.74-98.97 83.92-57.07.56.83-82.75 56.27 133.87 98.33 70.47-50.15v-45.59l-69.87-49.87.59-.4 79.41-55-29.3-21.85-101.68 68.37-47.4-34.65-215.58 142.09-.28-.41-.3.4-108.98-81.29h-.53v-.39l-26.74-19.95-59.67 42.37-.29-.2-137.44-98.09-63.14 44.82 133.12 90.63 18.22-12.62z"/>
  <path class="cls-1" d="M1400.97 79.8l-25.88 18.38 25.88 19.3V79.8zM474.79 244.73l-.05.07-.03-.02-76.82 53.21 111.76 79.76 42.54-29.46-109.67-80.32.59-.8 109.65 80.3.13-93.08-44.4-32.89.16-.22-33.86 23.45zM1935.07 396.28l89.54 66.49v-69.88l-42.97-31.26-46.56 31.99-.01 2.66zM596.54 223.64l-45.52-31.71-41.75 28.91 44.35 32.84 42.92-30.04zM204.74 284.11l-44.71-33.2-12.01 7.91v52.57h-.87l8.07 6.02 49.52-33.3zM776.18 193.83l-67.99-47-.18 94.61 68.17-47.61zM708.01 242.66l-.11 56.07 108.47-77.11-39.9-27.58.38.54-68.84 48.08zM707.01 242.13l.18-94.72-108.9 76.22 67.69 47.16 41.03-28.66zM1018.69 145.52v.71l109.27 79.94 47.06-32.34v-62.26h1v61.83l.1.07 24.28 16.97 45.53-31.52-133.11-90.62-66.93 47.52-.29-.21-35.25-25.16-104.3 73.2-.29-.21-16.7-12.26-70.94 50.43 46.55 32.18 154.02-108.27z"/>
  <path class="cls-1" d="M433.15 336.15l-.29.41.28.41-51.99 36.49 35.08 24.43-.58.41-41.76 29.65 31.39 22.1 103.5-71.69-112.05-79.97-.58-.41.59-.41 77.1-53.4-15.45-10.82-84.5 60 59.26 42.8zM1767 354.34l12.95-9.22-12.87-8.9-.08 18.12zM1766.33 508.51l13.44-9.1v-.24l-.03-.02.03-.01.21-152.81-12.99 9.25-.66 152.93zM1780.98 346.23l-.21 152.22 153.31-105.35.08-66.02-61.85-45.01.08-.11-91.41 64.27zM1894.89 198.54l-69.62 49.55 16.79 12.33 52.83-37.07v-24.81zM1624.49 390.9v.27h-.26l-.33.24-59.58 42.3 44.5 32.49 1.26-.87v-21.45l.21-.15 156.04-108.02-32.55-22.51-109.26 77.75-.03-.05zM1934.27 238.46l-61.13 42.98 61.02 44.4.11-87.38zM1454.03 21.69v19.22l13.66-9.7-13.66-9.52zM239.37 79.92l-24.35 16.85v25.16l41.95-29.68-17.6-12.33zM1895.89 197.83v24.82l49.59-34.81-17.75-12.67-31.84 22.66zM1401.97 118.23l51.06 38.08v-39.94l-51.06-36.44v38.3zM1895.89 151.22l31.84 22.72 49.98-35.56.37.51.21-.29 18.65 13.12 25.37-17.8-98.96-73.79-27.46 19v72.09zM1981.89 212.59l49.68-35.27-34.63-24.37-49.72 34.89 34.67 24.75zM1972.3 25.02l-16.69-12.39-48.88 33.86 16.64 12.4 48.93-33.87z"/>
  <path class="cls-1" d="M1905.86 47.09l-79.1 54.79 68.13 48.62V78.61l.22-.15 27.39-18.97-16.64-12.4zM1946.35 187.23l49.72-34.89-18.22-12.83-49.25 35.05 17.75 12.67zM1895.89 152.44v44.16l30.98-22.04-30.98-22.12z"/>
  <path class="cls-2" d="M836.67 15.11l16.65-11.2h-1.79l-14.83 9.98M1868 901.06l34.46-23.87.09-.06 39.31 27.38h1.74l-40.19-28 69.75-49.67-.22 77.66h1.22v-78.31l48.72-34.7-.49 113.07h1l.49-113.78 13-9.25-.17 123h1l.17-123.13.64-.45v-1.22l-.36.25-14.17-9.6-6.84-4.64 21.38-15v-1.22l-22.27 15.62-26-17.64 48.31-34.14v-1.23l-49.2 34.77-37.89-25.68-.56.83 64.51 43.71-16.3 11.44-63.13-46.35 14.39-10.05-.57-.82-14.67 10.25-87.54-64.3 82.75-56.27-.56-.82-83.92 57.06 88.4 64.93L1728 874.91l-1.4-1-44.23 30.63h1.75l42.48-29.41 42.23 29.41h1.75l-41.7-29 206.28-144.06 63.69 46.78.29.21 17.2-12.07 6.84 4.63-155.9 107.93-.21.15v21.45l-1.26.87-44.91-32.8-.59.81L1864.9 902l.86.62zm105.25-75.43h-.06L1902.6 876l-34.6 23.85v-20.24l155-107.31-.08 18zm50.75-36.08l.07-17.94 12.87 8.72z"/>
  <path class="cls-2" d="M1997.13 7.83l-24 16.59L1956.48 12l-.84-.63-10.25-7.61h-1.68l11.06 8.24-48.89 33.86L1876.6 24l-.85-.63-.88.59-100.8 67.78-46.54-34 1-.63h.08l80.79-53.32h-1.82l-79 52.09-1 .65-.89.59-73-53.33H1652l73.77 53.92-215 141.69-57.57-42.94h.8v-39.38l36.27 25.92.29.2 68-48.3-.21 72.27h1l.21-73 85.26-60.53.58-.41-42.2-29.44h-1.75l42.24 29.42-84.1 59.7.11-38.28V26.53l33.5-22.74h-1.79l-31.23 21.15-1.43 1v.61l.09.7v-.1l-.19 66.49-68 48.31-36.65-26.1V42.13l14.82-10.52.58-.41-15.4-10.73-1-.69v21.84l-51 36.24V3.79h-1V78l-65.54-46.78L1375 3.79h-1.76l-39 27-.58.41 66.83 47.7-26.27 18.65-125.69-93.76h-1.67l126.53 94.37-58.83 41.77-87.62-62.41V4.35h-1V76.8l-48.25-34.55-.86-.62-.87.61-63.15 44.84-36.43-25.22 81.23-56.5h-1.74l-20.35 13.77-.86.6-43.51 30.47L1023.37 0h-1.67l68.59 50.81-14.8 10.45-16.55-10.85.18-.13-.58-.81-66.09 47-32.56-23.26V3.79h-1V72.5l-68.13-48.62 29-20.09H918l-28.4 19.67-.58.41 69.87 49.86v46.58l-69.82 49.63-134.52-98.8 82.75-56.27-.56-.83-83.92 57.07 135.39 99.44-71 50.46-108.77-75.2-.28.4v-.73L597.41 223 551 190.71l-76.31 52.86-15.45-10.83 67-47.61.58-.41L370.52 75.8V57.42l7.75 5.58.29.2 59.8-44.45 26.74 19.89V39h.53l109 81.28.29-.4.28.42L752.94 5.08h-1.82L574.93 119.31l-57.57-42.94h.8L518 39.08 554.27 65l.29.2 68-48.3-.21 72.27h1l.21-73L641 3.79h-1.73l-15.68 11.12-1 .71-68 48.31L518 37.85V3.79h-1v33.35L470.29 3.79h-1.72L517 38.37l.13 37.85-51.03-38.08-.1-34.35h-1l.13 33.61-25.91-19.31-.84-.63L417.25 1.7h-1.68l21.95 16.37-59 43.86-8-5.74V13h-.34l-.37-.52L339.37 34l-.86.61L304.05 59l-.23-.16.18-24.91-17.91 12.4-60.41-42.54h-1.74l61.31 43.15-45.88 31.76-24.25-17-.1-.07V3.79h-1v58.28L167 94.41 57.69 14.47v-.71L0 54.32v1.22l56.69-39.85-.11 87.38L0 61.9v1.23l56.58 41.17-.09 66L0 209.15v1.21l56.49-38.82-.09 71.85h1l.09-68.64 89.51 66.5v17l-37.73 24.88L7 206.9v143.66l-.88.58L0 346.65v1.24l5.25 3.84L0 355.19v1.19l6.11-4L53.51 387l101.68-68.37 29.29 21.85-79.41 55-.58.41 69.87 49.86v71.62l-52.83 37.08L0 465.18v1.24l121.23 89 .29.22 104.3-73.2 7.9 5.64L101.85 582 0 511.55v1.22l60.84 42.06L0 597.32v1.22l61.52-43-.38-.54L101 582.58 0 654.45v1.22l101.86-72.48 32.55 22.5L0 698.75V700l134.15-92.87-.07 18-49.67 35.28-70.68 50.33L0 720.19v1.22L13.62 712l.08-.06 70.33 49-.15 51.75-1.16.79L0 753.05v1.24l82.45 60.21.28.21 1.19-.8-.19 66.49-34 24.16h1.72l32.3-22.93-.06 22.93h1l.06-23.64L170 820.39l.58-.41-47.14-32.83 25.45-17.24 102 74.58-91.15 60.07h1.82l90.19-59.44 47.41 34.64 101.67-68.37 29.3 21.85-79.41 55-.59.41 22.31 15.91h1.72l-22.29-15.9L431 833.87l16.63 12.41-31.32 21.44-.22.15V905h1v-36.61l31.39-21.48 77.32 57.65h1.67l-78.12-58.25 48.93-33.88 98.84 73.41-26.68 18.72h1.74L626 866.83l35.28 24.31-19.59 13.91h1.73l19-13.5.58-.42-36.15-24.91 52-36.49-.29-.41.3-.4-59.27-42.81 84.51-60 14.21 10-57.16 39.59-.58.4.57.42 112 80-69.48 48.12h1.76l21.93-15.19 1 .88 19.2 14.31h1.67l-21.07-15.71L774 857.06l43.09 30.75.29.21 43.38-30.8 44.94 31.31-23.15 16h1.75l21.5-14.88 1.65-1.15 49.13-34 1.27.93v49.13h1v-48.4l66.29 48.4h1.7l-68-49.64v-2l34.47-23.87v.05l.08-.06 70.33 49-.07 26.52h1.36v-25.63l36.3 25.29-.51.34h2.76l-.48-.33 25.5-17.23 24 17.57h1.7l-25.06-18.31 152.6-104.87-.09 71.86h1l.09-68.65 89.53 66.59v17L1334.7 893l-102.35-76.2v87.82h1v-85.89l100.46 74.8.86.63.89-.58 36.79-24.26v35.24h1v-35.89l11.94-7.87L1430 894l-15.68 10.54h1.79l14.74-9.91.88-.59 77.75-52.28 46 32.85-43.25 29.93h1.77l41.7-28.86 1-.21 40.38 28.82.29.21 1-.72.86-.61L1751.68 795l.58-.41-156.37-108.95v-21.87l71.65 53.43.3-.4.27.42 215.58-142.09 47.41 34.65 101.67-68.37 5.79 4.31v-1.25l-4.91-3.66 4.91-3.29v-1.21l-5.76 3.87-8.06-6h.87v-52.59l12-7.91.94.7v-1.24h-.06.06v-1.2l-.91.6-12-8.94v-70.2l13-9.16v-1.22l-13 9.16v-26.25l13-9v-1.21l-13.74 9.51-.21.15v26.25L1982.51 361l56-38.52v-1.18l-56.9 39.1-46.5-33.83.11-88.09L2038.56 314v-1.2l-103.28-75.55v-.71l-154 108.27-46.61-32.23 89.77-63.88 17.35 12.74.29.21 104.3-73.2 35.25 25.16.29.21 50.55-35.89 6.12 4.31V181l-5.26-3.7 5.26-3.74v-1.22l-6.12 4.35-34.63-24.37 40.75-28.6v-1.22l-15.39 10.8-99-73.8 48.94-33.87 65.41 48.58V73L1974 25.05l24-16.61 40.55 28.24v-1.22l-39.66-27.63-.91-.75v.09m-247.45 787.4l-66.94 47.53.12-.17L1528.24 733l67.15-46.51zM1129 731.88l-46.55-32.19 112.25-79.8 27.33 19.5.29.21 112.1-79.6 105 74.92v36.95l-47.05 32.34-109.28-79.93v-.71zM957.86 831v21.46l-1.25.86-44.5-32.49 59.57-42.3.34-.24h.25V778l109.31-77.71 32.5 22.47-156 108zm-139.09-4.2l-.64-.46.13-93.49 43.53-30.47 67.69 47.15-110.68 77.24zm-1.72 59.79l-42.16-30.09 42.24-29.26zm.95-154.82l-44.34-32.84L815.39 670l45.52 31.71zm154.56-106.86l68 47-68.17 47.6zm-41.33 124.57l40.15-28-.11 55.94zm41.15-28.74l68.84-48.08-.38-.54 39.9 27.59-108.46 77.11zm-1-.52l-41 28.65-67.69-47.15 108.9-76.23zm-41 29.87l40.18 28L860.76 856l-41.08-28.62zm184.51-26.8l12.88 8.9-13 9.22zm-363.62-98.11l-57.58-42.94h.8v-39.38l36.24 25.87.29.2 68-48.3-.21 72.27h1l.21-73 85.25-60.53.58-.41-47.14-32.83 25.46-17.24 102 74.58zm-135.08 160L577 757.19v-.5l-.35.25-46-32.84 85.52-57.51zm-40.9 45.18L524 794.61l52-36zM523.14 794L505 781.38l-24.25 16.8-28.64-21.27 77.65-52.21 46 32.84zm-.87.61l-24 16.59-16.68-12.39L505 782.59zm-129.58 9.45l-36.89-27.51 36.89-24.31zm1 .09v-52.57l12-7.91 44.7 33.2-49.52 33.3-8.06-6zm-244.84-35.71l.21-152.23L240.47 552l-.07.11 61.84 45-.08 66zm154.51-260l108.4 79.3-62 42.62-46.5-33.83zm250.53-253.73l43.53-30.46 67.69 47.15-110.68 77.29-.64-.47zm464.8-107.24l108.4 79.3-62 42.62-46.49-33.83zm246.55 44.6l.36-.53 64.92-45.93v61.95l-66.24 45.88.53-61.34.24-.17zm359.53 45.77l68 47-68.16 47.6zm-41.33 124.57l40.15-28-.1 55.94zm182.56-7.35l-49.67 35.37h-.06l-70.62 50.28-34.53 23.92V444.4l155-107.3zm.22 153.53l-11.76 8-37.19-25.91V391l48.73-34.71-.66 152.29zM1529.41 668.8l-.22-.15.21-24.87-18.22 12.61-19.08-13 39.18-27.82 26.72 19.95v.4h.53l8.44 6.29zm-1.21-.82l-16.13-11 16.32-11.29zm-205.76-138.87l8.41 5.73-15.53 10.75-.58.4 18.82 13.44-111.2 78.94-26.76-19.09zm-6 16.9l15.25-10.57 18.18 12.37-15.49 11zm-52.84 13.09l-99-73.79 48.93-33.88 98.84 73.41zm-245.11-256.49l46.56-32 43 31.27v69.88l-89.53-66.49zm.09-65.82L1064.2 270l-45.71 31.4zm156.42 17.6l-4.3 3.05-17.73-13 22-15.25zm-5.16 3.66l-60.84 43v-26.13l43.1-29.84zM1109 373.75l11.16 8.28-11.16 7.35zm0-1.24v-70.2l66-46.69v90.26l-54 35.57zm66.78-25.94l.22-.15v-91.51l42.87-30.33 43.33 30.29-85.48 59.21-.59.4 68.1 48.6-77.64 52.2-44.69-33.2zm281.91-9.88l-38 27-34.17-23.88 39.74-27.52-.17.23zm13 104l.29.21 41.09 28.63-41.84 29.7.08-58.79zm140.37 97.77l13.66 9.51-13.66 9.7zm-1 19.92L1559 594.66v-92.43l51.06 35.56zm-52.06 36.4L1492.48 548l65.54-45.4zm0 39.5L1532.14 615l25.86-18.4zm-66.7-86.69l-.58.4 66.83 47.7-26.27 18.65-150.9-112.56 45.85-31.78 43.09 30.75.29.21 43.37-30.8 44.94 31.31zm-132.61-30.84l20.87-14.45v64.5l-27.92-19 25-17.74.58-.41zM1530.44 615l-39.22 27.85-110.64-75.32v-64.3zm-197.27-189.89l-.15.1-1.35-1h.85v-21.1l15.77 11.26-14.29 10.12-.92-.66-.58.81zM1314.48 389l17-11.81v24zm154.79 110.46l-42.17-30.09 42.25-29.26zm-43-30.7L1350 414.37l43-30.54 75.74 55.47zm43.11-30.28l-75.46-55.27 64.66-45.91 10.93 8.09zm-50.55-74.18L1393 382.6l-33.34-24.42-.59.81 33.07 24.22-43 30.54-16.64-11.87v-25.37l52.1-36.09zm-86.28 11V304l51.23 35.81zm-19.2 13.3l-.58.4.58.42 18.2 13v21.74l-39.16-27.95v-.5l-.36.25-46-32.84 85.52-57.51V376zm-22.7 80.73l-51.27-35.71 52-36zm-45.49-106.84l-67.24-48 85.2-59 69.22 48.38zm18.15-108.34l-.18.12-43.37-30.27 44-31.16zm-18.2 109.55l46 32.84-52.63 36.46-18.12-12.62-24.26 16.8-28.63-21.27zm-7.51 69.91l-24 16.59-16.6-12.39 23.41-16.22zm-24.83 17.19l-48.94 33.88-16.63-12.41 48.88-33.86zm100.55 73.43l-98.84-73.4 24-16.61 52.13 36.31v.37h.53l49.27 34.32zm-21.7-54.23l.73-72.61 40.38 28.82.29.2 1-.71 59 42.59-51.71 36.3zm102.52-1.29l-.28-.41.29-.4-59.27-42.81 14.27-10.09 76.21 54.39-67.52 46.77-15.69-10.92zm-18.65 60.93l-24.71 17.54-18.17-12.37 25.22-17.47zm-24.69 18.75l28.78 19.6v23l-44.3-31.61zm29.78 20.28l109.77 74.73-18.74 13.3-31.22-22.28v-24.77h-1v24.08l-58.81-42zm58.81 137.4l-22.88 15.84-23.32-17 46.2-31.75zm1-33.38l23.48 16.44-23.48 16.25zm.1-1.16l-.1-.06v-35.8l30.93 22.07.29.21 19.62-13.95 19.07 13-45.56 31.54zM1559 635v-38.27l36 25.67-27.15 19.2zm35.87-11.32v38.08l-26.2-19.55zm-35.59-28l50.78-36.05v72.29zm51.78-36.76l14.82-10.52.58-.41-15.4-10.73v-68.17l103.29 75.42.28.21 1.18-.8-.19 66.5-68 48.3-36.53-26.07zm106.19-67.07l36.3 25.29-36.3 24.59zm-1.28-2.11l-69.47-48.39 69.75-49.66zm.77 81.68h.51V543l37.18-25.19 46.31 32.19-84.09 59.71zM1645.54 442v.05l.08-.06L1716 491l-.15 51.74-1.17.79-103.59-75.65v-2zm-35.46 25.13l-.4-.29.4-.28zm0 1.24v68.21l-50.41-35.11 49.14-34zm-51.28 32.49l-45-31.31 49.61-35.22 44.59 32.48zm-45.8-31.93l-41.08-28.62L1582.57 363l40.17 28zm111.62-135.26l68.85-48.08-.38-.54 39.84 27.55-108.41 77.15zm-1-.52l-41 28.65-67.7-47.15 108.9-76.23zm-41.91 29.26L1471 439.71h-.07l-.6-.44.13-93.49 43.54-30.52zM1470.2 344.7l-10.79-8 27.9-19.81.58-.41-34.26-23.86 14-9.68 45.52 31.71zm16-28.21l-27.59 19.59-32.7-24.22 26.9-18.63zm-101.57 22.71L1264 254.87l67-46.44 120.86 84.19zm-120.8-149.31l-16.13-11 16.32-11.3zm0 1.2v.49l-44.92 31.78-17.62-12.31 45.54-31.53zM1218 224l-42 29.71v-25.18l24.38-16.87zm-42 3.33v-32.71l23.5 16.43zm-1 .7l-22.88 15.84-23.32-17.06L1175 195zm-23.75 16.44l-43 29.79-.22.15v26.26l-42.1-30.67 62-42.62zm-133.69-9.62l-61-44.41 61.13-43zm0 1.23l-.09 66-153.29 105.36.21-152.23L955.81 191l-.08.11zM863.18 408.13v.23l-13.44 9.11.67-152.94 13-9.24zm-216.3-64.83l44.49 32.49-49.16 34-45-31.31zm202.53-79.25l-49.67 35.36-70.62 50.29h-.05l-34.53 23.92v-20.23l155-107.3zm-50 134.69l-69.46-48.39 69.75-49.67zm1.29 2.11l36.3 25.29-36.3 24.59zM729 351l.08-.06 70.33 49-.15 51.75-1.16.79-103.6-75.65v-2zm-35.47 25.13l-.4-.3.4-.27zm0 1.23v68.22l-50.4-35.11 49.13-34zm-51 33.87l51 35.57v20.6l-51 36.25zm52 36.26l13.62 9.51-13.66 9.7zm-53 56.3L575.89 457l65.55-45.4zm52-35.14v72.29l-50.78-36.24zm1-.71l14.82-10.53.58-.41-15.4-10.72v-68.21l103.25 75.43.29.21 1.18-.8-.19 66.5-68 48.3-36.53-26.08zm105.68 12.49h.52v-28.5l37.18-25.18L884.15 459l-84.09 59.7zm.52-80.78V300l48.71-34.69-.66 152.29h.89l-11.75 8zm49.72-136.3l.08-18.12 12.87 8.9zm-156.7 89.39l-.22.15v21.45l-1.25.87-44.51-32.5 59.58-42.3.33-.23h.26v-.28.06l109.31-77.71 32.49 22.46zm13.19-53.43l-40-27.89 40.15-28zm-.75.7l-109.8 77.91-41.09-28.62L666 272zm-152.43 49.43l.32.23.29.21 41.09 28.62-41.84 29.71zm-1.08 59l-42.16-30.09 42.24-29.26zm.05 1.27l.29.2 43.37-30.79 45 31.31-66.6 46.13-.59.4 66.8 47.72-24.8 17.6v-16.57h-.35l-.37-.52-12.88 9.11-138.81-103.53L509.64 379zm62 113.6l-11.27-8.41 11.75-8.31V523zm-66.77 91.81l-.28.19-43.3-30.31 38.15-27 5.87 4.18zm-154.27 48.19l66-46.69v90.26l-54 35.57-12-8.94zm0-1.23v-26.16l43.1-29.84 17.73 13zm61.69-43.64l-17.72-13 22-15.25v25.17zm5.31-28.91L485 572.68 502.64 585l-41.95 29.68zm0-33.91l23.47 16.45-23.47 16.24zm25.22 16.45l38.73-26.82 17 12.15-38.16 27zm-25.22-81.8l2.3 1.62V500l-2.3-1.65zm3.3 2.32l66.92 47.11-6.26 4.3L464 500.74zm85.72 59.12l-.22-.16.21-24.86-17.91 12.4L464 491.37v-79.2L601.74 514.9zm-1.22-.86l-15.83-11.15 16-11.09zm0 1.21v.52l-6 4.21-17-12.14 6.27-4.34zm-5.09 5.35l5.08-3.6-.06 7.17zm6.08-4.31l.25-.17.18.13.37-.52 52.31-37 11.28 8.41L555 565.71l-5.62-4zM463 490.67l-2.3-1.62V413h-.16l2.46-1.7zm-3.3-2.33l-53.54-37.68 53.54-37.09zm0 1.23v8.1L399.89 455l5.38-3.73zm64.09 55.07L485 571.46l-24.25-17-.1-.07v-54.78zM459.69 589l-22.88 15.84-23.32-17.06 46.2-31.78zm-23.75 16.44l-43 29.79-.22.15v26.26L350.59 631l62-42.62zm-132.7-7.66L348.86 631l-45.7 31.41zm-1-2l-61-44.41 61.13-43zm.92 67.78l46.56-32 43 31.27v69.88l-89.53-66.49zm90.53 71.14l11.15 8.3-11.15 7.35zm12.9 8.33l53.87-35.51.23-.15v-91.46l42.82-30.29 43.28 30.32-85.38 59.14-.59.4 68.09 48.6-77.63 52.2zm123.21-19.6l-67.24-48 85.1-58.94L616.79 665zm18.74-107.54l67.15-46.51 155.13 108.11-66.76 47.4zm66.65-47.38L549 614.44l.44-51.53 5.34 3.82.29.2 59.68-42.36.49.36zm1-45l25.25-17.93v37.68l-25.25-18.83zm26.25-17.8l51 36.44v39.94l-51-38.08zm222.45-97.54l152.6-104.87-.09 71.85h1l.09-68.64L1108 373v17l-37.73 24.88L968 338.66v143.66l-.88.58zM1108 443.06l-36.88-27.51 36.88-24.31zm-38.6-27.56L969 481.66v-141zM969 482.9l101.23-66.71 45.09 33.62-100.8 67.78-46.54-34zm139.2-39.75h.87v-52.57l12-7.91 44.7 33.2-49.51 33.3zm58.44-26.65l28.64 21.28-48.88 33.86-29.28-21.84zm-3.64 68.78l-27.4 19-.21.15v71.89l-68.13-48.62 79.1-54.79zm-26.61 92.94l49.59 35.4-49.59 34.81zm0-1.22v-72.08l27.45-19 99 73.79-76 53.31zm204.92-71.17l15.69 10.92-25.23 17.48-8.42-5.74.18-.12-.58-.82-128.17 91.11-7.06-5zm-59.22 119.7l-.11 87.38-61-44.4zm.89 89.34l45.62 33.2-45.7 31.41zm0-1.23l.11-88.09 108.4 79.3-62 42.62zm109.37-8.16l23.32 17.06-43 29.79-.22.14v26.26l-42.15-30.63zm24.17 17.68l17.74 13-60.84 43V753zm-43.1 57.23l66-46.69V824l-54 35.61-12-8.91zm61.7-44.87l-17.73-13 22-15.25v25.17zm5.3-28.91l24.35-16.85 17.6 12.33-41.95 29.68zm25.23-17.46l45.57-31.55 17 11.58v.49l-45 31.81zm62.55-18.25l-.52 61.32-.28.19-43.29-30.32zm68.33 111.16l-87 58.5-67.24-48 85.11-59zm-1.61-96.42l-66.24 45.88.53-61.33.24-.17.19.13.36-.52 37.86-26.79 27.03 20.16zm1-62.6l14.19 10.12v39.94l-14.19-10.58zm72 93.15l-57.57-42.94h.8v-39.37l36.24 25.86.29.21 68-48.3-.21 72.27h1l.21-73 85.26-60.52.58-.41-47.14-32.84 25.45-17.24 102 74.58zm267.14-250l.08-68.65 89.54 66.5v17l-37.74 24.87-102.26-76.26v143.68l-.89.58-102.25-74.73 152.61-104.87-.09 71.86zm51 40.34l-100.37 66.16v-141zm45.94 34.26l-100.8 67.79-46.54-34 1-.62h.08l101.23-66.72zm-7.31-6.7l-36.89-27.5 36.89-24.32zm12.15-61l-11.15 7.35v-15.68zm-12.15-80.16v69.89l-89.54-66.5v-2.66l46.56-32zM1980.78 361l-45.7 31.41.08-64.61zm-46.51-122.54l-.11 87.38-61-44.4zm-.11 88.62l-.08 66-153.31 105.37.21-152.22 91.41-64.23-.08.11zm-154.39 172.06v.24l-13.43 9.1.66-152.93 13-9.25zM1767 354.34l.08-18.12 12.87 8.9zm-.67-18.63l-156 108-.21.15v21.46l-1.26.86-44.5-32.49 59.58-42.3.33-.24h.26v-.27.05l109.26-77.75zm58.94-87.62l69.62-49.55v24.81l-52.83 37.07zm70.62-25.44v-24.82l31.84-22.66 17.76 12.67zm-1-144v71.85l-68.13-48.62 79.1-54.79 16.64 12.4zm1 73.83l31 22.12-31 22.05zm82-12.93l18.22 12.83-49.72 34.89-17.75-12.67zm53.72 37.81l-49.68 35.27-34.67-24.74 49.72-34.9zm-9.26-43.4l-25.37 17.8-18.65-13.12-.21.29-.37-.51-50 35.56-31.85-22.73V79.13l27.46-19zm-66.7-121.29L1972.3 25l-48.93 33.87-16.64-12.4zM1453 156.3l-51-38.07v-38.3l51 36.44zm1-134.61l13.66 9.52-13.66 9.7zm-1 21.15v72.3l-50.76-36.24zm-52 36.96v37.68l-25.88-19.3zm-224.17-36.94L1314.27 141l.29.2 59.67-42.37 26.74 20v.39h.53l109 81.29.3-.4.28.41 215.56-142.19L1774 93l101.68-68.37L1905 46.46l-79.42 55-.58.41 69.87 49.86v45.59l-70.47 50.15-133.87-98.33 82.75-56.27-.56-.83-83.92 57.07 134.74 99-89.77 63.89-108.72-75.16-.27.4v-.72L1514 314l-46.39-32.32-14.85 10.32-121.24-84.45v-62.84h-.35l-.36-.52-65.81 46.53-.21-.15.21-24.88-18.22 12.62-133.09-90.63zm-64.89 44.84l-66 46.89-34.67-24.74 65.61-46zM1058.07 51l17.87 12.17-65.59 46-17-12.17zm-98.18 69.79l32.56-23.14 17 12.16-49.6 34.81zm0-46.38l31.7 22.62-31.7 22.54zm-1 47.09v23.82l-52.83 37.07-16.14-11.86zm-69.83 49.65l16.7 12.26.29.21 104.3-73.2 35.25 25.16.29.21 66.93-47.52 133.11 90.62-45.53 31.52-24.28-17-.1-.07v-61.77h-1v62.26l-47 32.34-109.28-79.94v-.71l-154 108.27-46.56-32.18zm-72.69 50.44L707.9 298.73l.11-56.07 68.84-48.08-.38-.54zm-40.19-27.79L708 241.44l.18-94.61zm-69-46.42l-.18 94.76-41 28.65-67.69-47.15zM551 191.93l45.52 31.71-42.92 30-44.35-32.84zm1.87 62.46l-.13 93.08-109.65-80.3-.59.8 109.67 80.32-42.54 29.46L397.89 298l76.82-53.21.05-.07 33.86-23.46-.17.23zm-79.05-10.22l-77.1 53.41-.59.4.58.41 112 80-103.5 71.69L373.89 428l41.76-29.65.58-.41-35.08-24.43 52-36.49-.28-.41.29-.4-59.26-42.81 84.5-60zM148 311.39v-52.57l12-7.91 44.71 33.2-49.52 33.3-8.07-6zm67-214.62l24.35-16.85L257 92.25l-42 29.68zm-1 25.86l-4.3 3.05-17.73-13 22-15.25zm-5.16 3.66l-60.84 43v-26.13l43.1-29.84zM148 170.55l66-46.69v90.26l-54 35.57-12-8.94zm12.9 79.77l53.88-35.51.22-.15v-91.51l42.82-30.29 43.28 30.32-85.38 59.14-.58.4 68.09 48.6-77.63 52.2zm211.25 43l-.14.1-1.36-1h.85v-120l86 60.25-84.5 60-.92-.66-.58.81zM331 264.18l-46-32.84 85.52-57.51v118.55l-39.16-27.95v-.5zm-1.39 73.38l-51.27-35.71 52-36zm-45.48-106.84l-67.24-48L302 123.79l69.14 48.43zm18.15-108.34l-.28.19-43.29-30.32 44.09-31.2zm-18.16 109.56l46 32.84-52.66 36.46-18.12-12.62-24.26 16.8-28.63-21.27zm-7.52 69.91l-24 16.59-16.6-12.39 23.41-16.21zM251.77 319l-48.93 33.88-16.64-12.37 48.88-33.86zm50.87 108.3l-99-73.79 48.93-33.88 98.85 73.41zm-.86.61l-76 53.3-50.46-36v-72.05l27.45-19zm50.54-35.48l-98.84-73.4 24-16.61 52.13 36.31v.37h.53l49.27 34.32zm-21.7-54.21l.73-72.61 40.38 28.82.29.2 1-.71 59 42.59-51.72 36.3zm194.54-153.49l-66.77 47.4-155.52-108.95L370 76.67zM369.52 13.85v41.63l-29.29-20.91zm-30.15 21.34l30.15 21.52V75.8l-66.24 45.88.53-61.34.24-.17.19.13.36-.52zm-36.37.66l-.19 22.24L287 46.94zm-16.9 11.7l16.7 11.75v.52l-45 31.82-17.55-12.33zm-47.6 31.76L215 95.55V62.86zM214 63.28v33l-22.88 15.84L167.82 95zm-23.75 49.41l-43 29.79-.22.15v26.26l-42.09-30.64 62-42.62zm-132.58-97L166.09 95l-62 42.62-46.51-33.82zM57.58 105l45.62 33.2-45.7 31.44zm-.09 68.48v-2.66l46.56-32 43 31.27V240zM148 242l11.16 8.28-11.16 7.34zm-1 17.49v51.81l-36.88-27.51zM8 208.89l100.4 74.85L8 349.9zm45.54 176.89L7 351.77l1-.63 101.23-66.72L154.34 318zM156.07 318l49.52-33.3 28.64 21.3-48.88 33.86zm-49.84 77.9l79.1-54.79L202 353.52l-27.4 19-.21.15v71.89zm69.13 120.77v-70.2L225 481.86zm51.32-34.8l153.6-107.8 34.21 23.83L373 427.34l-26.65-18.76-.21.3-.37-.52-111.19 79.15zm119.25-72.38L372.15 428l-110.79 78.61-25.92-18.49zM102.72 582.57l131.86-93.84 26.49 18.9.29.21L373 428.56l31.38 22.09-5.66 3.93-.59.4 61.54 43.92v55.93l-47.06 32.34-109.25-79.94v-.71l-154 108.27zm32.44 23.64l12.87 8.9-12.95 9.22zm-49.8 155.64l36.3 25.29-36.3 24.59zm-70.76-50.5l69.75-49.67-.28 98.06zM168.82 820l-84.09 59.7.11-38.28h.52v-28.49l37.17-25.18zm-46.28-33.45l-37.18-25.92V661l48.71-34.69-.66 152.29h.89zm12.53-161l13-9.24-.21 152.81v.23l-13.44 9.11zm14.48 143.61L302.16 664.3l-.09 71.85h1l.08-68.64L392.69 734v17L355 775.92l-102.31-76.26v143.66l-.89.58zm204.51 7.33l-100.37 66.17v-141zm-54.86 102l-46.53-34 1-.63h.07l101.23-66.71L400 810.76zm102.53-67.69l49.52-33.3 28.65 21.28-48.9 33.86zm46.77 34.88l-16.64-12.41 48.89-33.86 16.68 12.39zM598 885.23l-98.83-73.4 24-16.61 52.14 36.31v.37h.54l49.26 34.32zm79.68-55.92L626 865.61 576.28 831l.74-72.6 40.38 28.82.29.2 1-.71zm-59-43.82l-.92-.66-.59.81.64.47-.14.1-1.36-1h.86v-120l86 60.25zm86.23-60l67.09-47.6.58-.41-156.39-108.92v-42.88l25.25 18.83v.39h.56l109 81.29.3-.4.28.42 215.53-142.09 47.4 34.64 101.68-68.37 29.29 21.85-79.41 55-.58.41 69.87 49.86v71.62l-52.83 37.08L931 574.92l82.75-56.27-.57-.83-83.91 57.07 152.94 112.33.29.22 104.3-73.2 7.06 5-112.27 79.81-108.77-75.2-.28.4v-.72l-110.75 77.58-46.39-32.31-96.25 66.66zm14.21 11.18l1.26.88.58-.82-1-.67 53-36.71-.16.23 44.4 32.88-.12 93.09-109.59-80.3-.6.81 109.67 80.31L774 855.84l-111.74-79.76zm98.91 149.64l.08-58.79h.06l.31.23.29.21 41.09 28.63zm88.54 1.6l-45-31.31 49.62-35.23 44.49 32.5zm51.27-33.73l-.4-.29.4-.28zm1-22.72l155-107.3-.08 18-49.66 35.37h-.06l-70.62 50.29-34.54 23.91zm35.45-3l69.75-49.67-.28 98.06zm107.94 75.19l-37.19-25.91v-99.69l48.72-34.69-.67 152.29h.89zm12.53-161l13-9.25-.21 152.81v.24l-13.44 9.1zm13.77 142.87l.21-152.22 91.44-64.3-.08.11 61.85 45-.09 66zm154.31-102.17v-2.66l46.56-32 43 31.27v70zm90.53 84.12v-15.55l11.09 8.24zm57.5 26l-44.67-33.22 54-35.56.22-.14V733l42.82-30.29 43.25 30.29-85.38 59.14-.58.4 68.09 48.6zM1556.38 874l-46-32.84 85.52-57.5v118.56l-39.16-28h.07zm41.16 29.17l-.14.1-1.36-1 .85.81V782.34l86 60.24-84.5 60"/>
  <path class="cls-2" d="M260.02 904.57h1.77l36.64-24.92-.56-.83-37.85 25.75zM2038.56 579.54l-55.9 38.72-.59.4 56.49 40.31v-1.22l-54.75-39.08 54.75-37.92v-1.21zM52.2 386.06L0 421.56v1.21l52.77-35.88-.57-.83z"/>
  <path d="M2038.56 780.25v.12l.08-.06-.08-.06zM1102.24 904.83l.39-.26h-.77l.38.26z"/>
</svg>