<?xml version="1.0" encoding="UTF-8"?>
<svg width="32px" height="20px" viewBox="0 0 32 20" version="1.1" xmlns="http://www.w3.org/2000/svg" xmlns:xlink="http://www.w3.org/1999/xlink">
    <!-- Generator: Sketch 63.1 (92452) - https://sketch.com -->
    <title>card-logo-visa</title>
    <desc>Created with Sketch.</desc>
    <g id="Symbols" stroke="none" stroke-width="1" fill="none" fill-rule="evenodd">
        <g id="US-Credit-Cards">
            <g id="card-logo-visa">
                <polygon id="Fill-4" fill="#E6E6E6" points="-3.60360355e-05 16.2648649 31.999964 16.2648649 31.999964 3.61441441 -3.60360355e-05 3.61441441"></polygon>
                <path d="M-3.60360355e-05,16.2648468 L-3.60360355e-05,18.0666486 C-3.60360355e-05,19.0616036 0.892940844,19.8684505 1.99410617,19.8684505 L30.0058218,19.8684505 C31.1071865,19.8684505 31.999964,19.0616036 31.999964,18.0666486 L31.999964,16.2648468 L-3.60360355e-05,16.2648468 Z" id="Fill-1" fill="#F79F1A"></path>
                <path d="M30.0054489,-1.8018018e-05 L1.99447905,-1.8018018e-05 C0.892908367,-1.8018018e-05 -3.60360355e-05,0.806648649 -3.60360355e-05,1.80178378 L-3.60360355e-05,3.60358559 L31.999964,3.60358559 L31.999964,1.80178378 C31.999964,0.806648649 31.1070196,-1.8018018e-05 30.0054489,-1.8018018e-05" id="Fill-6" fill="#5065A1"></path>
                <path d="M11.0655856,6.31535135 L9.36108108,11.2234595 L9.1809009,10.2558919 C8.86558559,9.13877477 7.72054054,7.28345946 6.61783784,6.67967568 L8.33585586,13.5333694 L10.1754955,13.5333694 L12.907027,6.31535135 L11.0655856,6.31535135 Z M23.0169369,10.6649009 C23.052973,10.6649009 23.7178378,8.32255856 23.7178378,8.32255856 L24.2493694,10.6649009 L23.0169369,10.6649009 Z M25.0223423,6.34057658 L23.6818018,6.34057658 C23.2655856,6.34057658 22.9502703,6.4667027 22.7809009,6.92075676 L20.1971171,13.5421982 L22.0223423,13.5421982 L22.525045,12.1007568 L24.5682883,12.1007568 L24.8295495,13.5421982 L26.4385586,13.5421982 L25.0223423,6.34057658 Z M18.8547748,9.25769369 C18.2475676,8.93697297 17.8745946,8.71715315 17.8745946,8.39463063 C17.8745946,8.09733333 18.1881081,7.79084685 18.8763964,7.79084685 C19.3232432,7.77841441 19.7668468,7.87030631 20.1718919,8.0594955 L20.3286486,8.13336937 L20.5646847,6.62165766 C20.0684685,6.42291892 19.5387387,6.32183784 19.0043243,6.32431429 C17.2854054,6.32431429 16.0763964,7.27751351 16.0691892,8.6394955 C16.0547748,9.6449009 16.9358559,10.2036396 17.5935135,10.5385946 C18.2511712,10.8739099 18.4944144,11.1045405 18.4944144,11.409045 C18.4944144,11.8793153 17.9538739,12.0955315 17.4475676,12.0955315 C16.8812613,12.1108468 16.3201802,11.9825586 15.8169369,11.7225586 L15.5863063,11.6108468 L15.3430631,13.1818378 C15.9596396,13.431027 16.6185586,13.5576937 17.2836036,13.5550333 C19.1106306,13.5550333 20.298018,12.6162523 20.3124324,11.1658018 C20.3124324,10.3694054 19.852973,9.75841441 18.8511712,9.2594955 L18.8547748,9.25769369 Z M13.6079279,6.31535135 L12.5268468,13.5387748 L14.2673874,13.5387748 L15.3484685,6.31535135 L13.6079279,6.31535135 Z" id="Fill-7" fill="#5065A1"></path>
                <path d="M8.49009009,6.87569369 C8.39279279,6.45046847 8.0954955,6.33515315 7.72972973,6.31533333 L5.02702703,6.31533333 L5,6.45046847 C7.10630631,7.00362162 8.5009009,8.33695495 9.07207207,9.93875676 L8.49009009,6.87569369 Z" id="Fill-8" fill="#F79F1A"></path>
            </g>
        </g>
    </g>
</svg>