<?xml version="1.0" encoding="UTF-8"?>
<svg width="32px" height="20px" viewBox="0 0 32 20" version="1.1" xmlns="http://www.w3.org/2000/svg" xmlns:xlink="http://www.w3.org/1999/xlink">
    <!-- Generator: Sketch 63.1 (92452) - https://sketch.com -->
    <title>card-logo-unknown</title>
    <desc>Created with Sketch.</desc>
    <g id="Symbols" stroke="none" stroke-width="1" fill="none" fill-rule="evenodd">
        <g id="US-Credit-Cards" transform="translate(-148.000000, 0.000000)" fill="#434A54" fill-rule="nonzero">
            <g id="card-logo-unknown" transform="translate(148.000000, 0.000000)">
                <path d="M29.6512665,0 L2.34873346,0 C1.05157108,0 -1.00535899e-14,1.05197036 -1.00535899e-14,2.34968332 L-1.00535899e-14,4.24242424 L32,4.24242424 L32,2.34968332 C32,1.05205607 30.9484289,0 29.6512665,0 Z M-1.00535899e-14,17.6760807 C-1.00535899e-14,18.9594796 1.05157108,20 2.34873346,20 L29.6512665,20 C30.9484289,20 32,18.9594796 32,17.6760807 L32,8.28282828 L-1.00535899e-14,8.28282828 L-1.00535899e-14,17.6760807 Z M23.8,11.3131313 L28.4,11.3131313 L28.4,12.7272727 L23.8,12.7272727 L23.8,11.3131313 Z M3.6,11.3131313 L13.8,11.3131313 L13.8,12.7272727 L3.6,12.7272727 L3.6,11.3131313 Z M3.6,14.5454545 L9.2,14.5454545 L9.2,15.959596 L3.6,15.959596 L3.6,14.5454545 Z" id="Shape"></path>
            </g>
        </g>
    </g>
</svg>