<?xml version="1.0" encoding="UTF-8"?>
<svg width="32px" height="20px" viewBox="0 0 32 20" version="1.1" xmlns="http://www.w3.org/2000/svg" xmlns:xlink="http://www.w3.org/1999/xlink">
    <!-- Generator: Sketch 63.1 (92452) - https://sketch.com -->
    <title>card-logo-amex</title>
    <desc>Created with Sketch.</desc>
    <g id="Symbols" stroke="none" stroke-width="1" fill="none" fill-rule="evenodd">
        <g id="US-Credit-Cards" transform="translate(-74.000000, 0.000000)">
            <g id="card-logo-amex" transform="translate(74.000000, 0.000000)">
                <path d="M30.0053606,0 L1.99463941,0 C0.893000062,0 0,0.812006892 0,1.81372994 L0,18.1862701 C0,19.1878117 0.893000062,20 1.99463941,20 L30.0053606,20 C31.1068005,20 32,19.1878117 32,18.1862701 L32,1.81917113 C32,0.817448082 31.1068005,0.00544118981 30.0053606,0.00544118981" id="Fill-1" fill="#48A0DC"></path>
                <path d="M18.5107143,8.8125 L18.5107143,9.63392857 L20.9392857,9.63392857 L20.9392857,10.5482143 L18.5107143,10.5482143 L18.5107143,11.4410714 L21.2375,11.4410714 L22.5033929,10.1214286 L21.2892857,8.80875 L18.5107143,8.8125 Z M25.9944643,12.3839286 L24.5658929,12.3839286 L23.2017857,10.8839286 L21.7857143,12.3748214 L17.4107143,12.3748214 L17.4107143,7.88928571 L21.8641071,7.88928571 L23.2266071,9.36053571 L24.6319643,7.88928571 L25.9944643,7.88928571 L23.9266071,10.1480357 L25.9944643,12.3839286 Z M16.4053571,12.3839286 L15.3125,12.3839286 L15.3033929,8.86232143 L13.7053571,12.3839286 L12.7266071,12.3839286 L11.1194643,8.86232143 L11.1194643,12.3839286 L8.86785714,12.3839286 L8.43928571,11.3766071 L6.13375,11.3766071 L5.70178571,12.3839286 L4.49642857,12.3839286 L6.47839286,7.88928571 L8.13017857,7.88928571 L10.0105357,12.1339286 L10.0105357,7.88928571 L11.8178571,7.88928571 L13.2678571,10.9357143 L14.6033929,7.88928571 L16.4033929,7.88928571 L16.4053571,12.3839286 Z M28.0732143,7 L24.1446429,7 L23.2285714,7.95696429 L22.3732143,7 L13.9428571,7 L13.2176786,8.61767857 L12.4767857,7 L9.09464286,7 L9.09464286,7.73732143 L8.71964286,7 L5.82839286,7 L3,13.2625 L6.39285714,13.2625 L6.81232143,12.2642857 L7.77303571,12.2642857 L8.19285714,13.2625 L11.9158929,13.2625 L11.9158929,12.5016071 L12.2482143,13.2625 L14.1783929,13.2625 L14.5107143,12.4839286 L14.5107143,13.2625 L22.2676786,13.2625 L23.2105357,12.2892857 L24.0928571,13.2625 L28.075,13.2714286 L25.2355357,10.1480357 L28.0732143,7 Z M6.52678571,10.4446429 L8.04625,10.4446429 L7.28571429,8.65892857 L6.52678571,10.4446429 Z" id="Fill-4" fill="#FFFFFF"></path>
            </g>
        </g>
    </g>
</svg>