<svg xmlns="http://www.w3.org/2000/svg" xmlns:xlink="http://www.w3.org/1999/xlink" width="137px" height="45px" viewBox="0 0 136.71 45.41"><defs><style>.cls-1,.cls-2,.cls-5{fill:#5d5d5d;}.cls-1,.cls-4{clip-rule:evenodd;}.cls-3,.cls-4{fill:none;}.cls-5{fill-rule:evenodd;}.cls-6{clip-path:url(#clip-path);}.cls-7{clip-path:url(#clip-path-2);}.cls-8{clip-path:url(#clip-path-3);}.cls-9{clip-path:url(#clip-path-5);}.cls-10{clip-path:url(#clip-path-7);}.cls-11{clip-path:url(#clip-path-8);}.cls-12{fill:#ed3124;}.cls-13{clip-path:url(#clip-path-9);}.cls-14{clip-path:url(#clip-path-11);}.cls-15{isolation:isolate;}.cls-16{clip-path:url(#clip-path-13);}.cls-17{clip-path:url(#clip-path-14);}.cls-18{clip-path:url(#clip-path-16);}.cls-19{clip-path:url(#clip-path-18);}.cls-20{clip-path:url(#clip-path-20);}.cls-21{clip-path:url(#clip-path-22);}.cls-22{clip-path:url(#clip-path-23);}.cls-23{font-size:10px;fill:#fff;font-family:Futura-Medium, Futura;}.cls-24{letter-spacing:0.01em;}.cls-25{letter-spacing:-0.02em;}.cls-26{letter-spacing:-0.03em;}.cls-27{letter-spacing:0.02em;}.cls-28{letter-spacing:-0.04em;}</style><clipPath id="clip-path"><path class="cls-1" d="M29,21.58a4,4,0,0,1-.17,1.53c-.11.19-.35.29-.72.29a.79.79,0,0,1-.78-.37,4.28,4.28,0,0,1-.2-1.65,5,5,0,0,1,.23-1.7A4,4,0,0,1,29,18.2Zm-1.86-7.37a5.84,5.84,0,0,1,.15-1.72c.1-.22.34-.33.74-.33a.79.79,0,0,1,.75.39A4,4,0,0,1,29,14.24a3,3,0,0,1-.21,1.37,10.5,10.5,0,0,1-3.14,1.31,10.46,10.46,0,0,0-3.44,1.57A3.49,3.49,0,0,0,21.5,21v1.36q0,2.5,1.3,3.24a5.72,5.72,0,0,0,2.86.74,4.46,4.46,0,0,0,2.05-.44,3.49,3.49,0,0,0,1.41-1.33V26h5.81V17.75a29.26,29.26,0,0,0-.31-5.4,3.58,3.58,0,0,0-1.84-2.21,9.18,9.18,0,0,0-4.56-.9,9.14,9.14,0,0,0-4.1.79A4.51,4.51,0,0,0,22,11.86a4.77,4.77,0,0,0-.52,2.52v.73h5.61Z"/></clipPath><clipPath id="clip-path-2"><rect class="cls-2" x="4" y="4.69" width="129" height="33"/></clipPath><clipPath id="clip-path-3"><path class="cls-1" d="M43,9.55v1.55a4.55,4.55,0,0,1,1.66-1.4,5,5,0,0,1,2.19-.47,4.44,4.44,0,0,1,3.78,1.87,5.11,5.11,0,0,1,1.7-1.4A5.18,5.18,0,0,1,57,9.86a2.8,2.8,0,0,1,1.28,1.52,11,11,0,0,1,.28,2.93V26H52.71V15.28a11.73,11.73,0,0,0-.17-2.61.73.73,0,0,0-.78-.51.77.77,0,0,0-.81.5,10.72,10.72,0,0,0-.18,2.62V26H45V15.55a16,16,0,0,0-.14-2.9.7.7,0,0,0-.78-.49,1,1,0,0,0-.68.26.91.91,0,0,0-.31.62c0,.24,0,.76,0,1.56V26H37.22V9.55Z"/></clipPath><clipPath id="clip-path-5"><path class="cls-1" d="M66.36,15.53V14.18a5.49,5.49,0,0,1,.15-1.71c.1-.21.36-.31.79-.31a.67.67,0,0,1,.68.37,5.08,5.08,0,0,1,.17,1.65v1.35Zm7.75.36a8.57,8.57,0,0,0-.66-3.73A4.79,4.79,0,0,0,71.15,10,9.44,9.44,0,0,0,67,9.23a9.31,9.31,0,0,0-3.64.66,4.46,4.46,0,0,0-2.28,1.92,7,7,0,0,0-.69,3.41V20a9.67,9.67,0,0,0,.31,2.81,4.36,4.36,0,0,0,1.12,1.77,5.46,5.46,0,0,0,2.26,1.26,11.11,11.11,0,0,0,3.34.46,9.76,9.76,0,0,0,3.24-.46,5.21,5.21,0,0,0,2.14-1.39,4.51,4.51,0,0,0,1.07-1.75,9.18,9.18,0,0,0,.23-2.35v-1H68.45v1.92A3.91,3.91,0,0,1,68.22,23a1,1,0,0,1-.92.43.8.8,0,0,1-.75-.32,3.3,3.3,0,0,1-.19-1.43V18.08H74.1Z"/></clipPath><clipPath id="clip-path-7"><path class="cls-4" d="M97.92,6.88V9.12h1.91V11.2H97.92V21.36a4,4,0,0,0,.2,1.82,4,4,0,0,0,1.69.18V26H97.4a15.87,15.87,0,0,1-2.57-.14,3.27,3.27,0,0,1-1.54-.66A2.17,2.17,0,0,1,92.46,24a17.51,17.51,0,0,1-.16-3.13V11.2H91.13V9.12H92.3V6.88Z"/></clipPath><clipPath id="clip-path-8"><rect class="cls-3" x="4" y="4.69" width="129" height="33"/></clipPath><clipPath id="clip-path-9"><path class="cls-4" d="M108.56,21.69a3.48,3.48,0,0,1-.17,1.39.74.74,0,0,1-.72.32A.72.72,0,0,1,107,23a4,4,0,0,1-.18-1.51V14.09a4.18,4.18,0,0,1,.18-1.6.75.75,0,0,1,.73-.33.71.71,0,0,1,.71.33,4.53,4.53,0,0,1,.17,1.6Zm5.67-9A4.48,4.48,0,0,0,113.16,11a5.61,5.61,0,0,0-2.23-1.31,10.61,10.61,0,0,0-3.46-.5,8.71,8.71,0,0,0-3.94.78,4.4,4.4,0,0,0-2.13,2.07,8.83,8.83,0,0,0-.59,3.6v4.23a11.35,11.35,0,0,0,.33,3.16,4.16,4.16,0,0,0,1.09,1.79,4.79,4.79,0,0,0,2.14,1.1,13.29,13.29,0,0,0,3.36.37,10.52,10.52,0,0,0,3.15-.43,5.23,5.23,0,0,0,2.24-1.33,4.32,4.32,0,0,0,1.14-1.94,14.3,14.3,0,0,0,.27-3.27v-4A8.85,8.85,0,0,0,114.23,12.71Z"/></clipPath><clipPath id="clip-path-11"><rect class="cls-3" x="76.02" y="5" width="14.21" height="21.66"/></clipPath><clipPath id="clip-path-13"><rect class="cls-3" x="76" y="4.69" width="15" height="22"/></clipPath><clipPath id="clip-path-14"><path class="cls-4" d="M89.15,16.49q-1.08-1.39-5.23-3.55a4.66,4.66,0,0,1-1.76-1.27,2.87,2.87,0,0,1-.33-1.55,2.07,2.07,0,0,1,.29-1.2,1,1,0,0,1,.85-.4.86.86,0,0,1,.74.3,2.65,2.65,0,0,1,.22,1.37v1.55h5.77V10.9a8,8,0,0,0-.55-3.51,4.17,4.17,0,0,0-2.26-1.71A11.14,11.14,0,0,0,82.76,5,10.22,10.22,0,0,0,79,5.62a4.55,4.55,0,0,0-2.26,1.73,6.74,6.74,0,0,0-.7,3.5,6.49,6.49,0,0,0,.49,2.72,4.58,4.58,0,0,0,1.25,1.67,28,28,0,0,0,3.07,1.94,19.21,19.21,0,0,1,2.91,1.89,3.54,3.54,0,0,1,.58,2.4,2.17,2.17,0,0,1-.3,1.25,1,1,0,0,1-.92.43,1,1,0,0,1-.86-.33A3,3,0,0,1,82,21.3V19.84H76.21v.73a7.18,7.18,0,0,0,.55,3.19,4.33,4.33,0,0,0,2.31,2.09,10.05,10.05,0,0,0,4.26.82,10.38,10.38,0,0,0,4-.71,4.51,4.51,0,0,0,2.31-1.77,6.89,6.89,0,0,0,.6-3.27,7.21,7.21,0,0,0-1.08-4.43"/></clipPath><clipPath id="clip-path-16"><path class="cls-4" d="M123.82,21.37a5.87,5.87,0,0,1-.14,1.66c-.09.23-.33.34-.7.34a.75.75,0,0,1-.76-.38,5.81,5.81,0,0,1-.17-1.86V14.32a5.72,5.72,0,0,1,.17-1.8.73.73,0,0,1,.75-.37c.39,0,.64.11.72.33a7.15,7.15,0,0,1,.13,1.85Zm-7.24-12v20.8H122v-5.6a5.34,5.34,0,0,0,1.73,1.28,4.93,4.93,0,0,0,2.06.43,4.76,4.76,0,0,0,2.38-.56,2.71,2.71,0,0,0,1.31-1.51,11.2,11.2,0,0,0,.32-3.19V14.08a10.58,10.58,0,0,0-.25-2.77,2.7,2.7,0,0,0-1.27-1.44,4.5,4.5,0,0,0-2.41-.63,5.1,5.1,0,0,0-2.11.43A5.34,5.34,0,0,0,122,11V9.35Z"/></clipPath><clipPath id="clip-path-18"><path class="cls-1" d="M19.48,13.09H13.25V11.2A8.15,8.15,0,0,0,13.07,9a.8.8,0,0,0-.84-.45.81.81,0,0,0-.79.39,5.49,5.49,0,0,0-.21,2v10a5.18,5.18,0,0,0,.21,1.84.82.82,0,0,0,.83.44.93.93,0,0,0,.92-.5,5.11,5.11,0,0,0,.24-1.95V18.23H12.2V15.58h7.28V26.24h-4L15,24.76a4,4,0,0,1-1.61,1.43,5.17,5.17,0,0,1-2.29.47A6.7,6.7,0,0,1,8.14,26a5.36,5.36,0,0,1-2.08-1.64,4.84,4.84,0,0,1-.89-2.05A21.38,21.38,0,0,1,5,19.1V12.93A18.13,18.13,0,0,1,5.37,8.6,4.55,4.55,0,0,1,7.49,6.12,8.3,8.3,0,0,1,12,5a9.49,9.49,0,0,1,4.55,1,4.87,4.87,0,0,1,2.36,2.32,10.76,10.76,0,0,1,.55,3.9Z"/></clipPath><clipPath id="clip-path-20"><rect class="cls-3" x="130.25" y="9.28" width="1.47" height="1.46"/></clipPath><clipPath id="clip-path-22"><rect class="cls-3" x="130" y="8.69" width="2" height="3"/></clipPath><clipPath id="clip-path-23"><path class="cls-4" d="M131,9.28a.73.73,0,1,1-.74.73A.72.72,0,0,1,131,9.28Zm0,1.35a.62.62,0,1,0-.6-.62A.6.6,0,0,0,131,10.63Zm-.28-1H131c.2,0,.3.08.3.24a.22.22,0,0,1-.22.23l.24.38h-.14l-.23-.37h-.14v.37h-.13Zm.13.38H131c.12,0,.23,0,.23-.14s-.1-.13-.19-.13h-.18Z"/></clipPath></defs><title>Asset 1</title><g id="Layer_2" data-name="Layer 2"><g id="Layer_1-2" data-name="Layer 1"><path class="cls-5" d="M29,21.58a4,4,0,0,1-.17,1.53c-.11.19-.35.29-.72.29a.79.79,0,0,1-.78-.37,4.28,4.28,0,0,1-.2-1.65,5,5,0,0,1,.23-1.7A4,4,0,0,1,29,18.2Zm-1.86-7.37a5.84,5.84,0,0,1,.15-1.72c.1-.22.34-.33.74-.33a.79.79,0,0,1,.75.39A4,4,0,0,1,29,14.24a3,3,0,0,1-.21,1.37,10.5,10.5,0,0,1-3.14,1.31,10.46,10.46,0,0,0-3.44,1.57A3.49,3.49,0,0,0,21.5,21v1.36q0,2.5,1.3,3.24a5.72,5.72,0,0,0,2.86.74,4.46,4.46,0,0,0,2.05-.44,3.49,3.49,0,0,0,1.41-1.33V26h5.81V17.75a29.26,29.26,0,0,0-.31-5.4,3.58,3.58,0,0,0-1.84-2.21,9.18,9.18,0,0,0-4.56-.9,9.14,9.14,0,0,0-4.1.79A4.51,4.51,0,0,0,22,11.86a4.77,4.77,0,0,0-.52,2.52v.73h5.61Z"/><g class="cls-6"><rect class="cls-2" x="4" y="4.69" width="129" height="33"/><g class="cls-7"><rect class="cls-2" x="16.5" y="4.23" width="23.44" height="27.09"/></g></g><path class="cls-5" d="M43,9.55v1.55a4.55,4.55,0,0,1,1.66-1.4,5,5,0,0,1,2.19-.47,4.44,4.44,0,0,1,3.78,1.87,5.11,5.11,0,0,1,1.7-1.4A5.18,5.18,0,0,1,57,9.86a2.8,2.8,0,0,1,1.28,1.52,11,11,0,0,1,.28,2.93V26H52.71V15.28a11.73,11.73,0,0,0-.17-2.61.73.73,0,0,0-.78-.51.77.77,0,0,0-.81.5,10.72,10.72,0,0,0-.18,2.62V26H45V15.55a16,16,0,0,0-.14-2.9.7.7,0,0,0-.78-.49,1,1,0,0,0-.68.26.91.91,0,0,0-.31.62c0,.24,0,.76,0,1.56V26H37.22V9.55Z"/><g class="cls-8"><rect class="cls-2" x="4" y="4.69" width="129" height="33"/><g class="cls-7"><rect class="cls-2" x="32.22" y="4.23" width="31.3" height="26.79"/></g></g><path class="cls-5" d="M66.36,15.53V14.18a5.49,5.49,0,0,1,.15-1.71c.1-.21.36-.31.79-.31a.67.67,0,0,1,.68.37,5.08,5.08,0,0,1,.17,1.65v1.35Zm7.75.36a8.57,8.57,0,0,0-.66-3.73A4.79,4.79,0,0,0,71.15,10,9.44,9.44,0,0,0,67,9.23a9.31,9.31,0,0,0-3.64.66,4.46,4.46,0,0,0-2.28,1.92,7,7,0,0,0-.69,3.41V20a9.67,9.67,0,0,0,.31,2.81,4.36,4.36,0,0,0,1.12,1.77,5.46,5.46,0,0,0,2.26,1.26,11.11,11.11,0,0,0,3.34.46,9.76,9.76,0,0,0,3.24-.46,5.21,5.21,0,0,0,2.14-1.39,4.51,4.51,0,0,0,1.07-1.75,9.18,9.18,0,0,0,.23-2.35v-1H68.45v1.92A3.91,3.91,0,0,1,68.22,23a1,1,0,0,1-.92.43.8.8,0,0,1-.75-.32,3.3,3.3,0,0,1-.19-1.43V18.08H74.1Z"/><g class="cls-9"><rect class="cls-2" x="4" y="4.69" width="129" height="33"/><g class="cls-7"><rect class="cls-2" x="55.39" y="4.23" width="23.71" height="27.09"/></g></g><g class="cls-10"><g class="cls-11"><rect class="cls-12" x="86.13" y="1.88" width="18.7" height="29.15"/></g></g><g class="cls-13"><g class="cls-11"><rect class="cls-12" x="95.81" y="4.23" width="23.71" height="27.09"/></g></g><g class="cls-14"><g class="cls-11"><g class="cls-15"><g class="cls-16"><g class="cls-17"><g class="cls-16"><rect class="cls-12" x="71.02" width="24.21" height="31.66"/></g></g></g></g></g></g><g class="cls-18"><g class="cls-11"><rect class="cls-12" x="111.58" y="4.25" width="23.27" height="30.9"/></g></g><path class="cls-5" d="M19.48,13.09H13.25V11.2A8.15,8.15,0,0,0,13.07,9a.8.8,0,0,0-.84-.45.81.81,0,0,0-.79.39,5.49,5.49,0,0,0-.21,2v10a5.18,5.18,0,0,0,.21,1.84.82.82,0,0,0,.83.44.93.93,0,0,0,.92-.5,5.11,5.11,0,0,0,.24-1.95V18.23H12.2V15.58h7.28V26.24h-4L15,24.76a4,4,0,0,1-1.61,1.43,5.17,5.17,0,0,1-2.29.47A6.7,6.7,0,0,1,8.14,26a5.36,5.36,0,0,1-2.08-1.64,4.84,4.84,0,0,1-.89-2.05A21.38,21.38,0,0,1,5,19.1V12.93A18.13,18.13,0,0,1,5.37,8.6,4.55,4.55,0,0,1,7.49,6.12,8.3,8.3,0,0,1,12,5a9.49,9.49,0,0,1,4.55,1,4.87,4.87,0,0,1,2.36,2.32,10.76,10.76,0,0,1,.55,3.9Z"/><g class="cls-19"><rect class="cls-2" x="4" y="4.69" width="129" height="33"/><g class="cls-7"><rect class="cls-2" width="24.48" height="31.66"/></g></g><g class="cls-20"><g class="cls-11"><g class="cls-15"><g class="cls-21"><g class="cls-22"><g class="cls-21"><rect class="cls-12" x="125.25" y="4.28" width="11.47" height="11.46"/></g></g></g></g></g></g><text class="cls-23" transform="translate(23.1 42.53)"><tspan class="cls-24">S</tspan><tspan class="cls-25" x="5.97" y="0">T</tspan><tspan x="10.56" y="0">ORE </tspan><tspan class="cls-26" x="34.25" y="0">L</tspan><tspan x="38.38" y="0">O</tspan><tspan class="cls-27" x="47.31" y="0">C</tspan><tspan class="cls-28" x="54.5" y="0">A</tspan><tspan x="61.49" y="0">TIONS</tspan></text></g></g></svg>