<svg xmlns="http://www.w3.org/2000/svg" viewBox="0 0 145 30">
    <defs>
        <style>
            .path_type {
                fill: #fff;
            }
            .path_mark {
                fill: #f00;
            }
        </style>
    </defs>
    <g data-name="logo-kingston">
        <path class="path_type" d="M33.66 17.38v7.42c0 2.78.32 4.05 3.13 4.05v.26H26v-.26c3.22 0 2.84-3.45 2.84-6.23v-7.91c0-2.78.57-8.27-2.65-8.27v-.27h10.34v.27c-2.67 0-2.87 1.63-2.87 4.4v5.82h.46c4.34-4.33 4.83-5.09 5.13-5.58 2.17-3.53.12-4.58-1.08-4.58v-.36H47v.39c-1.51 0-4.35 2.35-6 3.72l-6.53 6.55c8.89.42 8.7 5.06 9.7 8.51.56 2 .92 3.16 3.06 3.58v.23H39.3c-1.21-6.72-1.79-12.31-5.64-11.74zm20.99.95c0 3.18.51 4.07 2.36 4.07v.23h-9.23v-.23c1.88 0 2-2.19 2-4.07V10c0-2.21-.47-3.41-2.35-3.41v-.4h7.19zM52.16 0a2.59 2.59 0 0 1 2.57 2.57 2.57 2.57 0 1 1-5.14 0A2.59 2.59 0 0 1 52.16 0zm12.13 8.19C65.9 5.87 67 5.82 68.84 5.82c4.41 0 4.78 3.38 4.78 6.24v6.27c0 3.08.32 4.07 2 4.07v.23h-8.73v-.23c1.54 0 1.54-1.34 1.54-4.07V12c0-2.3.25-5.18-1.51-5.18-2 0-2.09 1.61-2.64 2.54v9c0 2.7.16 4.07 1.7 4.07v.23h-8.62v-.26c1.71 0 2-1.44 2-4.07V10c0-2.3-.42-3.42-2.3-3.42v-.43h7.22zm45.65-2.04h3.39l-.57 1.15h-2.81v9.9c0 5 2.88 4.56 4.09 3.48l.07.31a6.18 6.18 0 0 1-5 1.64A3.9 3.9 0 0 1 105 18.5V7.3h-2.79v-.13c2.18-.75 5.76-3.67 7.42-6.08h.29z" />
        <path class="path_type" d="M112.31 14.56c0-4 3.55-8.75 7.91-8.75 4 0 7.78 4.24 7.78 8.46 0 5-4.28 8.65-7.78 8.65a8.26 8.26 0 0 1-7.91-8.36zm10.7-.45c0-5-.18-8-2.79-8-2.86 0-2.66 3.81-2.66 8 0 5 0 8.51 2.66 8.51 2.99 0 2.78-3.5 2.78-8.51z" />
        <path class="path_type" d="M134.14 8.19c1.61-2.32 2.7-2.37 4.56-2.37 4.41 0 4.79 3.38 4.79 6.24v6.27c0 3.08.32 4.07 2 4.07v.23h-8.78v-.23c1.54 0 1.54-1.34 1.54-4.07V12c0-2.3.25-5.18-1.51-5.18-2 0-2.09 1.61-2.64 2.54v9c0 2.7.16 4.07 1.7 4.07v.23h-8.63v-.26c1.71 0 2-1.44 2-4.07V10c0-2.3-.42-3.42-2.3-3.42v-.43h7.22zM84.12 20.11c-.5.66-1.21 2.8-3.87 2.8-3.08 0-5.41-2.81-5.41-8.41 0-4.56 2.93-8.6 6.3-8.6a3.73 3.73 0 0 1 3.3 2.1V6.29h7.36v.36s-2.42-.49-2.42 3v12.66c-.24 3.45-1.74 5.81-7.7 7.5v-.4c3.47-2.5 2.74-6.11 2.44-9.3zm.43-6.39c0-3.73-.28-7.36-2.68-7.36-1.67 0-2.1 2.93-2.1 8.24 0 4.45.37 7.43 2.07 7.43 1.5 0 2.71-3.38 2.71-7z" />
        <path class="path_type" d="M90.24 17.37h2.36c-.32 5.16 3.27 5.16 4.14 5.16a2.91 2.91 0 0 0 3-2.59c0-4.19-8.74-2.4-8.74-8.77a5.27 5.27 0 0 1 5.5-5.31c5.34 0 6 3.21 6 4.33h-2a3.51 3.51 0 0 0-3.6-4.09c-2.77 0-2.67 2.27-2.67 2.42 0 4.07 9.45 2.59 9.45 8.59a6 6 0 0 1-6 5.74c-5.89.32-7.44-3.96-7.44-5.48zm51.57-12.61a1.71 1.71 0 1 1 1.71 1.71 1.71 1.71 0 0 1-1.71-1.71zm3.14 0a1.44 1.44 0 1 0-2.87 0 1.44 1.44 0 1 0 2.87 0zm-.58 1h-.28l-.54-.88h-.43v.88h-.24V3.81h.83c.5 0 .68.19.68.5s-.26.51-.6.52zm-.89-1.06c.27 0 .67 0 .67-.34s-.25-.36-.49-.36h-.54v.68zM48.34 23.94h4.17v.61h-1.73v4.53h-.71v-4.53h-1.73zm9.46 5.14v-5.14h3.75v.63h-3.07v1.56h2.84v.6h-2.84v1.74h3.12v.61zm11.46-5.28a2.11 2.11 0 0 1 1.51.51 1.81 1.81 0 0 1 .6 1.17h-.68a1.42 1.42 0 0 0-.46-.79 1.47 1.47 0 0 0-1-.29 1.56 1.56 0 0 0-1.23.53 2.44 2.44 0 0 0-.47 1.64A2.38 2.38 0 0 0 68 28a1.48 1.48 0 0 0 1.26.56 1.33 1.33 0 0 0 1.16-.56 2.23 2.23 0 0 0 .32-.82h.68a2.33 2.33 0 0 1-.6 1.36 2.14 2.14 0 0 1-1.65.66 2.19 2.19 0 0 1-1.51-.54 2.84 2.84 0 0 1-.8-2.22 2.84 2.84 0 0 1 .6-1.86 2.2 2.2 0 0 1 1.8-.78zm7.61 5.28v-5.14h.7v2.12h2.67v-2.12h.7v5.14h-.7v-2.41h-2.67v2.41zm12.74 0v-5.14h.82L93 28.1v-4.16h.66v5.14h-.78l-2.63-4.16v4.16zM100.83 28a2.36 2.36 0 0 1-.43-1.44 2.3 2.3 0 0 1 .5-1.61 1.68 1.68 0 0 1 1.3-.55 1.62 1.62 0 0 1 1.3.55 2.16 2.16 0 0 1 .48 1.46 2.81 2.81 0 0 1-.41 1.52 1.45 1.45 0 0 1-1.33.66 1.62 1.62 0 0 1-1.41-.59zm-.63-3.27a3 3 0 0 0-.52 1.79 3 3 0 0 0 .61 1.91 2.34 2.34 0 0 0 1.86.78 2.32 2.32 0 0 0 2-.9 3 3 0 0 0 .58-1.91 2.83 2.83 0 0 0-.51-1.75 2.35 2.35 0 0 0-2-.87 2.24 2.24 0 0 0-2.02.97zm10.47 4.35v-5.14h.69v4.52H114v.61zm9.88-1.08a2.36 2.36 0 0 1-.43-1.44 2.31 2.31 0 0 1 .5-1.61 1.68 1.68 0 0 1 1.3-.55 1.63 1.63 0 0 1 1.3.55 2.16 2.16 0 0 1 .47 1.46 2.8 2.8 0 0 1-.41 1.52 1.45 1.45 0 0 1-1.33.66 1.63 1.63 0 0 1-1.4-.59zm-.63-3.27a3 3 0 0 0-.52 1.79 3 3 0 0 0 .61 1.91 2.59 2.59 0 0 0 3.82-.11 3.06 3.06 0 0 0 .58-1.91 2.83 2.83 0 0 0-.51-1.75 2.35 2.35 0 0 0-2-.87 2.24 2.24 0 0 0-1.98.96zm12.7-.92a2.61 2.61 0 0 1 1.25.28 1.82 1.82 0 0 1 .94 1.41h-.69a1.25 1.25 0 0 0-.52-.82 1.8 1.8 0 0 0-1-.26 1.56 1.56 0 0 0-1.2.54 2.29 2.29 0 0 0-.49 1.6 2.55 2.55 0 0 0 .4 1.49 1.48 1.48 0 0 0 1.31.58 1.68 1.68 0 0 0 1.15-.41 1.7 1.7 0 0 0 .47-1.31h-1.61v-.58h2.26v2.75h-.45l-.17-.66a2.59 2.59 0 0 1-.63.54 2.32 2.32 0 0 1-1.16.26 2.27 2.27 0 0 1-1.57-.59 2.81 2.81 0 0 1-.72-2 2.93 2.93 0 0 1 .7-2.05 2.22 2.22 0 0 1 1.73-.77zm9.91 3.19l-1.94-3.07h.81l1.48 2.47 1.47-2.47h.82L143.22 27v2.07h-.7z" />
        <path d="M1.16 4.65c-.1-.41-.24-1.4-.24-1.4-.19-.8.21-1 .21-1S4.74.35 11.38.18a25.62 25.62 0 0 1 8.95 1.07c.23.1.29.28.38.62a9.37 9.37 0 0 1 .22 1.19A9.45 9.45 0 0 1 21.07 5a8.33 8.33 0 0 1-.43 1.16c-.06.61.17 3 .08 4.13a34.56 34.56 0 0 1-1.46 7.58c-1 2.69-2.67 2.25-3.53 2.25l4.05 9.1L0 29.16l2.93-15.85a.68.68 0 0 0-.31-.62 6.65 6.65 0 0 1-1.42-1.27S.8 11 .35 8.37c0 0-.38-2.44 0-3a3.21 3.21 0 0 1 .81-.57z" />
        <path class="path_mark" d="M17 8.76l-1.26-.3s-.32 0-.41.16S15 9.77 15 9.77a.16.16 0 0 0 0 .14c.06.06 3.1 2.26 3.1 2.26a17.76 17.76 0 0 0-3.35 0c-.79.19-2.37 1-3.4 1.2s-4.82.58-5.05.6l-1.5-6.5A1.78 1.78 0 0 0 3 5.87c-1.24 0-1.44.36-1.5.5a.61.61 0 0 0 0 .5l4.1 7A13.14 13.14 0 0 1 1.73 11c-.6-.8-1.15-4.65-.75-5.3s2.6-1.05 3.55-1a2.33 2.33 0 0 1 1.15.85c.09.1.13 0 .2.15s-.25-1.49-1.2-1.55a8.62 8.62 0 0 0-2.85.4s-.11 0-.16-.17-.22-1.51-.22-1.51a.6.6 0 0 1 .27-.37 24.56 24.56 0 0 1 9.7-1.8c.69 0 6.16-.08 8.75 1.05.23.18.08 1.06 0 1.55a.66.66 0 0 1-.45.47.91.91 0 0 0-.57.43s.56 5.19.6 5.4-.15.25-.69.29c-.24 0-3 .06-3 .06s-.57-.06-.55-.4.1-.72.25-.72h.53s1.11.07.71-.07zm-4.11 4.57a14 14 0 0 1 5.44.24s.6.49.53.9c.01 0-4.28.23-5.97-1.14zM13 18s.75-3.25 5.75-2.8c0 0 .35.28-.62 1.25A5.75 5.75 0 0 1 13 18z" />
        <path d="M12 2.38a8.26 8.26 0 0 1 2.75.38 16.3 16.3 0 0 1 2.06.62c.13 0 .12.36 0 .38a26 26 0 0 0-4.56-.87 16.72 16.72 0 0 0-4.12 2.73 1.83 1.83 0 0 1-.7 0A15.46 15.46 0 0 1 12 2.38z" />
        <path d="M10 5.57a18 18 0 0 1 2.7-1.13 5.2 5.2 0 0 1 2.07-.21c.41.11.86 1.2.88 1.39a5.68 5.68 0 0 1-2.65.51 11.85 11.85 0 0 1-3-.56z" />
        <path class="path_mark" d="M20.29 4.08a.53.53 0 0 1 .39.19.45.45 0 0 1 0 .56c-.1.1-.2-.1-1-.08.02.01.38-.75.61-.67zm-16.7 9.28l1.84 1.26 3.05 13.97H.73l2.86-15.23m4.48 6.85s3.77 2.36 4.37 3.21l.4 5.2h-2.75zM14.49 25a14.14 14.14 0 0 1 2.85 3.65h-3.7z" />
        <path class="path_type" d="M17.6 4.51a.23.23 0 0 1 .3.19c.27 1.26.64 4 .64 4.21 0 .4-.42.06-.42.06zM9.67.82a.87.87 0 0 1 .24 0l1.21 2-.49.29zm-4.84 6.6S4.41 6.15 5.27 6a12.13 12.13 0 0 1 3.31-.26 26.81 26.81 0 0 0-2.84.68 1.77 1.77 0 0 0-.91 1z" />
    </g>
</svg>