<svg xmlns="http://www.w3.org/2000/svg" viewBox="0 0 421.84 493.31"><defs><style>.cls-1,.cls-2{fill:none;stroke:#000;stroke-miterlimit:10;}.cls-2{stroke-width:0.5px;}</style></defs><title>Asset 3</title><g id="Layer_2" data-name="Layer 2"><g id="Details"><path class="cls-1" d="M262.77,425.57c3.89,3.64,12.38,8.27,12.38,8.27-3,3-8.75,4.83-9.92,4.81s-2.28,1.39-2.28,1.39c-.4-.55-2.06-.15-2.06-.15-108.9,37.58-202,13-202,13a30.47,30.47,0,0,0-1.39-5.33c-.91-2.34-3.29-5.26-10.33-7.08s-20.47-1.26-29-1-11.8,3.68-12.32,4S4.27,444.94,3.5,445s-2.41,1.75-2.41,1.75c-1.57,1.9.47,6.32.47,6.32s4.2,9.86,6.1,13.07A10,10,0,0,0,13.55,471c1.75.55,9.79,2.45,9.79,2.45s16.62,3.91,21,3.94,11.21-3.1,17.35-3.36a89.28,89.28,0,0,1,11.65.33c3.1.24,20.78,1.75,20.78,1.75,27.46,4.82,60.91,2.41,60.91,2.41,44.48,0,104.2-18,104.64-18.13s.67-.68,1.07-1.1.94.6.94.6l16.34-5c14.46-3.87,18.59-10.35,18.88-10.64s.35-.86.2-.91a11.31,11.31,0,0,1-1-1c1.77.05,3.21-1.77,3.21-1.77,7.08,1.21,16.62-.29,16.62-.29l.07.51s-.26,1.21.29,1.42a12.58,12.58,0,0,1,2,1.61c-1.31,9-6.79,49-6.79,49h8.18c1.17-8.62,6.92-47.33,6.61-47.77s.15-.86,1-1,1.22-.73,1.44-1.75.51-5,.51-5l.55-.09c23.12-6.35,41.89-23.92,42.69-24.76s6.17.84,7.85.84,1.22.15,7-4,11.94-10.9,14.19-12.82,2.41-3.07,2.41-4.71a52.27,52.27,0,0,0-.73-5.77c5.4-6.57,18.11-26.59,18.11-43.82s-2.92-26-2.92-26c.88-63.54-40.15-82.93-40.15-82.93-.27-7.61,3.18-14.3,4.27-17.69s3.6-6.3,5.93-18.72.8-40.17-2.48-71.5-9.35-59.38-25.56-92S322.95.75,322.95.75l-9.2-.22a37.05,37.05,0,0,0-28.43,11.39s-1.86-2.79-10.52-7.18S253.93,1.3,252,1.3s-8.19.71-8.19.71C222.87,4.42,205.3,48.17,205.3,48.17,195.08,76.36,193,97.25,190.84,113.9s-3.36,44.92-3.07,53.46.26,25.27,1.3,33,7.83,15.61,9.37,21.53,1.48,15,1.48,15-61.84,46.4-30.13,131.24c0,0,27.59,68.08,91.29,58Z"/><path class="cls-1" d="M366,123.07l1.48-6.79s2.08-11.65,2.23-13.84-5.48-31-16.72-57.19S323.18,3,315.51,3s-23.74,15.78-23.74,15.78c14.9,17.46,26.88,55.54,26.88,55.54C332.09,76.51,357.62,97.54,366,123.07Z"/><path class="cls-1" d="M263.73,72.64S272.2,46,284,28.45c0,0,.51.1,1.25,1.36S298.57,51.89,304,72.64C304,72.64,273.59,73.48,263.73,72.64Z"/><path class="cls-1" d="M304.12,152.69c.23.62-1.84,2.61-1,4.55s6.68,14.94,6.68,14.94a11.84,11.84,0,0,0,4.41,5c3.09,1.86,7.77,5,7.77,5s.44,16.16,1.48,20.32,5.29,15.69,5.29,15.69.49,1.06-.51,1c-4.07-.21-21.11,1.06-35.35,11.06,0,0-.15.23-1.25-.18s-18.83-13.4-41.69-13.69a39.67,39.67,0,0,0-5.53.46c-2.08.41-3.48-.34-2.19-3.11,0,0,4.66-11.88,4.22-21.15s-.84-12.34.86-13.44,5.86-3.18,7.23-7,4.93-12.38,5.15-13.42,1-2.74-.38-3.67-1-2.9-.6-4.22S267,120,279.82,110.28c0,0,4.66.41,9.62,9.47C289.44,119.74,294.55,127.21,304.12,152.69Z"/><path class="cls-2" d="M318.29,443.84s4.65,1.35,8,.7"/><path class="cls-2" d="M319.2,424.09a23.7,23.7,0,0,0-2.5,6.77c-.49,3.23-.82,9-.82,9"/><path class="cls-2" d="M331.38,424.48s-1.76,8.79-2.14,12.88"/><path class="cls-1" d="M229,84.39c11.71-10.09,23.37-11,23.37-11,9.42-35.5,25.85-53.83,25.85-53.83C267.67,6.25,254.82,3.76,254.82,3.76,217,21.24,206.11,86.28,202.38,113.1l.88,5.48C204.38,115.83,210,100.75,229,84.39Z"/><path class="cls-2" d="M365.53,179.49s-.16,9-.19,10.93.27,2.6-.71,2.6-2.25-1.51-3-5.15-1.07-5.67-.49-5.86a9.82,9.82,0,0,0,2.66-1.75C364.71,179.4,365.54,179.22,365.53,179.49Z"/><path class="cls-2" d="M331.8,234.56s-57.55,13.73-79.46,73.62c0,0-14.46,32.14-12.42,60.33s16.51,51,35.2,61.93c0,0,4.35,3.43,6.65,5.3a17.71,17.71,0,0,0,3.58,2.41s9.21,3.93,11.18,4.19"/><path class="cls-2" d="M228,368.73s-21.08-23.75-17.06-60,26.81-61.64,52.37-53.32"/><path class="cls-2" d="M262.77,425.57c-70-65.1-33.22-155.38,30.31-195.34"/><path class="cls-2" d="M308.14,149.1a210.43,210.43,0,0,0-16.36-37.83C273.37,81.47,253.21,79,244.38,79s-15.81,5.8-15.81,5.8"/><path class="cls-2" d="M322.23,182.12s-.66-28.52-7.23-68.05c0,0-5.73-23.86-11-41.43"/><path class="cls-2" d="M366.05,123.54s-1.68,8-1.39,12.34,2.1,35.28.87,44.37"/><path class="cls-2" d="M365.31,192.62s0,3.57-3.31,4.09a90.74,90.74,0,0,1-10.05.52s-4.37.58-4.3-6.65-3.94-47.25-6.68-57.66-10.41-20.49-13.8-28.48-8.51-30.16-8.51-30.16"/><path class="cls-2" d="M304,152.76a23.49,23.49,0,0,1,3.94-3.47,16.38,16.38,0,0,1,7.85-1.42,26.79,26.79,0,0,0,4,.36"/><path class="cls-2" d="M308.14,149.63s6.76,13.53,7.69,15.94,5.53,4.05,5.53,4.05"/><path class="cls-2" d="M346.78,177.17s13.63-.53,18.76-1.84"/><path class="cls-2" d="M304.25,153.33s7.08,15.41,8.15,16.91,9.74,6.92,9.74,6.92"/><path class="cls-2" d="M250.37,73.67s41.41-3.19,63.06,74.18"/><path class="cls-2" d="M349.62,221.78,348.09,266s.15,5.48,3,5.48h8.76a3.81,3.81,0,0,0,2.85-3.8c.07-3.21,1.94-44.84,1.94-44.84s.44-4.16-2-4.11-9.31,0-9.31,0S349.74,218.43,349.62,221.78Z"/><path class="cls-2" d="M310.08,286.83s10-5.05,12-6.22,6.06-5.48,7.12-8.8,1.33-9.66,1.61-16.78,1.17-20.32,1-23.44-.93-9.09-2.89-13.26"/><path class="cls-2" d="M418,303.85c-2.64-5.57-11.53-15.32-13.79-17.29s-4.13-.48-6.43.37-14.9,10.55-20,9.13a123.77,123.77,0,0,0-23.88-3.36c-6.79-.07-22.13,5.11-26.84,3.8s-19.36-7.6-19.36-7.6a2.48,2.48,0,0,0-2.5.09c-1.26.82-13.69,10.3-18,15.72a25.15,25.15,0,0,0-2.52,3.4c-.66,1.26-.55,1.4,0,3.19s6,18.17,5.81,21.9-5.92,14.13-6.9,25.2,1.1,22.35-.88,25.42-9.24,12.23-10.33,14.06-.66,2.41.37,4.38,12.27,12.49,13.37,13.66,4.31,1.39,5.66,1.13,17.18-3.27,19.59-3.54,10.19,1.31,14.63,2.36,24.25.57,34.69-3.38c0,0,3.71-2,7.38-1a34.37,34.37,0,0,0,4.45,1"/><path class="cls-2" d="M281.81,312.6s.33-1.17.82-1.3.44-.07,1.53,3.6,3.51,12.16,3.51,15.23-3.4,6.63-5.64,16.32-2.85,16.76-2,22.79,1.7,9,.38,11.34-8.73,13.15-8.73,13.15l-2.38-2.64-1.93,3.15c-.38.63.33,3.33,1.81,5.08s11,12.7,16.43,16.16"/><path class="cls-2" d="M295.46,416.33s12.39,6.88,25.24,7.9,34.4-1,48.39-8.7"/><path class="cls-2" d="M271.71,393.72a63.58,63.58,0,0,1-6.81-27.26,91.4,91.4,0,0,1,17-54.23"/><path class="cls-2" d="M281.2,313.26s-1.8-7.13-1.73-8.48.77-2.59,2.7-4.53,9.6-9.53,15.92-14.1,7.51-2.73,8.64-2.21,3.08,3.63,7.54,5.17,11.25,5.3,15.58,5,16.93-4.44,24.76-4.44,20.6,3.45,23.94,3.34,16.76-7.46,16.76-7.46L394.16,282s2.85-1.37,4.44-1.21,8,5.48,11.56,10.08a91.91,91.91,0,0,1,7.54,12.25"/><line class="cls-2" x1="280.13" y1="308.73" x2="282.63" y2="311.3"/><path class="cls-2" d="M356.37,305s51.68-3.6,50.22,48c0,0-.66,32.26-36.15,53.51s-67.49-3.94-72.31-17.09-8.11-28.7,4.6-52.59S342,303.8,356.37,305Z"/><path class="cls-2" d="M379.05,342.36l8.69-.58c2.74-.18,3.8.11,3.94,1.5s-.84,1.46-3.54,1.94-6.28,1-7.74,1.13-2-1.06-2.23-2.12S378.51,342.4,379.05,342.36Z"/><path class="cls-2" d="M381.94,349.41l11,1.21a1.7,1.7,0,0,1,1.31,1.42c.22,1.24-.29,1.72-1.57,1.72s-10.59-.73-11.36-.66-1-.51-1-1.51S381.11,349.32,381.94,349.41Z"/><path class="cls-2" d="M382.2,357s10.37,3.21,11.1,3.4.84.51.8,1.53-.77,1.68-2.59,1.17-9.42-1.94-10.3-2.08a1.51,1.51,0,0,1-1.13-1.83C380.22,358.39,380.94,356.58,382.2,357Z"/><path class="cls-2" d="M380.87,364.8s9.15,4.93,9.81,5.37,1.15.68.85,1.4-.71,1.86-1.45,1.86-8.27-3.34-9.37-3.89-3.09-1.07-2.57-2.74S379.66,364.14,380.87,364.8Z"/><path class="cls-2" d="M377,372s7.49,6.17,8.47,7,1.42,1.28.88,2.34-1.32,1.83-2.7,1.31-8.95-6.14-9.57-6.54a1.49,1.49,0,0,1-.55-2.08C374,373,375.7,371,377,372Z"/><path class="cls-2" d="M371.26,378.11s7,8.22,7.72,9.64.58,1.79-.26,2.48a1.92,1.92,0,0,1-2.74,0c-.95-.84-7.45-7.49-8.07-8.36a1.32,1.32,0,0,1,0-1.86c.37-.33,1.72-1.61,1.72-1.61S370.63,377.37,371.26,378.11Z"/><path class="cls-2" d="M364.79,384.33s4.18,7.84,4.8,9.23.88,2.67-.18,3.18-1.64.84-2.59-.29-5.88-9.31-6.39-10.15a1.16,1.16,0,0,1,.22-1.72,13.61,13.61,0,0,1,2.3-1.35S363.76,382.37,364.79,384.33Z"/><path class="cls-2" d="M357.14,387.06s2.43,8.22,3,10.52.94,3.18-.67,3.58-2.41.11-2.89-1.42-3.76-9.75-4.05-10.55a1.26,1.26,0,0,1,.77-1.79C354.11,387.13,356.52,386,357.14,387.06Z"/><path class="cls-2" d="M349.18,389s.66,8.87.66,10.79,0,2.79-.66,2.79-2.25.33-2.52-1.59-1.76-10.63-1.79-11.17-.08-1.18,1.46-1.34S349.13,388.21,349.18,389Z"/><path class="cls-2" d="M341.3,388.74s-.95,9.2-1.42,11-.77,2.12-1.28,2.12a1.64,1.64,0,0,1-1.75-1.72c0-1.46.15-10.7.15-11.36s.11-1,1.31-1S341.22,387.86,341.3,388.74Z"/><path class="cls-2" d="M334.06,386.61s-2.79,8.87-3.4,10.59-.55,1.56-1.31,1.34a2.06,2.06,0,0,1-1.21-2.52c.33-1.26,2.22-9.86,2.22-10.35a.78.78,0,0,1,1.1-.79C332.2,385.12,334.32,385.79,334.06,386.61Z"/><path class="cls-2" d="M327.6,382.82s-3.4,6.87-4,7.92-.93,1.81-1.37,1.89a1.76,1.76,0,0,1-1.15-2.38c.55-1.37,4.05-9.5,4.05-9.5a1,1,0,0,1,1.31-.16A3.28,3.28,0,0,1,327.6,382.82Z"/><path class="cls-2" d="M322.42,377.27s-3.72,5.7-4.71,6.68-2.12.18-1.42-1.21a51.51,51.51,0,0,1,4.46-6.94C322,374.38,323.07,375.7,322.42,377.27Z"/><path class="cls-2" d="M320.48,370.77s-4,3.34-5.18,4.19-1.81,1-1.86,0,1.94-2.79,2.88-3.81a29.91,29.91,0,0,1,3.34-3.37c.74-.47,1.12,1.45,1.23,1.86S321.1,370.25,320.48,370.77Z"/><path class="cls-2" d="M320.84,360.14a9.35,9.35,0,0,1-.9,3c-.55.63-3.94,2.19-5.2,2.63s-1.67-1-.25-2.19a48.39,48.39,0,0,1,4.88-3.45C320,359.81,320.82,359.65,320.84,360.14Z"/><path class="cls-2" d="M317.63,353.51l4.09-1.37c.78-.26,1.05-.14.89.77s-1.08,2.63-1.83,2.71-3.79.4-4.26.38S316.85,353.91,317.63,353.51Z"/><path class="cls-2" d="M321.55,347s2.36.89,2.82,1,1.22-.78,1.52-1.22a17.63,17.63,0,0,0,1.37-1.72c.07-.31-.51-.62-1.62-.68s-2.36-.26-2.85.16S320.63,346.65,321.55,347Z"/><path class="cls-2" d="M328.34,338.64s1.36,2.22,1.64,2.57,1.29-.59,1.49-.71,1.7-1.55,2-1.75-.45-1-.68-1.14-1.6-1.26-1.93-1.22S328.16,338,328.34,338.64Z"/><path class="cls-2" d="M336.93,332.24s.15,2.41.24,2.94.15.93.49.75,2.76-2,3.21-2.17.22-1.11,0-1.7-.71-1.88-1.5-1.72S336.9,331.77,336.93,332.24Z"/><path class="cls-2" d="M347,327.51l-1.53,3.82c-.13.31-.05.73,1.26.48a4.9,4.9,0,0,0,2.48-1c0-.18.47-2.32.57-3.07s.24-1.57-.88-1.22S347.13,327.16,347,327.51Z"/><path class="cls-2" d="M357.65,325.22l-3.31,3.92s-1.05,1.18.07,1.22,2.49,0,3-.58a43,43,0,0,0,2.53-4.22C360.21,324.92,359.5,324.44,357.65,325.22Z"/><path class="cls-2" d="M367.11,326.09s-4.33,3.45-4.8,3.82-1,.8-.11,1.28a4.87,4.87,0,0,0,1.83.64,8.29,8.29,0,0,0,1.94-1.3,54.33,54.33,0,0,0,4-3.82c.27-.42,0-1-.79-1.11A2.59,2.59,0,0,0,367.11,326.09Z"/><path class="cls-2" d="M376.54,329.15s-5.84,3-6.87,3.5-1.59.89-.75,1.55a3,3,0,0,0,2.94.33c.93-.4,6.72-3.89,7.16-4.24s.13-1-.29-1.14A2.57,2.57,0,0,0,376.54,329.15Z"/><path class="cls-2" d="M374.71,336.94s6.93-1.73,8.82-2.3,2.45,0,2.87.41-.4.93-1.3,1.37-5.75,2.41-6.79,2.76a3.71,3.71,0,0,1-2.7.24A6,6,0,0,1,374,338,.79.79,0,0,1,374.71,336.94Z"/><path class="cls-2" d="M363.1,319.28s22-1.42,34.73,20.82c0,0,8.11,14.56-.44,35.11s-31.88,33.15-46.56,33.69-34-3.38-40.86-22.4,1.42-36.93,10.87-47.28C330.12,329,341.84,318.95,363.1,319.28Z"/><path class="cls-2" d="M362.66,321.51s20.92-1.35,33,19.78c0,0,7.7,13.83-.42,33.36s-30.29,31.5-44.24,32-32.27-3.21-38.83-21.28,1.35-35.09,10.33-44.93C331.33,330.79,342.47,321.2,362.66,321.51Z"/><path class="cls-2" d="M362.15,324.14s19.63-1.27,31,18.56c0,0,7.23,13-.39,31.3s-28.42,29.55-41.51,30-30.28-3-36.43-20,1.27-32.92,9.69-42.15C332.75,332.85,343.2,323.85,362.15,324.14Z"/><path class="cls-2" d="M364.49,220.55s0-3.38-2.85-3.85-10,0-10,0-4.42.15-4.6,4.16-.44,18.59-.44,18.59l-.8,16.87-.18,10.37s-.15,6,5.44,6,9.28,0,9.28,0,1.76-.45,2.11-3.44"/><polyline class="cls-2" points="364.3 175.93 361.18 180.75 347.27 179.37"/><line class="cls-2" x1="356.58" y1="180.29" x2="358.6" y2="196.8"/><line class="cls-2" x1="354.88" y1="180.25" x2="356.58" y2="197.14"/><path class="cls-2" d="M200.63,157.36s2.19-64.2,43.82-73.4c0,0,27.94-1.53,45.26,35.82"/><path class="cls-2" d="M196.25,155.68S198.38,134.62,203,119"/><path class="cls-2" d="M241.74,216.74c-23.08,2.08-41.83,20.16-41.83,20.16"/><path class="cls-2" d="M208.08,230.34s-1.42-30.91-1.31-33.32a4.55,4.55,0,0,1,2.63-3.83c.55-.22.05-9.19.05-9.19"/><path class="cls-2" d="M246.76,179.64c-5.58,5.2-25.09,7.07-29.48,6.31s-14.35-2.74-18.73-8.11-5.81-24.51-5.81-24.51.44-1.71,1.13-.83,2.85,4.56,4.75,4.86,6.32.4,8.33,1.79,7.71,3.36,14.17,3.91,35.52-.23,37.92-8.33"/><path class="cls-2" d="M216.08,185.83s-1.07,17.91-1,20-.29,3.43,1.75,3.58,10.08.29,10.37.29,2.41-.15,2.19-2.12.94-18.41,2.59-22.57"/><path class="cls-2" d="M214.78,226V220.1s-.06-5.33,4.11-5.33h7.38s2.72.62,2.78,4.69"/><path class="cls-2" d="M235.75,184.21s-1.79,22.1-1.09,33.66"/><path class="cls-2" d="M3.36,445.48s28,1.17,30.31,1.39,10,.37,14.1,2.92,13.22,5.84,24,7.3c0,0,92.9,19.35,190.84-16.21a1.07,1.07,0,0,1,1.28,0,3.24,3.24,0,0,1,2.08-1.06c1.61-.33,7.93-2.59,9.5-3.83s1.39-1.9,1.39-1.9,6.55,4.88,7.53,5.42S295,444,295.56,444.14s.62.46.19,1.21"/><path class="cls-2" d="M263.43,439.82a1.18,1.18,0,0,1,1.51,1.26c.05,1.62.22,6.66.22,6.66s-1.7,8.52-1.73,8.79-1.59,3.2-1.59,3.2"/><path class="cls-2" d="M261.54,459.4l.77-2.25s1.7-8.68,1.78-9.5-.17-6.76-.17-6.76"/><path class="cls-2" d="M250.58,452.35l8.4-2.21s2.36-.59,2.09,1.1c0,0-.68,3.47-.85,4.24s-.36,1.15-1.18,1.4-4.49,1.42-4.49,1.42a1.88,1.88,0,0,1-1.78-.55c-.74-.82-3.15-3.56-3.15-3.56A1.44,1.44,0,0,1,250.58,452.35Z"/><path class="cls-2" d="M221.3,460.06l13.58-3.54s2-.84,3,.23,2.93,3.31,2.93,3.31,1,1.23-.44,1.81-15.53,4.27-15.53,4.27a2.78,2.78,0,0,1-2.63-.52,20.19,20.19,0,0,1-3-3.6S218.52,460.6,221.3,460.06Z"/><path class="cls-2" d="M188.91,466s11.87-1.86,14.46-2.37,2.7-.55,3.69.62,2.56,3.4,2.56,3.4.8,1.06-.95,1.57-15.12,2.59-16.1,2.74-1.35.36-1.86-.33-3.21-3.93-3.21-3.93S186.59,466.34,188.91,466Z"/><path class="cls-2" d="M156.7,469.33s10.81-.77,14.21-1.28,3.62-.22,4.67.95,3.91,4.53,1.68,4.89-14.21,1.31-15.67,1.42-2.74.4-3.32-.51-2.74-4.09-2.74-4.09S155.09,469.45,156.7,469.33Z"/><path class="cls-2" d="M125.62,470.13s12.05.22,14.61,0,2.81.11,3.62,1.5,3.65,4.6,1.42,4.78-17.09,0-17.09,0-1,.33-2.56-1.39a13.63,13.63,0,0,1-2.26-3.51S123.17,469.77,125.62,470.13Z"/><path class="cls-2" d="M94.58,467.65s12.82,1.21,14.5,1.31,1.94,0,3.14,2,3,4.42,1.24,4.57-15.19-1.39-16-1.39a2.5,2.5,0,0,1-2-1.46c-.44-.77-2.3-4.13-2.3-4.13S92.69,467.47,94.58,467.65Z"/><path class="cls-2" d="M76.72,465.86l3.62.22s1-.29,1.75,1.28,3.47,5.22,2.26,5.4a62.73,62.73,0,0,1-7.38-.55c-.73-.07-1.1-.58-1.13-1.53s0-3.91,0-3.91S75.84,465.81,76.72,465.86Z"/><path class="cls-2" d="M4.52,459.76S4,456.44,6.06,456.5s25.69,3.56,38.78,4.66,31.88,3.45,37.25,4.05,30.62,3.29,38.67,3.62,29.31,0,44.31-1.19c0,0,58.32-6.57,99-20"/><path class="cls-2" d="M265.16,447.39s15.23-3.8,18.59-8.3"/><polyline class="cls-2" points="72.59 457.2 70.66 463.86 71.62 474.26"/><path class="cls-2" d="M28.55,462.58s4.73.38,6,.58,2.71.82,2.05,2.66-1.84,4.74-1.92,5.15-1.2.38-2,.3-1.89-2.14-2.66-3.37-2.38-4.6-2.38-4.6S27.39,462.33,28.55,462.58Z"/><path class="cls-2" d="M18,461.15s3.18.55,4.53.62,1.53.37,2,1.57,3.07,5.66,3.36,6.28.58,1.1-.55,1.1-6.14-.95-6.14-.95-.58-.15-1.28-1.24-3.21-6.32-3.21-6.32S16.22,460.87,18,461.15Z"/><path class="cls-2" d="M9.53,460.17l3.1.42s.69-.13,1.28,1.19,2.7,5,3,5.5.18,1.08-.4,1.08-4.2-1-4.2-1a3.76,3.76,0,0,1-.86-.82c-.4-.53-2.5-4.55-2.78-5.17A.83.83,0,0,1,9.53,460.17Z"/><path class="cls-2" d="M378.27,233.28s-1.11,27.35-1.19,31.66c0,0-1,9.5,5.48,13.66s11.43,6,12.55,7"/><path class="cls-2" d="M378.11,272.75s6.08,5.61,9,6.92a85,85,0,0,1,7.6,4.18"/><path class="cls-2" d="M378.11,238.87s22.55,9,34.5,37.85"/></g></g></svg>