<?xml version="1.0" encoding="UTF-8"?>
<svg width="43px" height="19px" viewBox="0 0 43 19" version="1.1" xmlns="http://www.w3.org/2000/svg" xmlns:xlink="http://www.w3.org/1999/xlink">
    <!-- Generator: Sketch 44.1 (41455) - http://www.bohemiancoding.com/sketch -->
    <title>Page 1</title>
    <desc>Created with Sketch.</desc>
    <defs>
        <polygon id="path-1" points="8.6248125 13.9998923 8.6248125 0.202892308 0.00421875 0.202892308 0.00421875 13.9998923 8.6248125 13.9998923"></polygon>
    </defs>
    <g id="Symbols" stroke="none" stroke-width="1" fill="none" fill-rule="evenodd">
        <g id="Apple-Pay-Half" transform="translate(-60.000000, -10.000000)">
            <g id="Page-1" transform="translate(60.000000, 10.000000)">
                <path d="M8.16747141,2.39486729 C8.68212374,1.76062283 9.02838268,0.878099575 8.93418762,0 C8.19220419,0.0304127687 7.29498309,0.503193082 6.76296519,1.13688459 C6.28620137,1.69813841 5.86837524,2.59614453 5.98098833,3.45710236 C6.80822091,3.52235157 7.65281907,3.02911176 8.16747141,2.39486729 M10.0219038,7.96869835 C10.0429529,10.2391498 11.9784246,10.9944924 12,11.0038927 C11.9836869,11.0575297 11.6905771,12.0805047 10.9801675,13.1372101 C10.3660578,14.0512521 9.72826776,14.9614233 8.7242221,14.9802239 C7.737542,14.9990245 7.42022569,14.3846866 6.29198989,14.3846866 C5.16375409,14.3846866 4.81118041,14.9614233 3.87712325,14.9990245 C2.90780873,15.0360728 2.16950891,14.010886 1.55013693,13.1007148 C0.284555262,11.2383475 -0.682128114,7.83819992 0.616079772,5.54286533 C1.261237,4.40321594 2.41420557,3.68160389 3.66557904,3.66280327 C4.617528,3.6445556 5.51632778,4.31474243 6.09781125,4.31474243 C6.67982094,4.31474243 7.77122068,3.50852759 8.9194532,3.6268609 C9.39990062,3.6473204 10.7486265,3.82426742 11.6148001,5.11487473 C11.5448116,5.15911148 10.0050644,6.07094158 10.0219038,7.96869835" id="Fill-1" fill="#ffffff"></path>
                <path d="M17.0250145,7.68202301 C17.2722513,7.74531263 17.547993,7.78977227 17.8534031,7.81540195 C18.1582315,7.84103162 18.4851658,7.85358494 18.8336242,7.85358494 C20.141943,7.85358494 21.1553229,7.58578096 21.8749273,7.04964996 C22.59395,6.51404201 22.954043,5.72893699 22.954043,4.69538103 C22.954043,4.19743301 22.8592205,3.76329766 22.6701571,3.39297497 C22.4816754,3.02265229 22.2129145,2.71980365 21.8638743,2.48338296 C21.5154159,2.24748531 21.1012216,2.06912368 20.6218732,1.94777501 C20.141943,1.82642633 19.611402,1.76575199 19.0302501,1.76575199 C18.565445,1.76575199 18.1657941,1.78144363 17.8312973,1.81334996 C17.4968005,1.8452563 17.2280396,1.88030096 17.0250145,1.91848395 L17.0250145,7.68202301 Z M16,1.24897401 C16.4217568,1.18516134 16.886562,1.12762533 17.3949971,1.07688903 C17.9034322,1.02562968 18.4630599,1 19.0738802,1 C19.9458988,1 20.6980803,1.09258067 21.3304247,1.27774201 C21.9621873,1.46290336 22.4816754,1.727569 22.8883072,2.07226201 C23.2373473,2.37824897 23.5101803,2.742295 23.7062245,3.16335399 C23.9022688,3.58493603 24,4.06980768 24,4.61849199 C24,5.28224833 23.8656195,5.86336203 23.5968586,6.360787 C23.3280977,6.85873501 22.9616056,7.27665567 22.4962187,7.61507202 C22.0314136,7.95296532 21.4793485,8.20507765 20.8394415,8.37088597 C20.2001163,8.53669429 19.5026178,8.61985998 18.7469459,8.61985998 C18.0639907,8.61985998 17.4898197,8.57540034 17.0250145,8.48595799 L17.0250145,14 L16,14 L16,1.24897401 Z" id="Fill-3" fill="#ffffff"></path>
                <path d="M30.8917671,9.66176871 C30.3713414,9.64816327 29.8273595,9.66829932 29.2592738,9.72108844 C28.6917358,9.77442177 28.168571,9.89088435 27.6892315,10.069932 C27.2104398,10.2495238 26.8132728,10.5118367 26.4988261,10.8568707 C26.1838316,11.202449 26.0266082,11.6606803 26.0266082,12.2315646 C26.0266082,12.9085714 26.2249178,13.4065306 26.621537,13.7254422 C27.018704,14.0443537 27.4635311,14.2038095 27.9560182,14.2038095 C28.3526373,14.2038095 28.7087181,14.1504762 29.0231648,14.0438095 C29.3381593,13.9376871 29.6115198,13.795102 29.8443418,13.6155102 C30.0771639,13.4364626 30.2721866,13.2340136 30.4294099,13.0081633 C30.5866333,12.7828571 30.7066051,12.5504762 30.7887776,12.3110204 C30.8572547,12.0454422 30.8917671,11.8527891 30.8917671,11.7330612 L30.8917671,9.66176871 Z M31.8564721,12.5096599 C31.8564721,12.8955102 31.8630459,13.2802721 31.8767413,13.6655782 C31.8904367,14.0503401 31.9315229,14.422585 32,14.7812245 L31.0966505,14.7812245 L30.9531226,13.4266667 L30.9120363,13.4266667 C30.7887776,13.6127891 30.6310064,13.7983673 30.4398184,13.9844898 C30.2480826,14.170068 30.0262169,14.3393197 29.7731257,14.4922449 C29.5200344,14.6451701 29.2324307,14.7681633 28.9103146,14.8606803 C28.5887463,14.9537415 28.2365002,15 27.8535765,15 C27.374237,15 26.9535139,14.9238095 26.5908593,14.7708844 C26.2282047,14.6185034 25.9301925,14.4193197 25.6979183,14.1733333 C25.4650963,13.9278912 25.2908906,13.6454422 25.1742057,13.3270748 C25.0580686,13.0081633 25,12.6897959 25,12.3708844 C25,11.2421769 25.4892002,10.3719728 26.4676006,9.76136054 C27.4460009,9.15020408 28.9207231,8.85795918 30.8917671,8.88462585 L30.8917671,8.62612245 C30.8917671,8.37360544 30.8676632,8.08462585 30.8200031,7.75918367 C30.7717953,7.4337415 30.6655189,7.12462585 30.5017217,6.83292517 C30.3373767,6.54068027 30.0908593,6.2952381 29.7627172,6.09605442 C29.4340272,5.89687075 28.9892002,5.79727891 28.4276882,5.79727891 C28.004226,5.79727891 27.5835029,5.86040816 27.1660667,5.98612245 C26.7486305,6.11238095 26.3684458,6.28816327 26.0266082,6.51401361 L25.7181875,5.81687075 C26.1564408,5.52462585 26.6083894,5.31564626 27.0734857,5.18938776 C27.5385819,5.06312925 28.0244952,5 28.5306777,5 C29.2149006,5 29.7731257,5.11319728 30.2037095,5.33904762 C30.6348411,5.56435374 30.9733918,5.85659864 31.2199092,6.2152381 C31.4664267,6.57387755 31.6340585,6.9755102 31.7233526,7.42013605 C31.8120989,7.86530612 31.8564721,8.30666667 31.8564721,8.7447619 L31.8564721,12.5096599 Z" id="Fill-5" fill="#ffffff"></path>
                <g id="Group-9" transform="translate(34.000000, 5.000000)">
                    <mask id="mask-2" fill="white">
                        <use xlink:href="#path-1"></use>
                    </mask>
                    <g id="Clip-8"></g>
                    <path d="M1.05834375,0.202892308 L3.62953125,6.35266154 C3.77015625,6.69404615 3.90346875,7.04566154 4.03003125,7.40696923 C4.15659375,7.76827692 4.26909375,8.09996923 4.36753125,8.40258462 L4.40971875,8.40258462 C4.50815625,8.11343077 4.62009375,7.7882 4.74665625,7.42689231 C4.87321875,7.06558462 5.01384375,6.69404615 5.16796875,6.31281538 L7.57153125,0.202892308 L8.62509375,0.202892308 L5.69559375,7.14096923 C5.40028125,7.87704615 5.12240625,8.54366154 4.86253125,9.14189231 C4.60265625,9.73958462 4.33940625,10.2785846 4.07221875,10.7578154 C3.80559375,11.2375846 3.53503125,11.6613538 3.26109375,12.0291231 C2.98659375,12.3968923 2.68115625,12.7188923 2.34365625,12.9951231 C1.95046875,13.3230462 1.58878125,13.5632 1.25859375,13.7145077 C0.92840625,13.8652769 0.70678125,13.9605846 0.59428125,13.9998923 L0.25678125,13.2315077 C0.50990625,13.1259692 0.79115625,12.9881231 1.09996875,12.8174308 C1.40934375,12.6467385 1.71140625,12.4232769 2.00671875,12.1475846 C2.25928125,11.9106615 2.53715625,11.5988923 2.83921875,11.2112 C3.14128125,10.8235077 3.41184375,10.3539692 3.65090625,9.80150769 C3.73528125,9.59150769 3.77746875,9.45366154 3.77746875,9.38796923 C3.77746875,9.29589231 3.73528125,9.15804615 3.65090625,8.97389231 L0.00421875,0.202892308 L1.05834375,0.202892308 Z" id="Fill-7" fill="#ffffff" mask="url(#mask-2)"></path>
                </g>
            </g>
        </g>
    </g>
</svg>