<?xml version="1.0" encoding="UTF-8"?>
<svg width="79px" height="21px" viewBox="0 0 79 21" version="1.1" xmlns="http://www.w3.org/2000/svg" xmlns:xlink="http://www.w3.org/1999/xlink">
    <!-- Generator: Sketch 44.1 (41455) - http://www.bohemiancoding.com/sketch -->
    <title>logo</title>
    <desc>Created with Sketch.</desc>
    <defs>
        <polygon id="path-1" points="0.000409841119 0.589 15.8520972 0.589 15.8520972 18.1638643 0.000409841119 18.1638643 0.000409841119 0.589"></polygon>
        <polygon id="path-3" points="0.000409841119 0.589 15.8520972 0.589 15.8520972 18.1638643 0.000409841119 18.1638643 0.000409841119 0.589"></polygon>
        <polygon id="path-5" points="15.4340199 0.6076 0 0.6076 0 21 79.2124138 21 79.2124138 0.6076 15.4340199 0.6076 1.25553743e-05 0.60676 1.25553743e-05 18.73676 15.4340199 18.73676 15.4340199 0.6076"></polygon>
        <polygon id="path-7" points="13.1054267 15 0.344943734 15 0.344943734 0.183272727 13.1054267 0.183272727 13.1054267 15"></polygon>
    </defs>
    <g id="Symbols" stroke="none" stroke-width="1" fill="none" fill-rule="evenodd">
        <g id="Paypal-Half" transform="translate(-40.000000, -8.000000)">
            <g id="Paypal">
                <g id="logo" transform="translate(40.000000, 8.000000)">
                    <g id="Group-3">
                        <mask id="mask-2" fill="white">
                            <use xlink:href="#path-1"></use>
                        </mask>
                        <g id="Clip-2"></g>
                        <path d="M14.8895917,2.07900714 C13.9347583,1.03536429 12.206425,0.588864286 9.99784167,0.588864286 L3.58459167,0.588864286 C3.132675,0.588864286 2.74734167,0.903721429 2.677925,1.32986429 L0.00750833333,17.5545071 C-0.046325,17.8734357 0.212925,18.1638643 0.551508333,18.1638643 L4.509675,18.1638643 L5.504175,12.1218643 L5.47300833,12.3105071 C5.54384167,11.8843643 5.92634167,11.5695071 6.37684167,11.5695071 L8.258175,11.5695071 C11.9542583,11.5695071 14.8485083,10.1309357 15.6942583,5.97129286 C15.7183417,5.84779286 15.7410083,5.72836429 15.759425,5.61029286 C16.0115917,4.07265 15.7580083,3.02629286 14.8895917,2.07900714" id="Fill-1" fill="#003087" mask="url(#mask-2)"></path>
                    </g>
                    <path d="M61.3849386,6 L57.246389,6 C56.9629811,6 56.721952,6.21564336 56.6782489,6.50731483 L55.0042884,17.5839189 C54.97118,17.8023269 55.1340733,18 55.3446427,18 L57.4688774,18 C57.6662035,18 57.8357185,17.8493261 57.8661782,17.6461237 L58.3416148,14.5054717 C58.3853178,14.2124179 58.626347,13.9981569 58.9084305,13.9981569 L60.2181987,13.9981569 C62.9450062,13.9981569 64.5183172,12.621357 64.9288613,9.89125677 C65.1142683,8.69830665 64.9368073,7.76108743 64.4017756,7.10448105 C63.8124462,6.38152287 62.7701939,6 61.3849386,6 M61.8630238,10.0460776 C61.6365624,11.597051 60.5016065,11.597051 59.4037321,11.597051 L58.7799699,11.597051 L59.2183251,8.70107131 C59.2434875,8.52689782 59.3891644,8.3983412 59.5586794,8.3983412 L59.844736,8.3983412 C60.5916614,8.3983412 61.2975324,8.3983412 61.6617247,8.84206889 C61.8789158,9.1074761 61.9451326,9.50143993 61.8630238,10.0460776" id="Fill-4" fill="#009CDE"></path>
                    <path d="M30.3849486,6 L26.2464106,6 C25.9630035,6 25.7219751,6.21564336 25.6782721,6.50731483 L24.0043162,17.5839189 C23.9712079,17.8023269 24.1327765,18 24.3446696,18 L26.3218975,18 C26.6039803,18 26.8450087,17.7843566 26.8887117,17.4940675 L27.3416333,14.5054717 C27.3853363,14.2124179 27.6263647,13.9981569 27.9084475,13.9981569 L29.218212,13.9981569 C31.9450119,13.9981569 33.5183185,12.621357 33.9288615,9.89125677 C34.114268,8.69830665 33.9368075,7.76108743 33.4017773,7.10448105 C32.8124495,6.38152287 31.7702001,6 30.3849486,6 M30.8630325,10.0460776 C30.6365717,11.597051 29.5016191,11.597051 28.4037477,11.597051 L27.7799872,11.597051 L28.2183412,8.70107131 C28.2435035,8.52689782 28.38918,8.3983412 28.5586946,8.3983412 L28.8447503,8.3983412 C29.5916736,8.3983412 30.2975427,8.3983412 30.661734,8.84206889 C30.8789245,9.1074761 30.9451411,9.50143993 30.8630325,10.0460776" id="Fill-6" fill="#003087"></path>
                    <path d="M43.6452811,9.18583196 L41.6063159,9.18583196 C41.430496,9.18583196 41.2819351,9.30840198 41.2546762,9.47578254 L41.1647218,10.0266886 L41.0229756,9.8276771 C40.5813815,9.20823723 39.5959725,9 38.6132894,9 C36.3603418,9 34.4358639,10.6514003 34.0610542,12.9670511 C33.8661531,14.1228995 34.1428308,15.2273476 34.8202143,15.9970346 C35.4430801,16.7047776 36.330357,17 37.3893651,17 C39.2048074,17 40.2120235,15.8718287 40.2120235,15.8718287 L40.1207062,16.4200988 C40.0866326,16.6283361 40.2542748,16.816804 40.4723459,16.816804 L42.3082324,16.816804 C42.5999026,16.816804 42.8479585,16.6125206 42.8929357,16.3344316 L43.9955579,9.58253707 C44.0296315,9.37429984 43.8633523,9.18583196 43.6452811,9.18583196 M40.8021785,13.0250412 C40.6059145,14.1518946 39.6804751,14.908402 38.500165,14.908402 C37.908647,14.908402 37.4357052,14.723888 37.1317685,14.3759473 C36.8291948,14.0306425 36.7160704,13.5377265 36.8114765,12.9907743 C36.9954741,11.8731466 37.9345429,11.092916 39.0971347,11.092916 C39.6763862,11.092916 40.1466021,11.2787479 40.4573535,11.6306425 C40.7694679,11.983855 40.8921329,12.4794069 40.8021785,13.0250412" id="Fill-8" fill="#003087"></path>
                    <path d="M73.6452811,9.18583196 L71.6063159,9.18583196 C71.430496,9.18583196 71.2819351,9.30840198 71.2546762,9.47578254 L71.1647218,10.0266886 L71.0229756,9.8276771 C70.5813815,9.20823723 69.5959725,9 68.6132894,9 C66.3603418,9 64.4358639,10.6514003 64.0610542,12.9670511 C63.8661531,14.1228995 64.1428308,15.2273476 64.8202143,15.9970346 C65.4430801,16.7047776 66.330357,17 67.3893651,17 C69.2048074,17 70.2120235,15.8718287 70.2120235,15.8718287 L70.1207062,16.4200988 C70.0866326,16.6283361 70.2542748,16.816804 70.4723459,16.816804 L72.3082324,16.816804 C72.5999026,16.816804 72.8479585,16.6125206 72.8929357,16.3344316 L73.9955579,9.58253707 C74.0296315,9.37429984 73.8633523,9.18583196 73.6452811,9.18583196 M70.8021785,13.0250412 C70.6059145,14.1518946 69.6804751,14.908402 68.500165,14.908402 C67.908647,14.908402 67.4357052,14.723888 67.1317685,14.3759473 C66.8291948,14.0306425 66.7160704,13.5377265 66.8114765,12.9907743 C66.9954741,11.8731466 67.9345429,11.092916 69.0971347,11.092916 C69.6763862,11.092916 70.1466021,11.2787479 70.4573535,11.6306425 C70.7694679,11.983855 70.8921329,12.4794069 70.8021785,13.0250412" id="Fill-10" fill="#009CDE"></path>
                    <path d="M54.6392379,10 L52.5599443,10 C52.360863,10 52.1742243,10.099936 52.0636236,10.268842 L49.1949172,14.568906 L47.9796918,10.4363404 C47.9022713,10.1773512 47.6686272,10 47.4031855,10 L45.3598371,10 C45.1137505,10 44.9395543,10.2477287 45.0197399,10.4841971 L47.3091749,17.3277031 L45.1552258,20.4214971 C44.9865597,20.6650032 45.1566083,21 45.4497002,21 L47.5262288,21 C47.7225451,21 47.9078013,20.9014715 48.0197845,20.7381958 L54.9350949,10.5756878 C55.100996,10.3321817 54.9295649,10 54.6392379,10" id="Fill-12" fill="#003087"></path>
                    <path d="M76.5841214,6.30411243 L75.0037222,17.5839189 C74.974159,17.8023269 75.1244386,18 75.3215266,18 L76.9105483,18 C77.1729217,18 77.3971092,17.7843566 77.4377586,17.4926852 L78.9959853,6.4160811 C79.0267803,6.19767308 78.8765008,6 78.6794128,6 L76.9006939,6 C76.7430235,6 76.6087574,6.12855662 76.5841214,6.30411243" id="Fill-14" fill="#009CDE"></path>
                    <g id="Group-18">
                        <mask id="mask-4" fill="white">
                            <use xlink:href="#path-3"></use>
                        </mask>
                        <g id="Clip-17"></g>
                        <path d="M14.8895917,2.07900714 C13.9347583,1.03536429 12.206425,0.588864286 9.99784167,0.588864286 L3.58459167,0.588864286 C3.132675,0.588864286 2.74734167,0.903721429 2.677925,1.32986429 L0.00750833333,17.5545071 C-0.046325,17.8734357 0.212925,18.1638643 0.551508333,18.1638643 L4.509675,18.1638643 L5.504175,12.1218643 L5.47300833,12.3105071 C5.54384167,11.8843643 5.92634167,11.5695071 6.37684167,11.5695071 L8.258175,11.5695071 C11.9542583,11.5695071 14.8485083,10.1309357 15.6942583,5.97129286 C15.7183417,5.84779286 15.7410083,5.72836429 15.759425,5.61029286 C16.0115917,4.07265 15.7580083,3.02629286 14.8895917,2.07900714" id="Fill-16" fill="#003087" mask="url(#mask-4)"></path>
                    </g>
                    <g id="Group-21">
                        <mask id="mask-6" fill="white">
                            <use xlink:href="#path-5"></use>
                        </mask>
                        <g id="Clip-20"></g>
                        <path d="M6.39972414,5.80916 C6.44110345,5.54456 6.60937931,5.32756 6.8342069,5.21696 C6.93765517,5.16656 7.05213793,5.13996 7.17213793,5.13996 L12.0673103,5.13996 C12.6466207,5.13996 13.1873103,5.17776 13.6811034,5.25896 C13.8231724,5.28136 13.9597241,5.30796 14.0935172,5.33876 C14.2273103,5.36816 14.3569655,5.40176 14.4824828,5.43956 C14.5445517,5.45776 14.6066207,5.47736 14.6673103,5.49836 C14.910069,5.57956 15.1362759,5.67616 15.3445517,5.78816 C15.5886897,4.20196 15.3417931,3.12256 14.4976552,2.14536 C13.5666207,1.06876 11.8852414,0.60676 9.73351724,0.60676 L3.48937931,0.60676 C3.04937931,0.60676 2.67558621,0.93156 2.60662069,1.37256 L0.00662068966,18.10816 C-0.0444137931,18.43856 0.20662069,18.73676 0.536275862,18.73676 L4.39144828,18.73676 L5.35972414,12.50396 L6.39972414,5.80916 Z" id="Fill-19" fill="#003087" mask="url(#mask-6)"></path>
                    </g>
                    <g id="Group-24" transform="translate(4.000000, 5.000000)">
                        <mask id="mask-8" fill="white">
                            <use xlink:href="#path-7"></use>
                        </mask>
                        <g id="Clip-23"></g>
                        <path d="M11.4423636,0.183272727 L11.4423636,0.183272727 C11.4232727,0.301909091 11.4028182,0.420545455 11.3796364,0.544636364 C10.5655455,4.72418182 7.77963636,6.16963636 4.22190909,6.16963636 L2.411,6.16963636 C1.976,6.16963636 1.60918182,6.486 1.541,6.91554545 L0.613727273,12.7955455 L0.350545455,14.4632727 C0.306909091,14.7455455 0.523727273,15.0005455 0.808727273,15.0005455 L4.02145455,15.0005455 C4.40190909,15.0005455 4.72509091,14.7237273 4.78372727,14.3473636 L4.81509091,14.1837273 L5.42054545,10.3464545 L5.46009091,10.1350909 C5.51872727,9.76009091 5.84327273,9.48190909 6.22372727,9.48190909 L6.70372727,9.48190909 C9.81554545,9.48190909 12.2523636,8.21781818 12.9641818,4.56190909 C13.2614545,3.03327273 13.1087273,1.75827273 12.3219091,0.862363636 C12.0832727,0.591 11.7873636,0.366 11.4423636,0.183272727" id="Fill-22" fill="#009CDE" mask="url(#mask-8)"></path>
                    </g>
                    <path d="M14.139237,5.27740741 C14.0139099,5.24240741 13.8844512,5.2112963 13.7508608,5.18407407 C13.6186476,5.15685185 13.4809255,5.13222222 13.3390718,5.11018519 C12.8460267,5.035 12.3061562,5 11.7277235,5 L6.83996695,5 C6.72014874,5 6.60583942,5.02462963 6.50254786,5.0712963 C6.27668365,5.1737037 6.11003994,5.37462963 6.06872332,5.61962963 L5.03029886,11.8198148 L5,12 C5.06886104,11.5916667 5.43933343,11.2909259 5.87866685,11.2909259 L7.70761603,11.2909259 C11.300785,11.2909259 14.114447,9.91814815 14.9366478,5.9437037 C14.9600606,5.82574074 14.9807189,5.71296296 15,5.60018519 C14.7920397,5.49648148 14.5661755,5.40703704 14.3237846,5.33185185 C14.2631869,5.31240741 14.2025892,5.29425926 14.139237,5.27740741" id="Fill-25" fill="#012169"></path>
                </g>
            </g>
        </g>
    </g>
</svg>